<svg width="393" height="326" viewBox="0 0 393 326" fill="none" xmlns="http://www.w3.org/2000/svg">
<path d="M396.751 0H-6.48743V221.803H396.751V0Z" fill="#D9EAF2"/>
<path opacity="0.6" d="M179.425 219.575L184.121 193.854L191.215 211.617L194.353 158.076L207.614 180.601L211.984 144.39L221.897 158.871L228.508 150.327L245.14 187.058L254.708 157.593L279.1 178.475L280.56 148.208L285.911 170.768L292.611 159.563L302.524 174.043L309.007 155.843L331.213 194.831L326.262 146.647L335.778 159.456L333.25 133.616L363.982 181.236L360.372 153.878L375.861 170.616L379.032 183.986L182.199 231.273L179.425 219.575Z" fill="#C0DAEC"/>
<path opacity="0.6" d="M17.4653 98.5236C23.3228 96.8806 29.4806 97.9814 33.0068 101.592C38.1418 106.831 37.5789 117.184 29.573 123.647C33.2609 116.586 41.8969 113.134 49.7034 115.533C57.3397 117.882 62.187 125.216 61.0802 132.854C62.0925 133.599 65.7532 136.479 66.9377 141.685C68.1558 147.025 65.9212 151.192 65.3205 152.233C65.5473 152.28 68.3007 152.902 69.1597 155.108C70.0187 157.314 68.643 160.285 65.6019 161.536C73.3727 155.545 81.3535 155.233 83.9031 158.176C86.375 161.031 83.6553 166.831 83.2961 167.574C84.7768 168.995 88.9226 173.351 89.5673 180.03C89.8126 182.635 89.508 185.261 88.6727 187.746C90.9381 186.817 93.3906 186.408 95.8427 186.549C105.644 187.185 110.807 196.971 111.174 197.684C116.087 193.215 123.631 192.706 128.946 196.343C131.346 197.995 133.122 200.375 133.999 203.114C134.875 205.853 134.803 208.798 133.793 211.493C134.955 211.288 138.017 210.945 140.588 212.635C144.246 215.038 145.544 220.675 142.927 226.054L143.557 277.467H-8.58771V89.4482C-7.06926 87.6183 -4.3873 85.1148 -0.636343 84.5356C6.0948 83.4924 14.1344 88.9532 17.4653 98.5236Z" fill="#99D3D4"/>
<path opacity="0.6" d="M169.72 211.228L192.232 187.602L195.136 192.576L202.399 182.628L206.755 191.954L215.47 180.763L220.553 186.982L227.089 178.898L237.256 195.063L244.516 183.873L248.147 191.334L254.683 174.547L266.304 186.982L269.933 168.95L281.553 178.276L285.184 172.682L291.718 177.034V168.95L300.434 175.169V164.598L314.23 168.95L311.326 154.03L327.302 160.869L351.267 172.682L358.528 222.419H169.72V211.228Z" fill="#99D3D4"/>
<path opacity="0.6" d="M323.91 167.923L312.888 164.504L321.203 187.859L296.956 174.407L297.966 199.093L285.848 183.353L285.804 201.301L265.716 184.758L270.92 203.319C268.717 200.627 264.859 198.84 260.465 198.84C253.612 198.84 248.057 203.18 248.057 208.534V232.893H367.769V167.923H323.91Z" fill="#66B3AF"/>
<path opacity="0.6" d="M81.3557 198.353C81.0633 195.342 79.9742 192.457 78.1956 189.982C76.417 187.507 74.01 185.528 71.2117 184.238C73.3224 178.64 67.6413 169.427 57.1025 162.193C47.0656 155.301 35.8086 152.387 29.487 154.601C29.6045 153.436 29.6045 152.262 29.487 151.097C29.209 148.222 28.205 145.46 26.5653 143.058C24.9256 140.656 22.7015 138.69 20.0927 137.337C21.1977 134.677 21.6203 131.792 21.3235 128.935C20.3532 119.4 11.8474 112.423 2.32504 113.35C-7.19728 114.276 -14.13 122.756 -13.1598 132.291L-9.09586 172.285L-3.82225 224.076L26.8995 221.088L65.9759 217.285C75.4436 216.305 82.3217 207.854 81.3557 198.353Z" fill="#4BAC95"/>
<path opacity="0.6" d="M242.807 208.864C241.628 207.749 238.944 205.209 235.036 204.962C229.575 204.617 223.905 208.901 220.754 215.847C219.129 212.931 214.034 204.757 203.743 200.855C194.909 197.501 181.691 197.068 172.87 205.168C168.249 209.425 166.431 214.566 165.675 217.472C163.202 215.32 160.283 213.715 157.118 212.767C150.872 210.906 145.548 212.206 143.408 212.855C141.51 210.132 139.037 207.838 136.156 206.129C126.464 200.323 114.554 202.083 109.555 210.064C104.557 218.045 108.362 229.217 118.055 235.025L158.706 259.386L211.358 290.927L227.486 265.184L248.002 232.437C248.412 230.494 251.191 216.798 242.807 208.864Z" fill="#66B3AF"/>
<path d="M391.503 138.693C391.503 138.693 374.298 133.587 377.732 132.531C377.732 132.531 382.754 131.995 385.652 129.915C388.55 127.835 372.421 127.381 372.664 121.435L377.686 120.897L376.619 118.833C376.619 118.833 380.061 120.371 374.758 116.514C374.758 116.514 358.587 105.718 353.229 87.641C353.229 87.641 355.443 112.452 343.593 124.132C343.593 124.132 340.426 125.695 345.181 124.643L343.604 126.717C343.604 126.717 340.191 131.644 352.582 122.296C352.582 122.296 345.513 139.385 340.768 143.024C340.768 143.024 338.935 147.166 343.95 145.339L342.11 148.189C342.11 148.189 340.804 152.071 346.344 148.69C346.344 148.69 350.837 148.413 343.49 162.403L363.457 152.545L361.859 166.547L379.124 168.433L381.985 143.396L391.503 138.693Z" fill="#44B8A0"/>
<path d="M355.193 115.83C353.235 117.899 352.208 118.985 350.822 120.453C348.266 123.16 346.865 124.655 344.654 124.918C344.214 124.969 343.77 124.969 343.331 124.918C343.016 124.918 342.61 124.865 342.537 124.664C342.396 124.269 343.608 123.524 343.854 123.366C345.807 122.109 347.275 118.942 348.653 115.972C349.646 113.834 352.412 107.745 353.013 100.056C353.181 97.9137 353.239 94.9214 353.254 94.0999C353.304 91.4301 353.271 89.2038 353.229 87.6368C354.465 91.3113 356.073 94.8559 358.03 98.2177C363.879 108.267 371.608 114.528 376.879 118.053C377.859 118.717 378.302 119.146 378.207 119.34C378.134 119.503 377.693 119.503 376.886 119.34C377.586 120.14 377.852 120.655 377.686 120.887C377.172 121.627 372.316 119.492 363.119 114.481C363.119 114.481 361.294 121.228 355.193 115.83Z" fill="#86CEC5"/>
<path d="M349.476 145.375C349.476 145.375 355.459 146.275 353.54 138.999C353.54 138.999 356.711 144.798 361.521 140.198" stroke="#88D6D2" stroke-width="2" stroke-miterlimit="10"/>
<path d="M361.67 131.698C361.67 131.698 367.653 132.595 365.734 125.331C365.734 125.331 368.905 131.129 373.714 126.528" stroke="#88D6D2" stroke-width="2" stroke-miterlimit="10"/>
<path d="M443 207.957L382.546 151.976L328.991 154.851C332.284 184.595 335.574 214.338 338.861 244.08L443 207.957Z" fill="#93168A"/>
<path d="M384.505 228.243L338.857 244.076C335.564 214.334 332.274 184.591 328.986 154.847L358.479 169.745C367.156 189.246 375.831 208.745 384.505 228.243Z" fill="#5E5089"/>
<path d="M379.733 179.648L328.984 154.847L382.546 151.976L379.733 179.648Z" fill="#C579A9"/>
<path d="M384.543 228.233L357.253 168.661L379.733 179.648L390.932 226.017L384.543 228.233Z" fill="#423D63"/>
<path opacity="0.8" d="M369.804 208.002C366.151 205.445 361.613 205.155 358.23 206.918C358.517 203.414 356.772 199.672 353.357 197.281C348.422 193.825 341.871 194.507 338.725 198.803C338.561 199.027 338.412 199.259 338.273 199.493C337.017 197.837 335.504 196.382 333.789 195.18C325.5 189.379 314.371 190.564 308.289 197.68C308.079 197.501 307.844 197.329 307.608 197.164C302.673 193.708 296.122 194.39 292.976 198.686C290.784 201.681 290.83 205.636 292.722 208.93C292.233 208.826 291.723 208.861 291.253 209.03C290.783 209.199 290.371 209.496 290.067 209.885C289.722 210.381 289.573 210.982 289.647 211.577C287.951 211.471 286.262 211.885 284.817 212.76C282.108 214.426 281.387 217.114 281.247 217.689C281.211 217.357 280.906 214.98 278.726 213.582C277.854 213.037 276.849 212.731 275.815 212.695C274.781 212.659 273.755 212.894 272.846 213.377C271.23 212.655 269.54 212.104 267.805 211.734C265.774 211.3 260.354 210.218 254.364 212.555C252.222 213.396 250.235 214.576 248.483 216.046C248.395 216.046 243.157 215.069 239.873 215.636C237.439 216.046 234.29 217.632 231.052 222.618L279.474 222.877L279.499 222.9L311.55 222.555C311.641 222.635 311.725 222.719 311.817 222.797L372.967 222.14L373.049 222.035C376.184 217.743 374.733 211.458 369.804 208.002Z" fill="#4C1660"/>
<path d="M313.554 168.687C313.535 168.515 313.527 168.422 313.527 168.422C313.737 167.884 314.043 168.482 314.043 168.482C314.043 168.581 314.064 168.687 314.077 168.778C314.168 168.717 314.271 168.676 314.38 168.658C314.489 168.64 314.601 168.646 314.707 168.675C314.742 168.7 314.768 168.734 314.784 168.773C314.8 168.813 314.805 168.855 314.797 168.897C314.791 168.934 314.777 168.97 314.754 169.002C314.732 169.033 314.703 169.059 314.669 169.078C314.478 169.068 314.289 169.123 314.134 169.234C314.174 169.562 314.22 169.891 314.268 170.215C314.806 169.667 315.333 169.823 315.333 169.823C315.381 169.854 315.42 169.898 315.444 169.949C315.469 170 315.479 170.056 315.474 170.113C315.468 170.163 315.452 170.212 315.426 170.256C315.399 170.299 315.363 170.337 315.32 170.365C315.137 170.378 314.958 170.426 314.795 170.507C314.631 170.588 314.485 170.7 314.367 170.838C314.423 171.183 314.484 171.524 314.547 171.864C315.075 171.158 315.707 171.248 315.707 171.248C315.768 171.277 315.82 171.322 315.857 171.378C315.894 171.434 315.914 171.498 315.917 171.565C315.92 171.625 315.909 171.685 315.886 171.74C315.863 171.796 315.827 171.846 315.782 171.887C315.28 171.951 314.904 172.384 314.703 172.678C314.785 173.068 314.873 173.452 314.963 173.832C315.522 172.971 316.261 173.045 316.261 173.045C316.332 173.074 316.394 173.122 316.44 173.182C316.485 173.243 316.513 173.315 316.519 173.39C316.527 173.458 316.518 173.526 316.495 173.589C316.472 173.653 316.434 173.711 316.385 173.758C315.801 173.855 315.39 174.395 315.186 174.734C315.312 175.224 315.446 175.705 315.585 176.171C316.062 174.994 316.971 174.953 316.971 174.953C317.057 174.974 317.135 175.018 317.197 175.08C317.26 175.141 317.303 175.218 317.324 175.302C317.344 175.378 317.346 175.457 317.33 175.533C317.315 175.61 317.281 175.682 317.234 175.744C316.393 176.009 316.015 177.075 315.936 177.329C316.053 177.699 316.173 178.061 316.295 178.416C316.874 176.929 318.009 176.88 318.009 176.88C318.114 176.905 318.21 176.958 318.286 177.034C318.363 177.109 318.416 177.204 318.441 177.307C318.465 177.399 318.467 177.495 318.447 177.588C318.428 177.681 318.388 177.769 318.33 177.845C317.355 178.153 316.889 179.344 316.763 179.728C316.927 180.172 317.092 180.6 317.259 181.014C317.813 179.354 319.036 179.301 319.036 179.301C319.141 179.326 319.237 179.379 319.314 179.454C319.39 179.529 319.443 179.623 319.468 179.726C319.492 179.818 319.494 179.914 319.475 180.007C319.456 180.1 319.417 180.188 319.359 180.264C318.29 180.603 317.832 182.002 317.763 182.236C317.943 182.659 318.121 183.062 318.296 183.445C318.926 181.392 320.43 181.318 320.43 181.318C320.554 181.347 320.668 181.41 320.758 181.499C320.848 181.588 320.911 181.699 320.94 181.821C320.969 181.93 320.972 182.044 320.949 182.154C320.927 182.264 320.879 182.368 320.81 182.458C319.563 182.852 319.019 184.476 318.92 184.78C319.086 185.121 319.246 185.438 319.395 185.727C320.052 183.328 321.751 183.263 321.751 183.263C321.886 183.295 322.009 183.362 322.106 183.458C322.204 183.554 322.272 183.675 322.303 183.807C322.333 183.924 322.336 184.047 322.311 184.165C322.287 184.284 322.236 184.396 322.163 184.493C320.674 184.965 320.111 187.056 320.111 187.056L320.096 187.044C320.394 187.578 320.573 187.865 320.573 187.865C320.22 188.185 320.249 187.931 320.249 187.931C320.079 187.68 319.911 187.424 319.75 187.167C319.204 187.046 317.607 186.781 316.635 187.602C316.512 187.614 316.387 187.598 316.271 187.557C316.154 187.516 316.048 187.45 315.961 187.364C315.863 187.269 315.793 187.149 315.76 187.018C315.726 186.887 315.731 186.75 315.772 186.621C315.772 186.621 316.671 185.304 318.979 185.883C318.769 185.524 318.576 185.16 318.387 184.797L318.374 184.869C318.374 184.869 316.645 183.797 315.333 184.392C315.22 184.373 315.113 184.328 315.019 184.263C314.926 184.198 314.849 184.113 314.793 184.014C314.73 183.905 314.699 183.782 314.704 183.657C314.708 183.532 314.748 183.41 314.818 183.306C314.818 183.306 315.881 182.423 317.666 183.337C317.486 182.953 317.313 182.566 317.147 182.182C316.727 181.895 315.753 181.328 314.862 181.597C314.77 181.568 314.685 181.519 314.615 181.454C314.544 181.388 314.49 181.308 314.455 181.219C314.415 181.121 314.404 181.014 314.422 180.909C314.44 180.805 314.487 180.708 314.558 180.628C314.558 180.628 315.375 180.118 316.559 180.741C316.385 180.285 316.217 179.833 316.06 179.385C315.616 179.112 314.638 178.613 313.775 178.913C313.681 178.888 313.595 178.842 313.523 178.78C313.45 178.718 313.392 178.64 313.354 178.553C313.31 178.457 313.294 178.35 313.307 178.245C313.32 178.14 313.363 178.041 313.43 177.958C313.43 177.958 314.306 177.356 315.625 178.081C315.526 177.775 315.434 177.465 315.343 177.171C315.108 176.976 314.234 176.311 313.403 176.516C313.328 176.488 313.261 176.445 313.206 176.388C313.151 176.332 313.11 176.264 313.086 176.19C313.058 176.108 313.053 176.02 313.073 175.935C313.092 175.851 313.135 175.773 313.197 175.711C313.197 175.711 313.976 175.28 315.009 176.007C314.915 175.66 314.825 175.317 314.741 174.98C314.411 174.775 313.739 174.458 313.144 174.668C313.078 174.649 313.016 174.617 312.964 174.572C312.912 174.528 312.87 174.473 312.842 174.411C312.81 174.342 312.798 174.266 312.808 174.191C312.818 174.116 312.848 174.045 312.897 173.986C312.897 173.986 313.548 173.536 314.528 174.109C314.411 173.614 314.306 173.142 314.213 172.694C313.88 172.555 313.317 172.388 312.857 172.606C312.795 172.596 312.736 172.572 312.685 172.537C312.634 172.501 312.592 172.455 312.563 172.401C312.527 172.343 312.508 172.278 312.508 172.211C312.508 172.143 312.527 172.078 312.563 172.021C312.563 172.021 313.115 171.544 314.066 171.996C313.982 171.565 313.911 171.174 313.856 170.799C313.718 170.688 313.559 170.605 313.388 170.555C313.216 170.505 313.037 170.488 312.859 170.507C312.812 170.486 312.77 170.455 312.737 170.416C312.704 170.377 312.679 170.332 312.666 170.283C312.65 170.229 312.65 170.171 312.665 170.117C312.681 170.063 312.711 170.013 312.754 169.975C312.917 169.914 313.092 169.894 313.265 169.917C313.438 169.939 313.602 170.003 313.743 170.102C313.704 169.848 313.67 169.62 313.642 169.418L313.602 169.46C313.602 169.46 313.323 168.843 312.838 168.77C312.81 168.743 312.789 168.711 312.776 168.675C312.762 168.64 312.757 168.602 312.76 168.564C312.763 168.522 312.778 168.481 312.803 168.447C312.828 168.412 312.863 168.385 312.903 168.369C313.03 168.367 313.155 168.395 313.268 168.45C313.382 168.506 313.48 168.587 313.554 168.687V168.687Z" fill="#48837F"/>
<path d="M310.379 156.93L310.042 156.689C309.146 156.562 309.725 157.404 309.725 157.404L310.101 157.671C309.948 157.742 309.812 157.845 309.703 157.972C309.594 158.099 309.515 158.248 309.471 158.408C309.479 158.472 309.505 158.533 309.547 158.583C309.588 158.634 309.642 158.672 309.704 158.694C309.76 158.714 309.819 158.723 309.879 158.718C309.938 158.713 309.995 158.696 310.047 158.667C310.184 158.411 310.406 158.207 310.677 158.09C311.097 158.397 311.506 158.706 311.903 159.016C310.75 159.292 310.559 160.097 310.559 160.097C310.563 160.184 310.591 160.269 310.642 160.342C310.692 160.414 310.763 160.472 310.845 160.507C310.916 160.541 310.994 160.558 311.074 160.558C311.153 160.558 311.231 160.541 311.303 160.507C311.59 159.986 312.22 159.745 312.672 159.635C313.092 159.971 313.507 160.314 313.917 160.661C312.561 160.803 312.195 161.688 312.195 161.688C312.185 161.791 312.204 161.895 312.251 161.987C312.297 162.08 312.369 162.159 312.458 162.214C312.536 162.265 312.626 162.298 312.719 162.311C312.812 162.324 312.908 162.316 312.997 162.288C313.468 161.684 314.339 161.53 314.888 161.495C315.352 161.898 315.807 162.303 316.251 162.711C314.657 162.779 314.192 163.791 314.192 163.791C314.177 163.905 314.194 164.022 314.241 164.127C314.289 164.232 314.365 164.323 314.461 164.389C314.547 164.45 314.646 164.491 314.75 164.509C314.855 164.528 314.962 164.523 315.064 164.496C315.64 163.812 316.685 163.695 317.299 163.689C317.869 164.229 318.419 164.77 318.952 165.309C316.99 165.028 316.242 166.174 316.242 166.174C316.206 166.302 316.206 166.437 316.243 166.565C316.28 166.693 316.353 166.808 316.452 166.899C316.54 166.981 316.645 167.044 316.76 167.082C316.875 167.12 316.997 167.132 317.118 167.118C318.12 166.235 319.848 166.558 320.258 166.65C320.668 167.084 321.067 167.515 321.455 167.944C319 167.558 318.065 168.989 318.065 168.989C318.019 169.145 318.018 169.31 318.062 169.466C318.105 169.622 318.192 169.764 318.313 169.874C318.42 169.975 318.548 170.052 318.688 170.099C318.829 170.145 318.978 170.16 319.126 170.143C320.289 169.117 322.257 169.423 322.875 169.552C323.349 170.1 323.804 170.641 324.238 171.177C321.564 170.626 320.556 172.168 320.556 172.168C320.51 172.324 320.508 172.489 320.552 172.645C320.596 172.802 320.683 172.943 320.804 173.054C320.91 173.155 321.038 173.232 321.179 173.279C321.32 173.325 321.469 173.34 321.617 173.323C322.892 172.197 325.135 172.676 325.504 172.762C325.94 173.321 326.349 173.859 326.733 174.378C323.452 173.629 322.222 175.514 322.222 175.514C322.167 175.698 322.165 175.893 322.217 176.078C322.268 176.263 322.371 176.43 322.513 176.561C322.639 176.681 322.79 176.772 322.957 176.826C323.123 176.881 323.299 176.899 323.473 176.878C324.964 175.565 327.577 176.101 328.058 176.214C328.394 176.694 328.701 177.141 328.978 177.555C325.227 176.572 323.828 178.714 323.828 178.714C323.769 178.912 323.767 179.123 323.823 179.323C323.878 179.523 323.989 179.703 324.143 179.845C324.279 179.975 324.443 180.073 324.622 180.132C324.802 180.191 324.993 180.209 325.181 180.186C326.96 178.619 330.221 179.49 330.221 179.49V179.461C330.715 180.254 330.969 180.706 330.969 180.706C331.67 180.5 331.305 180.34 331.305 180.34C331.095 179.93 330.885 179.519 330.652 179.108C330.904 178.307 331.769 176.027 333.621 175.411C333.732 175.26 333.806 175.087 333.839 174.905C333.872 174.722 333.863 174.534 333.813 174.356C333.761 174.154 333.653 173.971 333.501 173.826C333.349 173.681 333.159 173.58 332.951 173.534C332.951 173.534 330.484 173.692 329.503 177.122C329.174 176.581 328.834 176.049 328.484 175.524L328.591 175.563C328.591 175.563 328.459 172.507 330.272 171.263C330.331 171.101 330.352 170.928 330.334 170.757C330.316 170.587 330.26 170.422 330.169 170.275C330.07 170.11 329.926 169.975 329.754 169.885C329.582 169.794 329.387 169.752 329.192 169.764C329.192 169.764 327.184 170.466 327.058 173.477C326.673 172.948 326.284 172.43 325.891 171.922C325.819 171.162 325.8 169.458 326.844 168.517C326.875 168.373 326.872 168.225 326.836 168.083C326.799 167.94 326.73 167.808 326.634 167.695C326.532 167.568 326.396 167.471 326.241 167.415C326.086 167.358 325.918 167.345 325.756 167.377C325.756 167.377 324.441 168.043 324.378 170.047C323.895 169.472 323.41 168.909 322.925 168.365C322.894 167.582 322.969 165.931 324.034 165.046C324.07 164.906 324.075 164.759 324.046 164.617C324.018 164.475 323.958 164.341 323.87 164.225C323.774 164.093 323.642 163.99 323.489 163.927C323.336 163.865 323.169 163.845 323.005 163.869C323.005 163.869 321.522 164.543 321.495 166.804C321.155 166.443 320.816 166.089 320.478 165.744C320.392 165.291 320.161 163.652 321.075 162.73C321.093 162.612 321.083 162.491 321.047 162.377C321.01 162.264 320.948 162.159 320.865 162.072C320.776 161.972 320.66 161.899 320.531 161.859C320.401 161.82 320.263 161.816 320.132 161.848C320.132 161.848 318.952 162.528 319.147 164.422C318.748 164.034 318.355 163.656 317.969 163.292C317.952 162.715 318.027 161.596 318.765 160.986C318.791 160.886 318.794 160.781 318.773 160.679C318.753 160.578 318.71 160.482 318.647 160.399C318.579 160.304 318.486 160.23 318.377 160.185C318.268 160.14 318.148 160.126 318.032 160.144C318.032 160.144 316.923 160.645 316.952 162.35C316.372 161.822 315.81 161.323 315.272 160.863C315.337 160.325 315.541 159.468 316.192 159.039C316.225 158.952 316.237 158.86 316.229 158.768C316.221 158.676 316.193 158.587 316.146 158.507C316.094 158.417 316.018 158.343 315.926 158.293C315.834 158.242 315.73 158.218 315.625 158.222C315.625 158.222 314.558 158.575 314.442 160.152C313.924 159.715 313.436 159.314 312.989 158.953C312.945 158.503 312.968 157.87 313.354 157.439C313.363 157.362 313.354 157.284 313.327 157.211C313.301 157.139 313.258 157.072 313.201 157.018C313.14 156.956 313.063 156.911 312.977 156.89C312.892 156.868 312.802 156.87 312.718 156.895C312.718 156.895 312.107 157.289 312.132 158.273C311.819 158.026 311.536 157.811 311.292 157.62L311.378 157.599C311.378 157.599 310.748 156.765 311.027 156.084C311.013 156.029 310.986 155.977 310.95 155.933C310.914 155.888 310.869 155.851 310.817 155.825C310.758 155.797 310.692 155.786 310.626 155.793C310.561 155.799 310.498 155.823 310.446 155.862C310.349 156.022 310.293 156.202 310.281 156.388C310.269 156.574 310.303 156.759 310.379 156.93V156.93Z" fill="#48837F"/>
<path d="M294.472 221.803L315.028 182.402L342.986 174.362C346.823 190.176 350.66 205.989 354.499 221.803H294.472Z" fill="#804A7A"/>
<path d="M328.186 221.803H354.5C350.662 205.989 346.824 190.176 342.986 174.362L330.652 187.226C329.831 198.752 329.009 210.277 328.186 221.803Z" fill="#4C3E60"/>
<path d="M321.608 196.072L342.986 174.362L315.028 182.402L321.608 196.072Z" fill="#856699"/>
<path d="M328.169 221.803L331.078 186.454L321.608 196.072L324.486 221.803H328.169Z" fill="#5A4F83"/>
<path d="M135.696 221.187C135.117 220.661 129.28 215.531 122.885 217.49C121.122 218.052 119.532 219.042 118.265 220.365C116.535 219.664 114.623 219.52 112.804 219.955C114.532 215.719 115.25 211.153 114.904 206.605C114.692 203.791 114.055 201.023 113.014 198.39C112.153 196.248 108.994 188.738 100.623 184.425C97.1225 182.618 93.2393 181.633 89.2818 181.55C85.1976 181.49 81.1603 182.407 77.5207 184.22C77.4199 181.441 76.7982 175.025 72.3164 168.687C67.7064 162.167 61.6599 159.47 59.0389 158.343C42.0924 151.046 24.0348 161.341 21.8002 162.655C21.6343 162.323 21.4663 161.994 21.292 161.668C21.292 161.668 21.0231 161.164 20.7564 160.702C20.4561 160.191 15.7684 153.882 8.00397 152.592C-0.590054 151.155 -7.41571 156.809 -8.28099 157.521C-17.4736 165.134 -18.7022 182.371 -10.6353 200.068L75.8657 222.637L139.241 241.313C139.298 241.304 139.354 241.29 139.407 241.27C140.628 240.818 140.558 237.935 140.531 236.799C140.384 230.72 140.252 225.317 135.696 221.187Z" fill="#2D5663"/>
<path d="M111.059 199.28C109.895 198.319 108.419 198.152 107.764 198.912C107.226 199.528 107.415 200.584 108.142 201.473C105.317 204.515 101.606 205.39 99.1464 205.599C99.0771 205.517 99.0078 205.435 98.9364 205.355C104.048 202.722 103.534 200.189 103.372 199.695C104.573 199.37 105.388 198.544 105.197 197.834C105.006 197.123 103.851 196.784 102.622 197.101C101.394 197.417 100.556 198.257 100.749 198.978C100.894 199.516 101.576 199.836 102.429 199.83C102.418 199.98 102.398 200.13 102.37 200.278C101.938 202.477 99.745 203.952 98.277 204.712C97.3 203.864 96.1763 203.193 94.9586 202.73C95.0153 201.159 95.4039 199.167 96.8383 197.951C96.9712 197.839 97.1115 197.735 97.2584 197.641L97.1785 197.423C97.3375 197.554 97.5075 197.672 97.6868 197.774C98.7873 198.39 99.997 198.376 100.369 197.731C100.74 197.086 100.159 196.057 99.0666 195.437C97.9745 194.817 96.7564 194.835 96.3847 195.482C96.1579 195.864 96.2797 196.384 96.6388 196.871C95.9121 197.119 94.1186 198.169 94.0535 202.416C93.564 202.273 93.0608 202.18 92.5518 202.138C91.868 199.883 91.8411 197.485 92.4741 195.215C92.6007 195.234 92.7284 195.244 92.8563 195.246C94.127 195.246 95.1666 194.441 95.1666 193.447C95.1666 192.453 94.1375 191.648 92.8563 191.648C91.5752 191.648 90.5566 192.453 90.5566 193.447C90.5628 193.674 90.6178 193.896 90.718 194.1C90.8183 194.305 90.9615 194.486 91.1384 194.632C90.4936 195.912 89.3322 198.98 90.6763 202.514C90.5108 202.62 90.371 202.761 90.2668 202.925C89.5527 204.133 91.0061 206.264 93.5242 207.77C92.0688 209.653 88.9248 214.752 89.6367 223.126H91.4765C91.4765 223.126 90.6469 214.157 95.3325 208.639C97.4495 209.442 99.3628 209.4 99.9529 208.396C100.059 208.193 100.12 207.97 100.133 207.743C100.146 207.515 100.11 207.287 100.029 207.074C105.6 207.279 108.429 203.582 109.192 202.35C110.242 202.985 111.418 203.02 111.983 202.366C112.636 201.639 112.224 200.239 111.059 199.28Z" fill="#3B2C46"/>
<path d="M63.9282 232.916L64.1004 232.776C70.9849 226.935 74.404 214.662 71.7367 205.363C69.0695 196.064 61.3239 193.256 54.4395 199.097C54.0803 199.401 53.7317 199.727 53.3894 200.064C53.3547 196.497 52.8529 192.949 51.8961 189.506C47.4143 173.898 34.2376 169.174 21.8758 178.313C21.7771 177.857 21.6658 177.405 21.5398 176.962C18.8725 167.663 11.1291 164.859 4.24252 170.7C-2.2282 176.194 -5.63473 187.372 -3.80125 196.419" fill="#473F70"/>
<path d="M60.7631 165.28C60.822 164.802 60.8493 164.543 60.8493 164.543C60.2486 163.033 59.4043 164.693 59.4043 164.693C59.3728 164.968 59.3392 165.243 59.3056 165.514C58.3353 164.931 57.5498 165.217 57.5498 165.217C57.4538 165.287 57.3792 165.381 57.3344 165.49C57.2896 165.598 57.2762 165.717 57.2957 165.833C57.3121 165.937 57.3521 166.037 57.4128 166.124C57.4734 166.211 57.5533 166.284 57.6464 166.338C58.182 166.317 58.709 166.474 59.1418 166.784C59.02 167.702 58.8863 168.615 58.7407 169.523C57.2537 167.977 55.7752 168.406 55.7752 168.406C55.6398 168.492 55.5311 168.612 55.4611 168.754C55.3911 168.896 55.3624 169.054 55.3782 169.211C55.39 169.352 55.4338 169.488 55.5065 169.61C55.5792 169.732 55.6789 169.836 55.7983 169.915C56.9051 169.897 57.8628 170.657 58.4487 171.261C58.2835 172.219 58.1057 173.171 57.9153 174.115C56.464 172.129 54.6957 172.361 54.6957 172.361C54.5203 172.439 54.37 172.561 54.2611 172.716C54.1522 172.871 54.089 173.053 54.0782 173.24C54.0657 173.409 54.0921 173.577 54.1554 173.734C54.2186 173.891 54.3171 174.032 54.4436 174.146C55.8487 174.335 56.8841 175.551 57.4385 176.381C57.2019 177.465 56.952 178.537 56.6888 179.597C55.1472 177.184 53.0932 177.375 53.0932 177.375C52.8935 177.453 52.7196 177.583 52.5907 177.752C52.4618 177.92 52.3828 178.12 52.3623 178.33C52.3417 178.517 52.3643 178.706 52.4282 178.884C52.4922 179.062 52.596 179.223 52.732 179.356C54.3617 179.64 55.4937 181.158 56.0545 182.106C55.6891 183.476 55.3068 184.817 54.9078 186.132C53.6015 182.831 51.0644 182.7 51.0644 182.7C50.8238 182.756 50.6036 182.876 50.428 183.046C50.2524 183.216 50.1282 183.43 50.0689 183.665C50.0125 183.875 50.005 184.095 50.0468 184.308C50.0886 184.521 50.1787 184.723 50.3104 184.897C52.6459 185.659 53.6708 188.643 53.8955 189.358C53.5595 190.385 53.2171 191.393 52.8685 192.381C51.287 188.218 48.1199 188.054 48.1199 188.054C47.8258 188.122 47.5565 188.268 47.3419 188.476C47.1273 188.684 46.9757 188.946 46.9039 189.233C46.835 189.489 46.8259 189.758 46.8772 190.018C46.9284 190.279 47.0387 190.525 47.2 190.738C49.9135 191.625 51.1904 194.959 51.5307 196.035C51.0616 197.267 50.5905 198.46 50.1172 199.614C48.6093 194.965 45.1922 194.786 45.1922 194.786C44.8981 194.855 44.629 195.001 44.4145 195.209C44.2 195.418 44.0483 195.68 43.9762 195.967C43.9072 196.224 43.8978 196.492 43.9487 196.752C43.9996 197.013 44.1094 197.259 44.2703 197.472C47.2462 198.444 48.4896 202.358 48.6807 203.018C48.1654 204.195 47.6593 205.316 47.1622 206.382C45.4275 200.608 41.2544 200.393 41.2544 200.393C40.9064 200.473 40.5879 200.646 40.334 200.892C40.0801 201.138 39.9007 201.448 39.8157 201.787C39.7348 202.09 39.7242 202.407 39.7845 202.715C39.8448 203.023 39.9746 203.313 40.1644 203.566C43.6423 204.7 45.1208 209.246 45.3687 210.095C44.894 211.045 44.4439 211.924 44.0182 212.732C42.2415 206.016 37.5076 205.77 37.5076 205.77C37.1321 205.857 36.7884 206.043 36.5143 206.309C36.2401 206.574 36.0461 206.909 35.9535 207.275C35.8659 207.603 35.8544 207.945 35.9198 208.278C35.9853 208.611 36.1259 208.925 36.3315 209.197C40.4794 210.551 42.002 216.4 42.002 216.4L42.044 216.367C41.204 217.85 40.6936 218.651 40.6936 218.651C41.6681 219.55 41.5925 218.844 41.5925 218.844C42.0776 218.141 42.5481 217.433 43.0101 216.72C44.537 216.391 49.002 215.693 51.6924 218.006C52.037 218.042 52.3855 218.003 52.7125 217.89C53.0396 217.778 53.3368 217.596 53.5826 217.357C53.8599 217.094 54.0578 216.761 54.1545 216.396C54.2512 216.03 54.243 215.646 54.1307 215.284C54.1307 215.284 51.6525 211.588 45.1964 213.153C45.7761 212.153 46.3362 211.146 46.8766 210.132L46.9081 210.337C46.9081 210.337 51.7575 207.384 55.4139 209.082C55.7298 209.029 56.0296 208.908 56.2912 208.727C56.5529 208.546 56.7698 208.31 56.9261 208.037C57.105 207.734 57.1951 207.39 57.1866 207.04C57.1781 206.691 57.0712 206.351 56.8778 206.057C56.8778 206.057 53.9375 203.568 48.9243 206.082C49.434 205.01 49.924 203.938 50.3944 202.868C51.5664 202.075 54.3071 200.516 56.7875 201.288C57.0458 201.208 57.2826 201.072 57.4806 200.891C57.6786 200.71 57.8328 200.488 57.9321 200.241C58.0469 199.967 58.0822 199.668 58.034 199.376C57.9858 199.084 57.8561 198.81 57.659 198.586C57.659 198.586 55.395 197.148 52.0683 198.855C52.5696 197.587 53.0456 196.329 53.4965 195.082C54.7419 194.328 57.4868 192.958 59.8895 193.819C60.1511 193.75 60.3938 193.624 60.5998 193.452C60.8057 193.28 60.9699 193.065 61.0803 192.823C61.2055 192.553 61.2521 192.255 61.2151 191.961C61.178 191.667 61.0587 191.389 60.8703 191.157C60.8703 191.157 58.4403 189.461 54.7398 191.453C55.0212 190.599 55.2879 189.755 55.5462 188.919C56.2078 188.376 58.6629 186.542 60.9858 187.134C61.1935 187.058 61.3811 186.937 61.5348 186.781C61.6886 186.624 61.8045 186.436 61.8742 186.23C61.9559 186.002 61.9715 185.756 61.9192 185.519C61.867 185.282 61.7489 185.064 61.578 184.889C61.578 184.889 59.4106 183.657 56.506 185.676C56.7861 184.705 57.0458 183.755 57.2852 182.825C58.2093 182.283 60.0953 181.388 61.7481 181.987C61.9351 181.939 62.1085 181.85 62.2557 181.727C62.4029 181.605 62.5201 181.452 62.5987 181.279C62.6896 181.088 62.7247 180.876 62.7002 180.667C62.6758 180.458 62.5927 180.26 62.4601 180.094C62.4601 180.094 60.6476 178.82 57.9006 180.4C58.2387 179.022 58.5432 177.701 58.8142 176.457C59.7466 176.073 61.3218 175.619 62.605 176.251C62.7753 176.225 62.9375 176.162 63.0799 176.066C63.2223 175.971 63.3413 175.846 63.4283 175.701C63.5281 175.54 63.5808 175.356 63.5808 175.168C63.5808 174.98 63.5281 174.796 63.4283 174.635C63.4283 174.635 61.8952 173.296 59.2279 174.536C59.4736 173.335 59.6857 172.216 59.858 171.197C60.551 170.723 61.6011 170.191 62.6491 170.402C62.782 170.346 62.9002 170.262 62.9951 170.155C63.0901 170.049 63.1591 169.922 63.1973 169.786C63.243 169.635 63.245 169.474 63.2031 169.322C63.1612 169.17 63.0771 169.032 62.96 168.924C62.96 168.924 61.7712 168.33 60.194 169.254C60.3116 168.544 60.404 167.909 60.4922 167.346L60.6014 167.461C60.6014 167.461 61.3974 165.744 62.7499 165.551C62.8282 165.478 62.8889 165.389 62.9277 165.29C62.9666 165.192 62.9826 165.086 62.9747 164.98C62.9664 164.863 62.9255 164.75 62.8562 164.654C62.787 164.557 62.6921 164.481 62.5819 164.434C62.5819 164.434 61.6179 164.299 60.7631 165.28Z" fill="#3B2C46"/>
<path opacity="0.7" d="M34.5778 201.138C34.6178 201.099 34.6653 201.068 34.7175 201.047C34.7698 201.026 34.8258 201.015 34.8824 201.015C34.9389 201.015 34.9949 201.026 35.0472 201.047C35.0994 201.068 35.1469 201.099 35.1869 201.138L36.048 201.978V197.21C36.0556 197.103 36.1044 197.003 36.1845 196.93C36.2646 196.857 36.37 196.816 36.4796 196.816C36.5891 196.816 36.6945 196.857 36.7746 196.93C36.8547 197.003 36.9035 197.103 36.9112 197.21V199.085L37.642 198.263C37.6779 198.217 37.723 198.179 37.7747 198.15C37.8263 198.122 37.8834 198.104 37.9423 198.098C38.0012 198.092 38.0608 198.098 38.1172 198.116C38.1737 198.133 38.2259 198.162 38.2705 198.2C38.3152 198.238 38.3514 198.285 38.3769 198.337C38.4024 198.389 38.4166 198.446 38.4187 198.504C38.4209 198.562 38.4108 198.62 38.3892 198.674C38.3676 198.728 38.3349 198.777 38.2931 198.818L36.9784 200.294C36.9581 200.316 36.9355 200.336 36.9112 200.354V206.012C36.9153 206.07 36.9072 206.128 36.8874 206.183C36.8676 206.237 36.8364 206.287 36.796 206.33C36.7555 206.372 36.7065 206.406 36.6521 206.429C36.5976 206.452 36.5389 206.464 36.4796 206.464C36.4202 206.464 36.3615 206.452 36.3071 206.429C36.2526 206.406 36.2037 206.372 36.1632 206.33C36.1227 206.287 36.0916 206.237 36.0717 206.183C36.0519 206.128 36.0438 206.07 36.048 206.012V203.046C35.9535 203.036 35.8654 202.995 35.798 202.929L34.5778 201.736C34.5362 201.698 34.503 201.651 34.4804 201.6C34.4577 201.548 34.446 201.493 34.446 201.437C34.446 201.381 34.4577 201.326 34.4804 201.274C34.503 201.223 34.5362 201.177 34.5778 201.138V201.138Z" fill="#3B2C46"/>
<path opacity="0.5" d="M42.8841 198.185C42.766 198.07 42.6058 198.005 42.4388 198.005C42.2719 198.005 42.1117 198.07 41.9936 198.185L40.7335 199.417V192.449C40.7335 192.286 40.6671 192.129 40.5489 192.013C40.4308 191.898 40.2705 191.833 40.1034 191.833C39.9363 191.833 39.7761 191.898 39.6579 192.013C39.5397 192.129 39.4734 192.286 39.4734 192.449V195.183L38.4044 193.985C38.3511 193.921 38.2851 193.868 38.2103 193.829C38.1355 193.79 38.0536 193.766 37.9692 193.759C37.8849 193.752 37.8 193.762 37.7195 193.787C37.6391 193.813 37.5647 193.854 37.5009 193.909C37.4371 193.963 37.3852 194.03 37.3482 194.104C37.3112 194.178 37.2899 194.259 37.2857 194.342C37.2814 194.425 37.2942 194.507 37.3233 194.585C37.3524 194.663 37.3972 194.734 37.4551 194.794L39.3809 196.953C39.4102 196.986 39.4433 197.016 39.4797 197.041V205.291C39.4797 205.454 39.546 205.611 39.6642 205.727C39.7824 205.842 39.9426 205.907 40.1097 205.907C40.2768 205.907 40.4371 205.842 40.5552 205.727C40.6734 205.611 40.7398 205.454 40.7398 205.291V200.966C40.878 200.949 41.0065 200.887 41.1052 200.791L42.8862 199.05C43.002 198.934 43.0667 198.779 43.0663 198.617C43.0659 198.455 43.0004 198.3 42.8841 198.185V198.185Z" fill="#3B2C46"/>
<path d="M73.8558 221.975L73.9251 221.887C76.5903 218.248 75.3596 212.923 71.1781 209.996C66.9966 207.07 61.4478 207.647 58.7869 211.286C58.6483 211.477 58.5223 211.672 58.4047 211.869C57.3385 210.469 56.0569 209.238 54.6054 208.222C47.5844 203.307 38.1566 204.32 33.0027 210.339C32.8158 210.189 32.6268 210.041 32.4272 209.902C28.2457 206.975 22.6949 207.552 20.0361 211.193C17.5305 214.615 18.4693 219.527 22.067 222.536" fill="#4C1660"/>
<path d="M82.2734 208.177C83.0105 208.255 83.5671 208.708 83.5146 209.191C83.4705 209.585 83.0273 209.873 82.4645 209.922C82.3175 211.92 83.25 213.496 84.0018 214.414H84.1614C83.3907 211.764 84.4786 211.089 84.7117 210.978C84.424 210.454 84.4492 209.895 84.7684 209.723C85.0876 209.55 85.6085 209.834 85.9004 210.366C86.1923 210.898 86.1776 211.469 85.8542 211.643C85.6106 211.775 85.264 211.643 84.9805 211.352C84.9301 211.406 84.8831 211.462 84.8398 211.522C84.1908 212.411 84.3967 213.664 84.6151 214.426C85.2503 214.476 85.8709 214.639 86.4465 214.907C86.9946 214.356 87.5827 213.553 87.5386 212.647C87.5357 212.564 87.5266 212.481 87.5113 212.399L87.6163 212.352C87.5152 212.342 87.4153 212.323 87.318 212.294C86.7237 212.124 86.3268 211.703 86.4318 211.354C86.5368 211.004 87.1038 210.861 87.6919 211.033C88.2799 211.206 88.6832 211.625 88.5782 211.974C88.5152 212.179 88.2883 212.313 87.9901 212.352C88.1455 212.686 88.3661 213.656 86.856 215.114C87.0722 215.235 87.2749 215.377 87.4609 215.539C88.5036 215.016 89.3763 214.219 89.9811 213.237C89.9319 213.2 89.8856 213.159 89.8425 213.116C89.4225 212.676 89.3594 212.05 89.7186 211.717C90.0777 211.384 90.7141 211.467 91.1404 211.906C91.5668 212.346 91.6235 212.97 91.2643 213.305C91.1806 213.381 91.081 213.439 90.9723 213.475C90.8635 213.51 90.7482 213.522 90.6343 213.51C90.4032 214.128 90.0469 214.695 89.5868 215.175C89.1267 215.656 88.5722 216.041 87.9565 216.307C87.9745 216.401 87.9701 216.498 87.9439 216.591C87.7465 217.242 86.4906 217.457 85.0981 217.094C84.9091 218.232 84.1215 221.035 80.862 223.602L80.2446 222.967C80.2446 222.967 83.7603 220.236 84.1761 216.763C83.1744 216.303 82.5464 215.627 82.706 215.085C82.7435 214.98 82.803 214.884 82.8808 214.803C82.9586 214.722 83.0528 214.658 83.1575 214.615C82.5153 214.016 82.0486 213.26 81.8056 212.425C81.5626 211.59 81.5523 210.707 81.7756 209.867C81.1918 209.715 80.7864 209.322 80.8326 208.908C80.8914 208.427 81.5341 208.098 82.2734 208.177Z" fill="#A78EBC"/>
<path d="M7.40965 159.606C7.49785 159.437 7.54196 159.347 7.54196 159.347C7.52726 158.712 6.9896 159.211 6.9896 159.211C6.9413 159.308 6.89089 159.404 6.84049 159.501C6.77035 159.405 6.68005 159.326 6.5757 159.267C6.47135 159.209 6.35538 159.173 6.23563 159.162C6.18895 159.176 6.14735 159.203 6.11573 159.239C6.0841 159.276 6.06376 159.32 6.05711 159.367C6.04935 159.408 6.05078 159.449 6.06131 159.489C6.07184 159.529 6.0912 159.566 6.11802 159.598C6.31784 159.661 6.49011 159.788 6.60737 159.959C6.43515 160.279 6.26013 160.598 6.08232 160.914C5.74839 160.15 5.14563 160.113 5.14563 160.113C5.08412 160.127 5.02769 160.157 4.9825 160.2C4.93731 160.243 4.90511 160.298 4.8894 160.357C4.87425 160.411 4.87166 160.467 4.88185 160.521C4.89203 160.576 4.91472 160.627 4.94821 160.672C5.35775 160.809 5.60557 161.216 5.73788 161.514C5.54466 161.845 5.34865 162.172 5.14983 162.493C4.8894 161.573 4.20684 161.427 4.20684 161.427C4.13176 161.432 4.05959 161.458 3.99838 161.5C3.93718 161.543 3.88937 161.602 3.8603 161.67C3.83094 161.729 3.81568 161.794 3.81568 161.86C3.81568 161.925 3.83094 161.99 3.8603 162.05C4.34965 162.304 4.56387 162.886 4.65418 163.263C4.41896 163.632 4.18023 163.993 3.93801 164.348C3.70069 163.257 2.91731 163.056 2.91731 163.056C2.83289 163.059 2.75091 163.085 2.68022 163.13C2.60953 163.175 2.55281 163.238 2.51617 163.313C2.48441 163.38 2.46795 163.453 2.46795 163.526C2.46795 163.6 2.48441 163.673 2.51617 163.74C3.07693 164.056 3.28695 164.767 3.35625 165.178C3.03282 165.633 2.70939 166.075 2.38176 166.508C2.35446 165.122 1.44087 164.742 1.44087 164.742C1.34453 164.731 1.24682 164.745 1.15859 164.785C1.07035 164.824 0.995041 164.887 0.941021 164.966C0.891963 165.036 0.859366 165.116 0.845567 165.2C0.831769 165.283 0.837112 165.369 0.861214 165.451C1.61519 166.038 1.58578 167.27 1.56898 167.562C1.30436 167.895 1.03973 168.221 0.775105 168.537C0.775105 166.8 -0.375805 166.323 -0.375805 166.323C-0.493375 166.31 -0.612395 166.329 -0.719825 166.377C-0.827254 166.426 -0.918948 166.503 -0.984864 166.599C-1.04546 166.684 -1.08577 166.781 -1.10286 166.883C-1.11994 166.986 -1.11335 167.091 -1.08357 167.19C-0.207789 167.872 -0.197289 169.266 -0.216191 169.706C-0.557824 170.098 -0.895256 170.475 -1.22849 170.838C-1.14448 168.93 -2.3773 168.416 -2.3773 168.416C-2.49489 168.403 -2.61399 168.421 -2.72147 168.47C-2.82894 168.519 -2.92061 168.595 -2.98636 168.691C-3.04687 168.777 -3.08698 168.874 -3.10371 168.976C-3.12044 169.079 -3.11335 169.184 -3.08297 169.283C-2.12317 170.03 -2.20298 171.632 -2.22188 171.897C-2.57262 172.263 -2.91495 172.61 -3.24258 172.936C-3.08717 170.585 -4.59301 169.959 -4.59301 169.959C-4.72844 169.946 -4.86484 169.969 -4.98789 170.026C-5.11094 170.083 -5.21611 170.171 -5.29238 170.281C-5.36392 170.382 -5.41143 170.497 -5.43142 170.618C-5.45141 170.74 -5.44337 170.864 -5.40789 170.981C-4.28428 171.854 -4.35779 173.719 -4.38929 174.062C-4.69382 174.349 -4.98155 174.612 -5.24827 174.855C-4.97945 172.152 -6.69111 171.439 -6.69111 171.439C-6.84096 171.422 -6.99282 171.445 -7.12995 171.507C-7.26707 171.568 -7.38412 171.666 -7.46819 171.788C-7.5454 171.898 -7.59661 172.022 -7.61805 172.154C-7.63949 172.285 -7.63063 172.419 -7.5921 172.546C-6.25217 173.588 -6.4979 175.937 -6.4979 175.937H-6.47689C-6.99144 176.37 -7.28547 176.598 -7.28547 176.598C-7.05235 177.058 -6.98304 176.787 -6.98304 176.787C-6.70301 176.594 -6.43209 176.396 -6.17026 176.192C-5.56331 176.272 -3.82644 176.602 -3.15437 177.804C-3.03201 177.861 -2.8982 177.89 -2.76269 177.89C-2.62717 177.89 -2.49336 177.861 -2.371 177.804C-2.2329 177.744 -2.11448 177.648 -2.02886 177.526C-1.94323 177.404 -1.89374 177.261 -1.88585 177.114C-1.88585 177.114 -2.29119 175.432 -4.87864 175.159C-4.52791 174.867 -4.18347 174.569 -3.84744 174.269L-3.86214 174.345C-3.86214 174.345 -1.67373 173.896 -0.562724 175C-0.439278 175.022 -0.312384 175.017 -0.191361 174.985C-0.0703386 174.952 0.041739 174.894 0.136643 174.814C0.241171 174.725 0.318913 174.61 0.361477 174.481C0.404041 174.352 0.409812 174.214 0.378167 174.082C0.378167 174.082 -0.365305 172.782 -2.54952 173.056C-2.21558 172.729 -1.88795 172.398 -1.56662 172.068C-1.02687 171.93 0.193349 171.717 0.999826 172.324C1.10585 172.329 1.21154 172.31 1.30924 172.27C1.40695 172.229 1.49423 172.168 1.56478 172.09C1.64433 172.005 1.69817 171.899 1.7204 171.785C1.74262 171.671 1.73238 171.554 1.69079 171.445C1.69079 171.445 1.06073 170.624 -0.409409 170.811C-0.0495744 170.411 0.300459 170.011 0.640692 169.611C1.20145 169.496 2.40066 169.355 3.16093 169.985C3.2661 169.995 3.3721 169.981 3.47127 169.946C3.57044 169.91 3.66028 169.854 3.73429 169.78C3.81874 169.699 3.87812 169.596 3.9056 169.483C3.93309 169.371 3.92758 169.253 3.88971 169.143C3.88971 169.143 3.22814 168.201 1.59418 168.447C1.81681 168.173 2.03173 167.899 2.23895 167.626C2.55608 167.513 3.70909 167.161 4.48406 167.683C4.57114 167.682 4.65685 167.662 4.73496 167.624C4.81307 167.586 4.88161 167.532 4.9356 167.465C4.99688 167.392 5.0362 167.304 5.04918 167.211C5.06216 167.117 5.04829 167.022 5.00911 166.935C5.00911 166.935 4.37905 166.2 3.03702 166.558C3.27225 166.237 3.49697 165.921 3.71539 165.613C4.13543 165.535 4.94401 165.455 5.47116 165.89C5.54823 165.898 5.62614 165.889 5.69894 165.863C5.77175 165.837 5.83751 165.795 5.8912 165.74C5.95024 165.682 5.99181 165.608 6.01143 165.528C6.03104 165.448 6.02796 165.365 6.00251 165.286C6.00251 165.286 5.51106 164.58 4.28454 164.802C4.59747 164.34 4.8894 163.894 5.16033 163.471C5.55516 163.452 6.19783 163.491 6.58427 163.882C6.65049 163.894 6.71883 163.893 6.78426 163.876C6.84968 163.86 6.91052 163.83 6.9623 163.787C7.02097 163.741 7.0654 163.68 7.09062 163.611C7.11584 163.542 7.12086 163.467 7.10511 163.395C7.10511 163.395 6.72498 162.701 5.57407 162.807C5.82819 162.397 6.06131 162.015 6.26713 161.664C6.58637 161.579 7.04631 161.522 7.40334 161.738C7.45983 161.734 7.51479 161.718 7.56421 161.691C7.61363 161.664 7.65625 161.627 7.68897 161.581C7.72587 161.532 7.74829 161.473 7.75384 161.412C7.75939 161.351 7.74785 161.29 7.72047 161.234C7.57729 161.112 7.40544 161.026 7.2201 160.983C7.03477 160.941 6.84164 160.944 6.65777 160.992C6.79849 160.748 6.9203 160.526 7.02951 160.331L7.05261 160.386C7.05261 160.386 7.58186 159.86 8.10271 159.975C8.14141 159.959 8.17582 159.934 8.20344 159.903C8.23105 159.871 8.25117 159.835 8.26233 159.795C8.27643 159.75 8.27741 159.703 8.26514 159.659C8.25287 159.614 8.22786 159.573 8.19302 159.542C8.06665 159.491 7.92969 159.47 7.79347 159.481C7.65725 159.492 7.52568 159.535 7.40965 159.606V159.606Z" fill="#3B2C46"/>
<path d="M12.9541 172.817L13.036 172.741C13.2734 172.68 13.1431 172.924 13.1431 172.924L13.0528 173.008C13.0957 173.023 13.1348 173.046 13.1675 173.077C13.2001 173.108 13.2255 173.146 13.2419 173.187C13.2417 173.204 13.2368 173.221 13.2275 173.235C13.2182 173.25 13.205 173.262 13.1894 173.269C13.175 173.276 13.1592 173.28 13.1431 173.28C13.1271 173.28 13.1113 173.276 13.0969 173.269C13.0517 173.205 12.986 173.157 12.91 173.134L12.6118 173.419C12.6945 173.421 12.7751 173.446 12.8447 173.49C12.9142 173.533 12.9703 173.595 13.0066 173.668C13.0079 173.691 13.0027 173.714 12.9916 173.735C12.9805 173.755 12.9639 173.772 12.9436 173.785C12.9253 173.796 12.9046 173.803 12.8831 173.805C12.8617 173.807 12.84 173.804 12.8197 173.797C12.7708 173.74 12.7105 173.694 12.6426 173.661C12.5747 173.628 12.5006 173.61 12.4249 173.606C12.322 173.709 12.2149 173.811 12.1224 173.918C12.2178 173.909 12.3139 173.924 12.401 173.963C12.4881 174.002 12.563 174.063 12.6181 174.14C12.6246 174.167 12.6232 174.195 12.6139 174.221C12.6046 174.248 12.5878 174.271 12.5656 174.288C12.5462 174.304 12.5233 174.316 12.4986 174.322C12.4738 174.329 12.4479 174.33 12.4228 174.325C12.3495 174.265 12.2643 174.22 12.1725 174.193C12.0807 174.167 11.9843 174.159 11.8893 174.171L11.5617 174.538C11.6706 174.522 11.7819 174.536 11.8837 174.577C11.9854 174.618 12.0738 174.686 12.1393 174.772C12.1477 174.803 12.1473 174.834 12.138 174.864C12.1287 174.894 12.1109 174.921 12.0867 174.941C12.0651 174.959 12.04 174.972 12.0129 174.98C11.9859 174.988 11.9574 174.991 11.9292 174.988C11.8407 174.922 11.7389 174.874 11.6303 174.848C11.5218 174.823 11.4089 174.82 11.2992 174.84C11.1648 175.003 11.0345 175.165 10.9085 175.325C11.0357 175.277 11.1743 175.266 11.3079 175.292C11.4415 175.319 11.5646 175.382 11.6625 175.475C11.6783 175.508 11.6838 175.546 11.6782 175.582C11.6726 175.619 11.6562 175.653 11.631 175.68C11.611 175.706 11.5852 175.726 11.5557 175.74C11.5261 175.754 11.4937 175.761 11.4609 175.76C11.1627 175.555 10.709 175.695 10.604 175.732C10.5074 175.861 10.4129 175.988 10.3247 176.116C10.9694 175.937 11.2677 176.292 11.2677 176.292C11.2848 176.332 11.2904 176.377 11.2837 176.42C11.277 176.463 11.2584 176.503 11.2299 176.537C11.2047 176.567 11.1726 176.592 11.1363 176.609C11.0999 176.625 11.06 176.634 11.0198 176.633C10.6733 176.395 10.1567 176.537 9.99494 176.592C9.88573 176.754 9.78492 176.912 9.68201 177.069C10.3814 176.839 10.7006 177.223 10.7006 177.223C10.7178 177.263 10.7233 177.307 10.7167 177.35C10.71 177.393 10.6914 177.434 10.6628 177.467C10.6374 177.497 10.6053 177.522 10.569 177.539C10.5327 177.555 10.4929 177.564 10.4528 177.564C10.0748 177.301 9.4888 177.498 9.40269 177.533C9.30398 177.697 9.21157 177.853 9.12546 178.005C9.98024 177.703 10.373 178.171 10.373 178.171C10.3933 178.219 10.3999 178.271 10.3921 178.322C10.3844 178.373 10.3625 178.421 10.3289 178.461C10.2987 178.497 10.2609 178.526 10.2181 178.545C10.1752 178.565 10.1285 178.576 10.0811 178.576C9.63791 178.268 8.95324 178.494 8.82093 178.539C8.74532 178.677 8.67812 178.806 8.61091 178.927C9.5854 178.547 10.0306 179.079 10.0306 179.079C10.0528 179.13 10.0601 179.187 10.0516 179.242C10.043 179.297 10.0191 179.349 9.98234 179.391C9.94978 179.43 9.90878 179.462 9.8623 179.483C9.81582 179.505 9.765 179.516 9.71352 179.517C9.18637 179.149 8.33999 179.484 8.33999 179.484C8.23287 179.712 8.18037 179.841 8.18037 179.841C7.98505 179.806 8.07746 179.753 8.07746 179.753C8.12156 179.636 8.16567 179.519 8.21187 179.402C8.11946 179.196 7.81493 178.613 7.29828 178.502C7.26361 178.465 7.23787 178.421 7.22296 178.373C7.20806 178.325 7.20437 178.274 7.21218 178.225C7.22009 178.169 7.24401 178.116 7.28116 178.073C7.31832 178.03 7.36721 177.998 7.4222 177.98C7.4222 177.98 8.09006 177.946 8.4723 178.837C8.5437 178.681 8.61721 178.527 8.69492 178.377L8.66762 178.389C8.66762 178.389 8.60251 177.568 8.07746 177.288C8.0568 177.246 8.04607 177.2 8.04607 177.154C8.04607 177.107 8.0568 177.061 8.07746 177.019C8.09851 176.972 8.13267 176.931 8.17609 176.902C8.2195 176.872 8.27045 176.856 8.32318 176.853C8.32318 176.853 8.88394 176.978 9.01415 177.783C9.10026 177.629 9.18847 177.477 9.27877 177.329C9.27877 177.124 9.22207 176.668 8.91124 176.446C8.8985 176.409 8.89454 176.369 8.89963 176.33C8.90471 176.291 8.91873 176.253 8.94064 176.22C8.96342 176.183 8.9966 176.152 9.03635 176.132C9.07611 176.112 9.12083 176.104 9.16536 176.107C9.29452 176.172 9.40438 176.268 9.48424 176.387C9.56411 176.505 9.61126 176.642 9.62111 176.783C9.73242 176.615 9.84373 176.448 9.95714 176.288C9.94034 176.083 9.86683 175.635 9.5518 175.432C9.53781 175.395 9.53225 175.356 9.53552 175.317C9.53878 175.278 9.5508 175.24 9.5707 175.206C9.59147 175.169 9.62184 175.138 9.65873 175.117C9.69562 175.095 9.73771 175.083 9.78072 175.083C9.78072 175.083 10.2008 175.218 10.2806 175.824L10.5179 175.508C10.5179 175.385 10.5368 174.937 10.2617 174.717C10.2519 174.686 10.2497 174.654 10.2551 174.622C10.2606 174.59 10.2736 174.56 10.2932 174.534C10.3148 174.506 10.3435 174.483 10.3766 174.469C10.4097 174.454 10.4461 174.449 10.4822 174.452C10.5983 174.519 10.6927 174.616 10.7544 174.733C10.8161 174.85 10.8426 174.982 10.8308 175.113L11.1102 174.772C11.1065 174.66 11.0791 174.549 11.0296 174.446C10.9801 174.344 10.9096 174.253 10.8224 174.179C10.8119 174.153 10.8076 174.125 10.8098 174.097C10.8119 174.07 10.8206 174.043 10.835 174.019C10.8499 173.991 10.8724 173.969 10.8998 173.953C10.9273 173.937 10.9587 173.93 10.9904 173.93C11.0987 173.98 11.1902 174.059 11.2541 174.158C11.3181 174.257 11.3519 174.372 11.3517 174.489C11.4903 174.329 11.6247 174.179 11.7549 174.037C11.7387 173.944 11.7032 173.855 11.6504 173.776C11.5977 173.697 11.5289 173.629 11.4483 173.577C11.4377 173.555 11.4322 173.53 11.4322 173.505C11.4322 173.481 11.4377 173.456 11.4483 173.433C11.4593 173.408 11.4773 173.386 11.5002 173.369C11.5232 173.353 11.5502 173.343 11.5785 173.341C11.683 173.376 11.7746 173.44 11.8422 173.526C11.9097 173.611 11.9502 173.714 11.9586 173.822C12.0825 173.688 12.2002 173.567 12.3094 173.456C12.3129 173.384 12.3018 173.311 12.2765 173.243C12.2513 173.175 12.2125 173.113 12.1624 173.06C12.1579 173.039 12.158 173.018 12.1627 172.998C12.1674 172.978 12.1766 172.959 12.1897 172.943C12.2041 172.924 12.2235 172.91 12.2458 172.901C12.268 172.893 12.2922 172.891 12.3157 172.895C12.3778 172.932 12.4295 172.984 12.4662 173.045C12.5028 173.106 12.5233 173.176 12.5257 173.247L12.7357 173.041H12.7126C12.749 172.98 12.7719 172.911 12.7798 172.841C12.7878 172.77 12.7806 172.698 12.7588 172.63C12.7607 172.615 12.7662 172.6 12.775 172.587C12.7837 172.574 12.7954 172.563 12.8092 172.554C12.8245 172.546 12.8419 172.541 12.8596 172.541C12.8773 172.541 12.8947 172.546 12.91 172.554C12.936 172.593 12.9533 172.636 12.9609 172.681C12.9685 172.727 12.9662 172.773 12.9541 172.817Z" fill="#A78EBC"/>
<path opacity="0.5" d="M49.6825 215.007L48.5735 216.092V213.832C48.6106 213.805 48.6444 213.774 48.6744 213.74L50.6527 211.52C50.7087 211.457 50.7515 211.384 50.7786 211.305C50.8058 211.226 50.8167 211.143 50.8109 211.059C50.805 210.976 50.7825 210.895 50.7446 210.821C50.7066 210.746 50.654 210.679 50.5897 210.625C50.5255 210.57 50.4508 210.528 50.37 210.501C50.2892 210.475 50.2039 210.464 50.1188 210.47C50.0338 210.476 49.9508 210.498 49.8744 210.535C49.7981 210.572 49.73 210.623 49.674 210.686L48.5735 211.918V209.101C48.5735 208.932 48.5052 208.771 48.3835 208.652C48.2618 208.533 48.0967 208.466 47.9246 208.466C47.8938 208.464 47.8629 208.464 47.8322 208.466C47.8014 208.464 47.7705 208.464 47.7398 208.466C47.5676 208.466 47.4026 208.533 47.2809 208.652C47.1592 208.771 47.0908 208.932 47.0908 209.101V211.918L45.9903 210.686C45.8772 210.559 45.7172 210.481 45.5455 210.47C45.3738 210.458 45.2044 210.514 45.0746 210.625C44.9448 210.735 44.8653 210.892 44.8535 211.059C44.8416 211.227 44.8985 211.393 45.0116 211.52L46.99 213.74C47.0204 213.774 47.0542 213.805 47.0908 213.832V216.092L45.984 215.007C45.8623 214.888 45.6972 214.821 45.5251 214.821C45.353 214.821 45.1879 214.888 45.0662 215.007C44.9445 215.126 44.8761 215.288 44.8761 215.456C44.8761 215.624 44.9445 215.786 45.0662 215.905L46.9018 217.7C46.9563 217.753 47.0204 217.796 47.0908 217.827V222.345C47.0893 222.436 47.1085 222.526 47.1469 222.609C47.1852 222.692 47.2419 222.765 47.3128 222.824C47.3836 222.883 47.467 222.926 47.5568 222.95C47.6466 222.973 47.7406 222.977 47.8322 222.961C47.8629 222.963 47.8938 222.963 47.9246 222.961C48.0967 222.961 48.2618 222.894 48.3835 222.775C48.5052 222.656 48.5735 222.495 48.5735 222.327V217.809C48.6446 217.778 48.7094 217.735 48.7647 217.681L50.6002 215.886C50.7219 215.767 50.7903 215.606 50.7903 215.437C50.7903 215.269 50.7219 215.108 50.6002 214.989C50.4785 214.87 50.3135 214.803 50.1413 214.803C49.9692 214.803 49.8042 214.87 49.6825 214.989V215.007Z" fill="#A78EBC"/>
<path d="M23.1191 203.703C22.8818 203.703 22.6444 203.718 22.4113 203.74C22.9551 202.081 23.2321 200.349 23.2325 198.606C23.2325 190.161 16.9088 183.25 8.89652 182.663C8.91332 182.427 8.92592 182.191 8.92592 181.95C8.92592 176.923 5.21276 172.846 0.636423 172.846C-3.66899 172.846 -7.20783 176.45 -7.61317 181.061H-7.65308V221.93H23.0099H23.1233C27.7017 221.93 31.4128 217.854 31.4128 212.824C31.4128 207.794 27.6975 203.703 23.1191 203.703Z" fill="#2D6963"/>
<path opacity="0.7" d="M12.6307 214.508C12.6707 214.469 12.7182 214.438 12.7704 214.417C12.8227 214.396 12.8787 214.385 12.9353 214.385C12.9918 214.385 13.0478 214.396 13.1001 214.417C13.1523 214.438 13.1998 214.469 13.2398 214.508L14.1009 215.348V210.579C14.1085 210.472 14.1573 210.372 14.2374 210.299C14.3175 210.226 14.4229 210.186 14.5325 210.186C14.642 210.186 14.7475 210.226 14.8276 210.299C14.9077 210.372 14.9564 210.472 14.9641 210.579V212.454L15.6949 211.633C15.7308 211.587 15.7759 211.548 15.8276 211.52C15.8793 211.492 15.9363 211.474 15.9952 211.468C16.0542 211.462 16.1137 211.468 16.1701 211.486C16.2266 211.503 16.2788 211.532 16.3234 211.57C16.3681 211.608 16.4043 211.655 16.4298 211.707C16.4553 211.759 16.4695 211.816 16.4716 211.874C16.4738 211.932 16.4637 211.99 16.4421 212.043C16.4205 212.097 16.3878 212.146 16.346 212.187L15.0313 213.664C15.011 213.686 14.9885 213.706 14.9641 213.724V219.382C14.9682 219.44 14.9601 219.498 14.9403 219.552C14.9205 219.607 14.8893 219.657 14.8489 219.7C14.8084 219.742 14.7594 219.776 14.705 219.799C14.6505 219.822 14.5918 219.834 14.5325 219.834C14.4731 219.834 14.4144 219.822 14.36 219.799C14.3055 219.776 14.2566 219.742 14.2161 219.7C14.1756 219.657 14.1445 219.607 14.1247 219.552C14.1048 219.498 14.0967 219.44 14.1009 219.382V216.416C14.0064 216.406 13.9183 216.365 13.851 216.299L12.6307 215.104C12.5894 215.065 12.5565 215.019 12.5341 214.968C12.5116 214.917 12.5 214.862 12.5 214.806C12.5 214.75 12.5116 214.695 12.5341 214.644C12.5565 214.593 12.5894 214.547 12.6307 214.508Z" fill="#3B2C46"/>
<path opacity="0.5" d="M23.2031 210.608C23.1097 210.516 22.9986 210.443 22.8762 210.394C22.7538 210.344 22.6226 210.318 22.4901 210.318C22.3576 210.318 22.2264 210.344 22.1041 210.394C21.9817 210.443 21.8706 210.516 21.7771 210.608L19.7693 212.571V201.438C19.7575 201.185 19.6462 200.946 19.4586 200.77C19.2711 200.595 19.0217 200.497 18.7623 200.497C18.5029 200.497 18.2535 200.595 18.0659 200.77C17.8783 200.946 17.7671 201.185 17.7552 201.438V205.813L16.0478 203.894C15.8703 203.704 15.6239 203.59 15.3611 203.575C15.0983 203.56 14.8401 203.646 14.6415 203.815C14.443 203.984 14.3199 204.223 14.2985 204.479C14.2771 204.736 14.3592 204.99 14.5272 205.188L17.5998 208.639C17.6459 208.691 17.6981 208.738 17.7552 208.778V221.986C17.749 222.119 17.7704 222.252 17.8183 222.377C17.8661 222.501 17.9392 222.615 18.0334 222.712C18.1275 222.808 18.2406 222.885 18.3659 222.937C18.4912 222.99 18.626 223.017 18.7623 223.017C18.8985 223.017 19.0334 222.99 19.1587 222.937C19.2839 222.885 19.3971 222.808 19.4912 222.712C19.5853 222.615 19.6585 222.501 19.7063 222.377C19.7541 222.252 19.7755 222.119 19.7693 221.986V215.063C19.9899 215.037 20.1955 214.94 20.3532 214.787L23.2031 212.001C23.3917 211.816 23.4976 211.565 23.4976 211.304C23.4976 211.043 23.3917 210.793 23.2031 210.608V210.608Z" fill="#3B2C46"/>
<path d="M19.49 163.553C19.4774 163.05 19.4774 162.779 19.4774 162.779C20.2608 161.269 20.9643 163.079 20.9643 163.079C20.9643 163.368 20.9748 163.658 20.9811 163.947C22.0501 163.436 22.8377 163.812 22.8377 163.812C22.9308 163.895 22.9987 164.002 23.0339 164.12C23.0691 164.239 23.0702 164.364 23.0372 164.483C23.0086 164.59 22.9561 164.689 22.8834 164.774C22.8108 164.858 22.7198 164.926 22.6172 164.972C22.0627 164.897 21.4986 165.008 21.0168 165.286C21.049 166.254 21.0917 167.217 21.1449 168.174C22.8524 166.718 24.3456 167.311 24.3456 167.311C24.4778 167.414 24.5784 167.55 24.6363 167.705C24.6941 167.859 24.7069 168.027 24.6733 168.188C24.6456 168.333 24.5852 168.47 24.4966 168.59C24.4079 168.709 24.2933 168.808 24.1608 168.878C23.012 168.747 21.9367 169.441 21.2625 170.01C21.3354 171.023 21.4208 172.03 21.5188 173.031C23.2367 171.113 25.0492 171.532 25.0492 171.532C25.2239 171.629 25.3676 171.772 25.4647 171.944C25.5618 172.116 25.6084 172.311 25.5995 172.507C25.5943 172.683 25.5489 172.856 25.4668 173.013C25.3847 173.169 25.2679 173.306 25.1248 173.413C23.6547 173.466 22.4408 174.627 21.7771 175.434C21.9087 176.584 22.0557 177.724 22.2181 178.853C24.0768 176.494 26.2085 176.9 26.2085 176.9C26.4083 177.001 26.5757 177.154 26.6921 177.342C26.8085 177.53 26.8694 177.746 26.868 177.966C26.8685 178.162 26.8246 178.356 26.7397 178.533C26.6547 178.711 26.5307 178.868 26.3765 178.993C24.6523 179.122 23.3144 180.587 22.6319 181.517C22.8699 182.975 23.1261 184.409 23.4006 185.818C25.1059 182.517 27.7564 182.636 27.7564 182.636C28.0008 182.718 28.2174 182.865 28.3823 183.059C28.5471 183.254 28.654 183.489 28.691 183.739C28.7266 183.963 28.711 184.192 28.6453 184.409C28.5795 184.627 28.4653 184.827 28.3108 184.996C25.7906 185.553 24.415 188.553 24.1104 189.272C24.3512 190.374 24.6005 191.456 24.8581 192.519C26.9415 188.35 30.2514 188.498 30.2514 188.498C30.5501 188.598 30.8146 188.777 31.0158 189.015C31.217 189.253 31.3471 189.541 31.3918 189.847C31.4366 190.12 31.418 190.4 31.3373 190.666C31.2566 190.931 31.1159 191.176 30.9256 191.381C28.0105 192.03 26.3387 195.367 25.8662 196.452C26.2232 197.781 26.588 199.07 26.9604 200.317C29.0165 195.632 32.5868 195.799 32.5868 195.799C32.8852 195.899 33.1495 196.078 33.3507 196.316C33.5519 196.553 33.6822 196.841 33.7272 197.146C33.7716 197.42 33.753 197.7 33.6727 197.965C33.5924 198.231 33.4525 198.476 33.2631 198.682C30.0666 199.393 28.3612 203.338 28.0966 203.997C28.5166 205.273 28.9199 206.492 29.3231 207.649C31.7279 201.822 36.0816 202.017 36.0816 202.017C36.4347 202.136 36.7475 202.347 36.9855 202.628C37.2234 202.91 37.3772 203.25 37.4299 203.611C37.4821 203.935 37.4598 204.266 37.3646 204.58C37.2694 204.894 37.1037 205.183 36.8797 205.427C33.1476 206.248 31.1314 210.832 30.7891 211.69C31.1825 212.726 31.5584 213.684 31.9169 214.566C34.4707 207.762 39.4272 207.981 39.4272 207.981C39.8086 208.11 40.1464 208.338 40.4032 208.642C40.66 208.946 40.826 209.314 40.8826 209.704C40.9398 210.054 40.916 210.411 40.8132 210.75C40.7103 211.089 40.5309 211.401 40.2883 211.664C35.8338 212.654 33.6432 218.583 33.6432 218.583L33.6012 218.546C34.3237 220.17 34.7647 221.053 34.7647 221.053C33.6579 221.891 33.8113 221.164 33.8113 221.164C33.3814 220.385 32.9649 219.602 32.5616 218.815C31.0075 218.32 26.4395 217.143 23.3985 219.277C23.0374 219.28 22.6803 219.204 22.3532 219.054C22.0262 218.904 21.7375 218.685 21.5083 218.412C21.2474 218.112 21.0764 217.747 21.0141 217.357C20.9519 216.967 21.0008 216.569 21.1554 216.205C21.1554 216.205 24.1209 212.615 30.6694 214.886C30.1709 213.791 29.6949 212.687 29.2412 211.575L29.1845 211.781C29.1845 211.781 24.4549 208.224 20.4771 209.62C20.1532 209.536 19.8529 209.381 19.5984 209.168C19.3439 208.955 19.1418 208.688 19.0069 208.388C18.8526 208.055 18.7953 207.688 18.8412 207.325C18.8872 206.963 19.0347 206.62 19.2674 206.334C19.2674 206.334 22.592 204.042 27.5338 207.156C27.1137 205.992 26.7154 204.828 26.3387 203.664C25.2004 202.724 22.5164 200.828 19.8575 201.381C19.597 201.271 19.3647 201.107 19.1776 200.898C18.9905 200.69 18.8533 200.444 18.7759 200.177C18.6858 199.881 18.6808 199.567 18.7616 199.268C18.8424 198.97 19.0058 198.699 19.2338 198.485C19.2338 198.485 21.7414 197.214 25.0198 199.325C24.6292 197.956 24.2658 196.6 23.9298 195.259C22.7159 194.353 20.0024 192.652 17.4192 193.303C17.1535 193.206 16.9137 193.052 16.7174 192.852C16.521 192.651 16.3733 192.411 16.2851 192.147C16.1815 191.856 16.1623 191.542 16.2298 191.24C16.2972 190.939 16.4487 190.661 16.6673 190.438C16.6673 190.438 19.3724 188.919 23.0099 191.363C22.7999 190.445 22.6172 189.541 22.4366 188.646C21.8065 188.017 19.4459 185.863 16.976 186.243C16.7665 186.144 16.5823 186 16.4369 185.822C16.2915 185.645 16.1887 185.437 16.136 185.216C16.0753 184.97 16.0852 184.713 16.1645 184.472C16.2438 184.232 16.3894 184.017 16.5854 183.852C16.5854 183.852 18.967 182.801 21.775 185.179C21.593 184.142 21.4236 183.129 21.2668 182.137C20.3616 181.48 18.4945 180.365 16.7135 180.819C16.5247 180.749 16.3541 180.64 16.2142 180.497C16.0743 180.355 15.9687 180.184 15.9049 179.997C15.8307 179.789 15.8165 179.566 15.864 179.35C15.9114 179.135 16.0186 178.937 16.1738 178.777C16.1738 178.777 18.1921 177.635 20.8803 179.554C20.6703 178.087 20.4981 176.678 20.3469 175.364C19.4186 174.869 17.8266 174.241 16.43 174.76C16.2552 174.716 16.0927 174.634 15.9542 174.521C15.8158 174.408 15.705 174.266 15.6298 174.105C15.5435 173.928 15.509 173.73 15.5302 173.535C15.5513 173.34 15.6272 173.154 15.7495 172.998C15.7495 172.998 17.4822 171.766 20.1284 173.319C19.9982 172.043 19.8953 170.854 19.8113 169.782C19.1434 169.217 18.1059 168.55 16.9949 168.675C16.8625 168.604 16.7482 168.504 16.6606 168.383C16.5729 168.263 16.5142 168.125 16.4888 167.979C16.4576 167.817 16.4727 167.65 16.5324 167.496C16.592 167.342 16.6939 167.207 16.8269 167.106C16.8269 167.106 18.1269 166.609 19.6685 167.722C19.6202 166.972 19.5845 166.301 19.5572 165.709L19.4333 165.816C19.4333 165.816 18.7864 163.951 17.4003 163.617C17.3266 163.533 17.2728 163.434 17.2431 163.328C17.2133 163.221 17.2081 163.109 17.2281 163.001C17.2481 162.879 17.3023 162.765 17.3846 162.671C17.4669 162.578 17.5741 162.508 17.6943 162.471C17.6943 162.471 18.7024 162.45 19.49 163.553Z" fill="#3B2C46"/>
<path opacity="0.5" d="M22.9091 153.178L23.2599 153.383C23.7198 154.141 22.7117 153.939 22.7117 153.939L22.3169 153.705C22.3068 153.869 22.2606 154.028 22.1816 154.172C22.1026 154.317 21.9925 154.442 21.859 154.541C21.7961 154.558 21.7297 154.557 21.6671 154.54C21.6045 154.522 21.5481 154.488 21.5041 154.441C21.4636 154.398 21.4331 154.348 21.4149 154.293C21.3968 154.238 21.3914 154.18 21.3991 154.122C21.5877 153.906 21.6951 153.632 21.7036 153.348C21.2612 153.092 20.8166 152.842 20.37 152.598C20.5485 153.738 19.8659 154.215 19.8659 154.215C19.7832 154.242 19.6943 154.247 19.6088 154.229C19.5233 154.211 19.4445 154.171 19.3808 154.112C19.3238 154.06 19.2793 153.996 19.2502 153.925C19.2212 153.854 19.2084 153.778 19.2128 153.701C19.5929 153.243 19.5803 152.588 19.511 152.14C19.0364 151.89 18.5603 151.646 18.0829 151.409C18.4651 152.681 17.772 153.344 17.772 153.344C17.6799 153.392 17.5761 153.414 17.4719 153.408C17.3678 153.401 17.2674 153.367 17.1819 153.309C17.1042 153.258 17.0393 153.19 16.9917 153.111C16.9441 153.033 16.9151 152.944 16.9068 152.853C17.2932 152.202 17.1168 151.36 16.9299 150.851C16.3754 150.588 15.8209 150.333 15.2707 150.087C15.8125 151.545 15.0376 152.346 15.0376 152.346C14.9367 152.404 14.8212 152.434 14.7039 152.432C14.5867 152.43 14.4724 152.396 14.3739 152.333C14.285 152.279 14.2095 152.206 14.1528 152.12C14.0962 152.034 14.0598 151.936 14.0463 151.834C14.4663 151.056 14.1828 150.074 13.9539 149.52C13.2342 149.216 12.5187 148.927 11.8075 148.653C12.8156 150.296 12.0175 151.413 12.0175 151.413C11.9123 151.495 11.7861 151.547 11.6527 151.564C11.5193 151.58 11.3839 151.56 11.2614 151.506C11.1507 151.459 11.0521 151.389 10.9729 151.3C10.8936 151.211 10.8358 151.106 10.8036 150.992C11.2509 149.76 10.289 148.323 10.0496 147.998C9.48674 147.793 8.93018 147.602 8.36943 147.415C9.66525 149.469 8.67606 150.855 8.67606 150.855C8.54768 150.955 8.39354 151.019 8.23053 151.039C8.06752 151.059 7.90195 151.035 7.75197 150.97C7.61673 150.912 7.49626 150.826 7.39928 150.717C7.3023 150.609 7.23123 150.48 7.19122 150.341C7.71207 148.904 6.67667 147.261 6.32173 146.753C5.62167 146.537 4.9405 146.332 4.27824 146.137C5.81138 148.327 4.74658 149.818 4.74658 149.818C4.61822 149.918 4.46394 149.982 4.30084 150.002C4.13774 150.022 3.97218 149.997 3.82249 149.931C3.69034 149.872 3.57304 149.786 3.47899 149.678C3.38495 149.57 3.31649 149.443 3.27854 149.306C3.84769 147.733 2.54977 145.903 2.32715 145.61C1.63828 145.431 0.974618 145.269 0.342457 145.119C2.29354 147.789 0.991419 149.6 0.991419 149.6C0.839832 149.72 0.657215 149.796 0.463981 149.82C0.270747 149.843 0.0745114 149.814 -0.102786 149.736C-0.262439 149.668 -0.404649 149.566 -0.519082 149.438C-0.633516 149.31 -0.7173 149.158 -0.76435 148.994C-0.0985863 147.158 -1.60443 145.016 -1.88376 144.628C-2.45921 144.509 -2.99476 144.402 -3.49041 144.312C-1.14239 147.304 -2.62303 149.372 -2.62303 149.372C-2.78667 149.501 -2.98354 149.583 -3.19185 149.609C-3.40017 149.635 -3.6118 149.604 -3.80334 149.52C-3.97593 149.447 -4.12964 149.337 -4.2532 149.199C-4.37676 149.06 -4.46704 148.896 -4.51741 148.719C-3.72353 146.528 -5.77753 143.934 -5.77753 143.934H-5.75023C-6.68062 143.79 -7.20147 143.728 -7.20147 143.728C-7.26868 143.02 -6.99145 143.287 -6.99145 143.287C-6.5224 143.32 -6.05406 143.359 -5.58641 143.404C-4.93115 142.874 -3.13128 141.237 -3.24259 139.335C-3.14337 139.179 -3.00963 139.047 -2.85118 138.947C-2.69273 138.848 -2.51359 138.785 -2.3269 138.762C-2.11912 138.734 -1.90736 138.762 -1.71501 138.844C-1.52266 138.926 -1.3572 139.058 -1.2369 139.227C-1.2369 139.227 -0.447219 141.5 -3.29299 143.683C-2.66293 143.776 -2.03287 143.889 -1.40281 143.991L-1.47842 143.909C-1.47842 143.909 1.43876 142.868 1.91761 140.767C2.04683 140.653 2.20033 140.568 2.36703 140.519C2.53373 140.47 2.70948 140.458 2.8816 140.483C3.07584 140.509 3.25904 140.586 3.41046 140.708C3.56189 140.829 3.67551 140.99 3.73848 141.171C3.73848 141.171 3.84139 143.24 1.06493 144.494C1.70619 144.64 2.33625 144.792 2.95511 144.952C3.69648 144.726 5.29473 144.1 5.78828 142.804C5.9094 142.722 6.04781 142.668 6.19323 142.646C6.33866 142.623 6.48738 142.633 6.62836 142.675C6.78603 142.719 6.92828 142.804 7.03944 142.922C7.15061 143.04 7.22639 143.185 7.25842 143.342C7.25842 143.342 7.13241 144.78 5.26953 145.601C5.9948 145.815 6.70537 146.036 7.40124 146.265C8.14681 145.996 9.66735 145.304 10.0937 144.006C10.2124 143.919 10.3494 143.859 10.4947 143.831C10.6401 143.802 10.7901 143.806 10.9338 143.841C11.0939 143.878 11.2404 143.958 11.3575 144.071C11.4745 144.184 11.5576 144.326 11.5974 144.482C11.5974 144.482 11.526 146.068 9.41533 146.947C9.88297 147.115 10.3429 147.285 10.7952 147.458C11.253 147.361 12.8807 146.947 13.3973 145.776C13.5007 145.715 13.6167 145.677 13.7369 145.665C13.8571 145.653 13.9785 145.667 14.0925 145.706C14.2196 145.749 14.3323 145.825 14.4182 145.926C14.5042 146.027 14.56 146.149 14.5797 146.279C14.5797 146.279 14.3907 147.596 12.5383 148.14C13.055 148.345 13.559 148.55 14.0484 148.768C14.5944 148.563 15.6172 148.07 15.9092 147.179C15.9929 147.117 16.0897 147.074 16.1925 147.053C16.2954 147.033 16.4016 147.035 16.5035 147.059C16.6179 147.085 16.7227 147.141 16.8062 147.222C16.8897 147.302 16.9485 147.404 16.9761 147.515C16.9761 147.515 16.9278 148.7 15.3169 149.323C16.0331 149.643 16.7135 149.957 17.3499 150.259C17.8308 149.998 18.5554 149.489 18.7129 148.744C18.7812 148.681 18.8631 148.633 18.9525 148.605C19.0419 148.577 19.1365 148.569 19.2296 148.581C19.3333 148.594 19.4314 148.635 19.5132 148.699C19.595 148.762 19.6574 148.847 19.6937 148.943C19.6937 148.943 19.7672 150.033 18.3307 150.736C18.9397 151.036 19.5005 151.321 20.0108 151.584C20.4519 151.454 21.0357 151.192 21.2941 150.682C21.3629 150.645 21.4394 150.623 21.518 150.619C21.5966 150.615 21.6751 150.628 21.7477 150.658C21.8294 150.689 21.9005 150.742 21.9532 150.81C22.0058 150.879 22.038 150.96 22.0459 151.046C22.0459 151.046 21.9094 151.744 20.9769 152.095C21.3256 152.282 21.6364 152.455 21.9115 152.607L21.8968 152.524C21.8968 152.524 22.9154 152.765 23.4531 152.264C23.5113 152.255 23.5707 152.259 23.6271 152.276C23.6834 152.292 23.7352 152.321 23.7786 152.36C23.8276 152.403 23.8636 152.458 23.8825 152.519C23.9015 152.58 23.9026 152.645 23.8857 152.707C23.7729 152.856 23.6254 152.976 23.4556 153.058C23.2858 153.14 23.0984 153.181 22.9091 153.178V153.178Z" fill="#3B2C46"/>
<path d="M14.7078 187.428C13.9097 186.768 12.8975 186.655 12.448 187.175C12.0784 187.602 12.2086 188.323 12.7063 188.933C10.7699 191.018 8.2245 191.617 6.53804 191.761C6.49183 191.706 6.44353 191.651 6.39312 191.595C9.89836 189.789 9.54343 188.052 9.43632 187.713C10.2596 187.489 10.8183 186.924 10.6964 186.436C10.5746 185.947 9.77445 185.717 8.93017 185.933C8.08589 186.148 7.51253 186.725 7.64485 187.22C7.74565 187.59 8.214 187.81 8.79786 187.806C8.79013 187.908 8.77681 188.01 8.75795 188.112C8.45972 189.621 6.95598 190.631 5.94998 191.153C5.56137 190.817 5.1392 190.521 4.68986 190.268C4.36198 190.087 4.02163 189.928 3.67126 189.794C3.71117 188.717 3.97579 187.352 4.96079 186.518C5.05168 186.444 5.14707 186.375 5.24641 186.312L5.19181 186.163C5.30136 186.252 5.41793 186.333 5.54044 186.405C6.29652 186.83 7.11979 186.816 7.38022 186.374C7.64064 185.933 7.24161 185.226 6.48763 184.801C5.73366 184.376 4.91038 184.39 4.64786 184.832C4.49244 185.095 4.57645 185.448 4.82217 185.785C4.32443 185.953 3.10211 186.674 3.0496 189.594C2.71396 189.495 2.36816 189.431 2.0184 189.405C1.55063 187.858 1.53245 186.214 1.9659 184.657C2.05289 184.669 2.14057 184.676 2.22842 184.678C3.10001 184.678 3.80568 184.125 3.80568 183.445C3.80568 182.766 3.10001 182.213 2.22842 182.213C1.35684 182.213 0.651173 182.766 0.651173 183.445C0.653724 183.602 0.690667 183.757 0.759506 183.899C0.828345 184.04 0.927476 184.166 1.05021 184.267C0.626182 185.1 0.379454 186.009 0.324945 186.939C0.270436 187.868 0.409281 188.799 0.73308 189.674C0.618899 189.749 0.522831 189.847 0.451652 189.962C-0.0418951 190.771 0.951501 192.229 2.68837 193.256C1.69077 194.548 -0.461936 198.052 0.023211 203.788H1.28333C1.28333 203.788 0.714178 197.626 3.92749 193.852C5.37873 194.404 6.68925 194.375 7.09669 193.685C7.1691 193.546 7.21116 193.394 7.2202 193.238C7.22924 193.082 7.20506 192.926 7.1492 192.78C8.39358 192.837 9.63117 192.569 10.7343 192.003C11.8374 191.437 12.7661 190.594 13.4246 189.559C14.1492 189.995 14.9514 190.017 15.3379 189.559C15.7894 189.046 15.4996 188.089 14.7078 187.428Z" fill="#3B2C46"/>
<path d="M16.2724 222.267L6.53799 203.611L-6.69328 199.803C-8.51346 207.291 -10.3336 214.779 -12.1538 222.267H16.2724Z" fill="#804A7A"/>
<path d="M0.308827 222.267H-12.1517C-10.3315 214.779 -8.51132 207.291 -6.69115 199.803L-0.850484 205.895C-0.468247 211.352 -0.0818102 216.81 0.308827 222.267Z" fill="#4C3E60"/>
<path d="M3.42339 210.082L-6.69958 199.803L6.53799 203.611L3.42339 210.082Z" fill="#856699"/>
<path d="M0.317246 222.267L-1.06049 205.529L3.42345 210.082L2.06041 222.267H0.317246Z" fill="#5A4F83"/>
<path d="M396.686 109.875C396.686 109.875 393.232 112.819 392.542 119.125C392.187 121.117 391.08 122.913 389.433 124.168C389.433 124.168 391.161 150.655 381.145 153.599C381.145 153.599 387.707 157.802 396.686 155.701V109.875Z" fill="#4F669E"/>
<path d="M381.565 153.266C381.565 153.266 367.607 146.762 389.735 123.782C389.733 123.782 392.456 149.797 381.565 153.266Z" fill="#529FD5"/>
<path d="M420.353 177.841L392.883 149.978L378.349 149.501C384.835 163.33 391.319 177.158 397.802 190.987L420.353 177.841Z" fill="#804A7A"/>
<path d="M407.687 185.23L397.802 190.997C391.319 177.169 384.835 163.34 378.349 149.512L389.432 157.375L407.687 185.23Z" fill="#4C1660"/>
<path d="M397.264 162.649L378.349 149.501L392.883 149.978L397.264 162.649Z" fill="#856699"/>
<path d="M407.696 185.226L388.884 156.825L397.264 162.649L409.077 184.419L407.696 185.226Z" fill="#5A4F83"/>
<path d="M51.5475 164.765H46.7485L50.2138 161.374C50.2682 161.32 50.3111 161.256 50.3402 161.186C50.3693 161.116 50.384 161.041 50.3834 160.965C50.3828 160.889 50.367 160.814 50.3368 160.745C50.3066 160.675 50.2627 160.612 50.2075 160.559C50.1524 160.505 50.0871 160.464 50.0153 160.435C49.9435 160.407 49.8668 160.392 49.7893 160.393C49.7119 160.393 49.6354 160.409 49.5641 160.438C49.4928 160.468 49.4281 160.511 49.3738 160.565L45.7908 164.068V158.916C45.7908 158.764 45.7291 158.618 45.6192 158.51C45.5093 158.403 45.3603 158.343 45.2049 158.343C45.0494 158.343 44.9004 158.403 44.7905 158.51C44.6806 158.618 44.6189 158.764 44.6189 158.916V164.068L40.5655 160.105C40.4555 159.997 40.3063 159.937 40.1507 159.937C39.9951 159.937 39.8459 159.997 39.7359 160.105C39.6259 160.212 39.5641 160.358 39.5641 160.51C39.5641 160.662 39.6259 160.808 39.7359 160.916L43.6717 164.765H38.4128C38.2574 164.765 38.1084 164.825 37.9985 164.932C37.8886 165.04 37.8268 165.186 37.8268 165.338C37.8268 165.49 37.8886 165.635 37.9985 165.743C38.1084 165.85 38.2574 165.911 38.4128 165.911H43.9174L40.2169 169.529C40.1624 169.583 40.1192 169.646 40.0897 169.715C40.0602 169.785 40.0451 169.86 40.0451 169.935C40.0451 170.01 40.0602 170.085 40.0897 170.154C40.1192 170.224 40.1624 170.287 40.2169 170.341C40.2713 170.394 40.336 170.436 40.4072 170.465C40.4783 170.494 40.5546 170.509 40.6317 170.509C40.7087 170.509 40.785 170.494 40.8561 170.465C40.9273 170.436 40.992 170.394 41.0465 170.341L44.6294 166.837V171.53C44.6294 171.605 44.6446 171.679 44.674 171.749C44.7035 171.818 44.7466 171.882 44.801 171.935C44.8554 171.988 44.92 172.03 44.9911 172.059C45.0622 172.088 45.1384 172.103 45.2154 172.103C45.2923 172.103 45.3685 172.088 45.4396 172.059C45.5107 172.03 45.5753 171.988 45.6297 171.935C45.6841 171.882 45.7273 171.818 45.7567 171.749C45.7862 171.679 45.8013 171.605 45.8013 171.53V166.601L49.3843 170.104C49.4943 170.213 49.644 170.275 49.8006 170.276C49.9571 170.277 50.1077 170.217 50.2191 170.11C50.3305 170.002 50.3936 169.855 50.3946 169.702C50.3956 169.549 50.3343 169.402 50.2243 169.293L46.759 165.904H51.558C51.7134 165.904 51.8624 165.844 51.9723 165.737C52.0822 165.629 52.1439 165.483 52.1439 165.332C52.1439 165.18 52.0822 165.034 51.9723 164.926C51.8624 164.819 51.7134 164.759 51.558 164.759L51.5475 164.765Z" fill="#A5EFFF"/>
<path d="M15.9196 197.916H13.6661L15.2938 196.324C15.3231 196.3 15.347 196.27 15.364 196.237C15.3809 196.203 15.3905 196.166 15.3921 196.129C15.3937 196.091 15.3874 196.054 15.3735 196.019C15.3595 195.984 15.3383 195.952 15.3112 195.925C15.284 195.899 15.2515 195.878 15.2157 195.864C15.18 195.851 15.1417 195.845 15.1033 195.846C15.065 195.848 15.0274 195.857 14.9929 195.874C14.9585 195.89 14.9279 195.914 14.9031 195.942L13.223 197.585V195.168C13.223 195.097 13.194 195.028 13.1424 194.978C13.0908 194.927 13.0208 194.899 12.9479 194.899C12.8749 194.899 12.8049 194.927 12.7533 194.978C12.7017 195.028 12.6727 195.097 12.6727 195.168V197.589L10.7657 195.721C10.7139 195.67 10.6438 195.642 10.5707 195.642C10.4977 195.642 10.4277 195.671 10.3762 195.722C10.3246 195.772 10.2958 195.841 10.296 195.912C10.2962 195.984 10.3254 196.052 10.3772 196.103L12.2254 197.91H9.74925C9.67628 197.91 9.6063 197.938 9.5547 197.989C9.50311 198.039 9.47412 198.107 9.47412 198.179C9.47412 198.25 9.50311 198.319 9.5547 198.369C9.6063 198.42 9.67628 198.448 9.74925 198.448H12.3346L10.5977 200.148C10.5699 200.173 10.5475 200.203 10.5319 200.236C10.5162 200.269 10.5076 200.305 10.5066 200.341C10.5056 200.378 10.5123 200.414 10.5261 200.448C10.5399 200.482 10.5607 200.513 10.5871 200.539C10.6135 200.565 10.6451 200.585 10.6798 200.598C10.7145 200.612 10.7516 200.618 10.789 200.617C10.8263 200.616 10.8631 200.608 10.897 200.593C10.9309 200.577 10.9613 200.555 10.9863 200.528L12.6664 198.885V201.089C12.6664 201.16 12.6954 201.229 12.747 201.279C12.7986 201.33 12.8686 201.358 12.9416 201.358C13.0145 201.358 13.0845 201.33 13.1361 201.279C13.1877 201.229 13.2167 201.16 13.2167 201.089V198.781L14.8968 200.424C14.9216 200.452 14.9522 200.476 14.9866 200.492C15.0211 200.509 15.0587 200.518 15.097 200.52C15.1354 200.521 15.1737 200.515 15.2094 200.501C15.2452 200.488 15.2777 200.467 15.3049 200.441C15.332 200.414 15.3532 200.382 15.3672 200.347C15.3811 200.312 15.3874 200.275 15.3858 200.237C15.3842 200.2 15.3746 200.163 15.3577 200.129C15.3407 200.096 15.3168 200.066 15.2875 200.042L13.6598 198.45H15.9196C15.9926 198.45 16.0626 198.422 16.1142 198.371C16.1658 198.321 16.1948 198.252 16.1948 198.181C16.1948 198.11 16.1658 198.041 16.1142 197.991C16.0626 197.94 15.9926 197.912 15.9196 197.912V197.916Z" fill="#A5EFFF"/>
<path d="M272.304 217.811C272.344 217.771 272.391 217.74 272.444 217.719C272.496 217.698 272.552 217.687 272.608 217.687C272.665 217.687 272.721 217.698 272.773 217.719C272.826 217.74 272.873 217.771 272.913 217.811L273.774 218.653V213.884C273.77 213.826 273.778 213.768 273.798 213.713C273.818 213.658 273.849 213.608 273.889 213.566C273.93 213.523 273.979 213.49 274.033 213.466C274.088 213.443 274.146 213.431 274.206 213.431C274.265 213.431 274.324 213.443 274.378 213.466C274.433 213.49 274.482 213.523 274.522 213.566C274.563 213.608 274.594 213.658 274.614 213.713C274.633 213.768 274.641 213.826 274.637 213.884V215.757L275.368 214.935C275.404 214.889 275.449 214.851 275.501 214.823C275.552 214.794 275.61 214.777 275.668 214.771C275.727 214.765 275.787 214.771 275.843 214.788C275.9 214.806 275.952 214.834 275.997 214.872C276.041 214.911 276.078 214.957 276.103 215.009C276.129 215.062 276.143 215.118 276.145 215.176C276.147 215.234 276.137 215.292 276.115 215.346C276.094 215.4 276.061 215.449 276.019 215.49L274.704 216.967C274.684 216.989 274.661 217.009 274.637 217.028V222.686C274.63 222.793 274.581 222.893 274.501 222.966C274.421 223.039 274.315 223.08 274.206 223.08C274.096 223.08 273.991 223.039 273.911 222.966C273.831 222.893 273.782 222.793 273.774 222.686V219.721C273.68 219.708 273.592 219.667 273.524 219.601L272.304 218.408C272.223 218.329 272.178 218.221 272.178 218.109C272.178 217.997 272.223 217.89 272.304 217.811V217.811Z" fill="#3B2C46"/>
<path d="M282.19 211.058C282 210.873 281.744 210.77 281.477 210.77C281.209 210.77 280.953 210.873 280.764 211.058L278.756 213.021V201.882C278.762 201.749 278.741 201.616 278.693 201.491C278.645 201.366 278.572 201.252 278.478 201.156C278.383 201.06 278.27 200.983 278.145 200.93C278.02 200.878 277.885 200.851 277.749 200.851C277.612 200.851 277.478 200.878 277.352 200.93C277.227 200.983 277.114 201.06 277.02 201.156C276.926 201.252 276.852 201.366 276.805 201.491C276.757 201.616 276.735 201.749 276.742 201.882V206.256L275.034 204.338C274.857 204.148 274.61 204.033 274.348 204.019C274.085 204.004 273.826 204.09 273.628 204.259C273.429 204.428 273.306 204.666 273.285 204.923C273.264 205.179 273.346 205.434 273.514 205.632L276.586 209.08C276.632 209.133 276.684 209.181 276.742 209.222V222.429C276.753 222.683 276.865 222.922 277.052 223.097C277.24 223.272 277.489 223.37 277.749 223.37C278.008 223.37 278.258 223.272 278.445 223.097C278.633 222.922 278.744 222.683 278.756 222.429V215.506C278.977 215.48 279.182 215.383 279.34 215.229L282.19 212.444C282.376 212.259 282.48 212.01 282.48 211.751C282.48 211.492 282.376 211.243 282.19 211.058V211.058Z" fill="#3B2C46"/>
<path d="M214.244 198.9L220.715 190.96L225.915 198.9L229.848 193.689L233.146 198.9" stroke="#66B3AF" stroke-width="4" stroke-miterlimit="10"/>
<path d="M257.088 194.488L257.082 190.13L260.478 192.661L260.381 189.849L262.578 191.529" stroke="#66B3AF" stroke-width="4" stroke-miterlimit="10"/>
<path d="M35.6616 130.046C35.6616 130.046 44.768 130.328 43.4722 142.699C43.4722 142.699 49.1302 139.029 53.0848 143.87" stroke="#66B3AF" stroke-width="5" stroke-miterlimit="10"/>
<path d="M33.6537 147.068C33.6537 147.068 36.174 142.49 42.441 146.367C42.441 146.367 41.9537 142.523 45.5661 141.763" stroke="#66B3AF" stroke-width="5" stroke-miterlimit="10"/>
<path d="M75.4877 164.859C75.4877 164.859 77.7979 165.886 76.9074 168.556C76.9074 168.556 83.1786 169.291 81.719 175.448" stroke="#66B3AF" stroke-width="4" stroke-miterlimit="10"/>
<path d="M78.3356 175.986C78.3356 175.986 83.9179 173.694 85.5519 179.182" stroke="#66B3AF" stroke-width="4" stroke-miterlimit="10"/>
<path d="M307.913 219.749L315.303 204.578" stroke="#856597" stroke-width="6" stroke-miterlimit="10"/>
<path d="M299.092 224.062L307.953 206.632" stroke="#856597" stroke-width="6" stroke-miterlimit="10"/>
<path d="M346.137 223.241L339.607 195.998" stroke="#655482" stroke-width="6" stroke-miterlimit="10"/>
<path d="M342.986 227.759L339.626 214.204" stroke="#655482" stroke-width="6" stroke-miterlimit="10"/>
<path d="M361.678 187.095L353.277 167.174" stroke="#4C3E60" stroke-width="6" stroke-miterlimit="10"/>
<path d="M355.905 184.899L348.342 164.851" stroke="#4C3E60" stroke-width="6" stroke-miterlimit="10"/>
<path d="M363.148 204.141C363.148 204.141 363.148 205.579 361.678 207.016C361.678 207.016 361.048 208.659 363.148 208.043C363.148 208.043 364.408 206.4 364.618 204.552C364.618 204.552 364.408 203.114 363.148 203.936C361.888 204.757 363.148 204.141 363.148 204.141Z" fill="#4CB6C6"/>
<path d="M366.508 201.676C366.885 202.088 367.142 202.591 367.253 203.133C367.364 203.674 367.324 204.235 367.139 204.757C367.139 204.757 366.929 205.784 365.458 205.168L361.468 204.552C361.468 204.552 360.628 204.141 361.048 203.114C361.048 203.114 364.618 198.185 366.508 201.676Z" fill="#E85566"/>
<path d="M360.838 203.114C360.838 203.114 360.989 204.911 361.964 204.628L365.761 205.277C365.761 205.277 366.861 205.893 367.315 204.196L360.838 203.114Z" fill="#EE8F86"/>
<path d="M356.152 199.662C356.152 199.662 355.176 201.839 356.423 204.971C356.423 204.971 356.259 207.868 353.5 205.57C353.5 205.57 352.708 202.262 353.647 199.327C353.647 199.327 354.943 197.288 356.293 199.352C357.644 201.416 356.152 199.662 356.152 199.662Z" fill="#4CB6C6"/>
<path d="M352.748 193.745C351.897 194.123 351.166 194.717 350.63 195.466C350.093 196.214 349.772 197.089 349.698 198C349.698 198 349.318 199.69 351.963 199.713L358.425 201.377C358.425 201.377 359.975 201.301 360.038 199.473C360.038 199.473 357.984 189.689 352.748 193.745Z" fill="#E55990"/>
<path d="M360.353 199.608C360.353 199.608 358.904 202.231 357.623 201.169L351.433 199.682C351.433 199.682 349.348 199.9 349.816 197.035L360.353 199.608Z" fill="#EE8F86"/>
<g filter="url(#filter0_i_5_503)">
<path d="M415.633 220.42C411.45 217.498 405.898 218.074 403.239 221.71C403.1 221.898 402.974 222.093 402.856 222.292C401.792 220.893 400.51 219.664 399.058 218.651C392.034 213.742 382.604 214.755 377.449 220.763C377.264 220.613 377.073 220.467 376.873 220.328C373.269 217.808 368.647 217.892 365.74 220.289C364.717 219.774 363.643 219.361 362.534 219.059C362.255 218.814 361.961 218.584 361.656 218.37C357.474 215.446 351.922 216.024 349.262 219.657C349.124 219.846 348.998 220.041 348.88 220.24C347.815 218.84 346.533 217.611 345.08 216.598C338.057 211.69 328.628 212.702 323.472 218.71C323.288 218.56 323.097 218.415 322.897 218.275C318.715 215.354 313.165 215.93 310.503 219.563C310.438 219.651 310.379 219.739 310.318 219.828C303.607 215.632 295.002 216.567 289.942 221.903C288.309 220.825 286.384 220.244 284.413 220.234C281.44 219.823 278.487 220.791 276.685 223.034C275.782 222.021 274.758 221.117 273.634 220.342C267.122 215.788 258.537 216.325 253.214 221.23L253.117 221.181C246.786 218.117 237.304 217.968 231.411 220.74C231.245 220.648 231.075 220.557 230.897 220.471C229.185 219.683 227.338 219.215 225.45 219.091C218.679 215.46 210.337 216.754 205.603 222.28C205.418 222.13 205.227 221.985 205.027 221.845C201.126 219.12 196.038 219.438 193.207 222.442C186.193 217.601 176.821 218.62 171.687 224.613C171.501 224.461 171.311 224.316 171.112 224.176C168.24 222.169 164.724 221.812 161.938 222.963C161.552 222.589 161.135 222.246 160.693 221.937C156.512 219.014 150.96 219.59 148.299 223.225C148.16 223.414 148.034 223.608 147.916 223.807C146.849 222.405 145.564 221.173 144.108 220.158C137.085 215.249 127.656 216.262 122.501 222.27C122.316 222.12 122.125 221.974 121.925 221.835C117.743 218.913 112.191 219.489 109.531 223.123C108.9 223.987 108.47 224.976 108.271 226.02C105.483 226.253 102.847 226.873 100.694 227.888C100.528 227.795 100.358 227.705 100.179 227.619C98.3116 226.717 96.0008 226.237 93.7657 226.184C93.3052 223.693 91.8537 221.482 89.7283 220.033C85.5459 217.111 79.9938 217.687 77.3344 221.32C77.1957 221.511 77.0697 221.706 76.9521 221.903C75.8871 220.504 74.6058 219.275 73.1541 218.261C66.1295 213.354 56.6996 214.365 51.5467 220.375C51.3598 220.225 51.1686 220.078 50.9712 219.938C47.7677 217.701 43.7659 217.517 40.867 219.184C40.5875 218.851 40.2909 218.533 39.9784 218.23C35.6343 214.023 30.0801 214.568 27.5698 219.444C27.4396 219.698 27.322 219.961 27.2127 220.229C26.1331 218.332 24.79 216.59 23.2215 215.052C15.9259 207.987 6.49185 208.944 1.58472 216.988C1.39146 216.772 1.1919 216.563 0.986034 216.362C-3.35812 212.155 -8.91436 212.7 -11.4225 217.578C-13.7837 222.165 -12.6094 228.95 -8.84924 233.241L-6.64775 233.307V266.574H396.678V232.616L418.315 232.384L418.384 232.296C421.044 228.659 419.815 223.344 415.633 220.42Z" fill="#2E305D"/>
</g>
<rect x="-6.55261" y="260.824" width="403.869" height="83.1761" fill="#2E315D"/>
<defs>
<filter id="filter0_i_5_503" x="-12.6432" y="210.302" width="432.432" height="132.272" filterUnits="userSpaceOnUse" color-interpolation-filters="sRGB">
<feFlood flood-opacity="0" result="BackgroundImageFix"/>
<feBlend mode="normal" in="SourceGraphic" in2="BackgroundImageFix" result="shape"/>
<feColorMatrix in="SourceAlpha" type="matrix" values="0 0 0 0 0 0 0 0 0 0 0 0 0 0 0 0 0 0 127 0" result="hardAlpha"/>
<feOffset dy="101"/>
<feGaussianBlur stdDeviation="38"/>
<feComposite in2="hardAlpha" operator="arithmetic" k2="-1" k3="1"/>
<feColorMatrix type="matrix" values="0 0 0 0 0.180392 0 0 0 0 0.192157 0 0 0 0 0.364706 0 0 0 0.7 0"/>
<feBlend mode="overlay" in2="shape" result="effect1_innerShadow_5_503"/>
</filter>
</defs>
</svg>
