<svg width="447" height="521" viewBox="0 0 447 521" fill="none" xmlns="http://www.w3.org/2000/svg">
<g clip-path="url(#clip0_376_242)">
<path d="M198.99 440.245L175.122 335.738C175.028 335.329 175.215 334.891 175.475 334.891H235.914C236.174 334.891 236.351 335.329 236.258 335.738L212.4 440.245C210.071 450.432 201.318 450.432 198.99 440.245Z" fill="#CCB7A5"/>
<path d="M236.258 335.738L212.399 440.245C211.235 445.344 208.46 447.893 205.694 447.883V334.929H235.914C236.174 334.929 236.361 335.329 236.258 335.738Z" fill="#7D572E"/>
<path d="M263.339 446.348L216.143 335.012C216.099 334.904 216.084 334.786 216.099 334.67C216.114 334.554 216.159 334.444 216.229 334.35C216.3 334.256 216.393 334.183 216.5 334.136C216.607 334.089 216.725 334.07 216.842 334.082H336.34C336.457 334.067 336.576 334.084 336.685 334.13C336.793 334.176 336.888 334.25 336.959 334.345C337.03 334.439 337.074 334.551 337.088 334.668C337.102 334.785 337.085 334.904 337.038 335.012L289.842 446.348C285.242 457.205 267.939 457.205 263.339 446.348Z" fill="#714E29"/>
<path d="M337.038 335.012L289.852 446.348C287.551 451.781 282.066 454.498 276.591 454.489V334.119H336.349C336.461 334.11 336.573 334.128 336.676 334.173C336.779 334.218 336.869 334.289 336.938 334.378C337.006 334.467 337.052 334.571 337.069 334.682C337.087 334.793 337.076 334.907 337.038 335.012Z" fill="#49301C"/>
<path d="M225.446 455.949L201.578 334.929C201.485 334.463 201.672 333.998 201.932 333.998H262.361C262.631 333.998 262.808 334.501 262.715 334.929L238.856 455.949C236.528 467.746 227.774 467.746 225.446 455.949Z" fill="#49301C"/>
<path d="M262.715 334.929L238.856 455.949C237.692 461.857 234.917 464.807 232.151 464.797V333.998H262.37C262.613 333.998 262.817 334.454 262.715 334.929Z" fill="#876036"/>
<path d="M146.402 480.064L109.152 334.677C109.003 334.11 109.292 333.505 109.701 333.505H204.009C204.419 333.505 204.698 334.11 204.558 334.677L167.318 480.064C163.686 494.243 150.034 494.243 146.402 480.064Z" fill="#714E29"/>
<path d="M204.558 334.64L167.318 480.064C165.502 487.154 161.171 490.698 156.86 490.689V333.477H204.009C204.409 333.477 204.707 334.073 204.558 334.64Z" fill="#49301C"/>
<path d="M105.529 439.38L66.1747 334.929C66.1406 334.834 66.1296 334.732 66.1427 334.632C66.1558 334.533 66.1925 334.437 66.2499 334.355C66.3073 334.272 66.3837 334.204 66.4726 334.156C66.5616 334.109 66.6606 334.083 66.7614 334.082H166.405C166.506 334.083 166.605 334.109 166.694 334.156C166.783 334.204 166.859 334.272 166.917 334.355C166.974 334.437 167.011 334.533 167.024 334.632C167.037 334.732 167.026 334.834 166.992 334.929L127.581 439.38C126.737 441.625 125.227 443.559 123.254 444.924C121.28 446.289 118.937 447.02 116.537 447.02C114.136 447.02 111.793 446.289 109.82 444.924C107.846 443.559 106.337 441.625 105.492 439.38" fill="#714E29"/>
<path d="M166.973 334.873L127.628 439.38C126.807 441.641 125.301 443.592 123.321 444.961C121.34 446.329 118.982 447.048 116.574 447.018V333.998H166.396C166.501 333.995 166.605 334.018 166.699 334.066C166.792 334.115 166.872 334.186 166.93 334.274C166.988 334.362 167.022 334.463 167.03 334.568C167.037 334.672 167.018 334.778 166.973 334.873Z" fill="#49301C"/>
<path d="M363.97 411.571L340.102 334.575C340.077 334.512 340.067 334.444 340.073 334.376C340.078 334.308 340.098 334.242 340.132 334.184C340.166 334.125 340.213 334.074 340.269 334.036C340.325 333.997 340.389 333.972 340.456 333.961H400.884C400.952 333.97 401.017 333.995 401.074 334.033C401.131 334.071 401.179 334.121 401.213 334.181C401.247 334.24 401.267 334.307 401.272 334.375C401.276 334.443 401.265 334.512 401.238 334.575L377.37 411.571C375.042 419.07 366.298 419.07 363.97 411.571Z" fill="#A87349"/>
<path d="M401.238 334.575L377.37 411.571C376.216 415.293 373.441 417.2 370.675 417.2V333.998H400.894C400.956 334.011 401.014 334.037 401.066 334.073C401.117 334.11 401.161 334.157 401.193 334.211C401.225 334.265 401.246 334.326 401.254 334.388C401.262 334.451 401.256 334.515 401.238 334.575Z" fill="#EBCEBB"/>
<path d="M188.234 427.248L230.14 333.905C230.182 333.811 230.199 333.707 230.191 333.604C230.182 333.501 230.149 333.402 230.092 333.315C230.036 333.228 229.959 333.157 229.868 333.107C229.777 333.057 229.675 333.031 229.572 333.031H130.058C129.955 333.031 129.853 333.057 129.762 333.107C129.671 333.157 129.594 333.228 129.538 333.315C129.482 333.402 129.448 333.501 129.439 333.604C129.431 333.707 129.449 333.811 129.49 333.905L171.397 427.248C172.124 428.872 173.307 430.251 174.801 431.218C176.296 432.186 178.039 432.701 179.82 432.701C181.601 432.701 183.344 432.186 184.838 431.218C186.333 430.251 187.515 428.872 188.243 427.248" fill="#876036"/>
<path d="M180.29 333.068V432.7C182.075 432.714 183.824 432.205 185.322 431.236C186.82 430.267 188 428.88 188.718 427.248L230.624 333.905C230.659 333.81 230.67 333.707 230.656 333.606C230.642 333.505 230.604 333.409 230.544 333.326C230.484 333.243 230.405 333.177 230.314 333.132C230.222 333.087 230.121 333.065 230.019 333.068H180.29Z" fill="#714C2C"/>
<path d="M316.28 428.336L274.374 334.994C274.332 334.899 274.315 334.795 274.323 334.692C274.332 334.589 274.365 334.49 274.422 334.403C274.478 334.316 274.555 334.245 274.646 334.195C274.737 334.146 274.839 334.12 274.942 334.119H374.456C374.559 334.12 374.661 334.146 374.752 334.195C374.843 334.245 374.92 334.316 374.976 334.403C375.032 334.49 375.066 334.589 375.075 334.692C375.083 334.795 375.065 334.899 375.024 334.994L333.117 428.336C332.39 429.96 331.207 431.339 329.713 432.307C328.218 433.274 326.475 433.789 324.694 433.789C322.913 433.789 321.17 433.274 319.676 432.307C318.181 431.339 316.999 429.96 316.271 428.336" fill="#714E29"/>
<path d="M324.224 334.119V433.788C322.44 433.802 320.69 433.293 319.192 432.324C317.694 431.355 316.514 429.969 315.796 428.336L273.89 334.994C273.848 334.899 273.831 334.795 273.839 334.692C273.847 334.589 273.881 334.49 273.938 334.403C273.994 334.316 274.071 334.245 274.162 334.195C274.253 334.146 274.354 334.12 274.458 334.119H324.224Z" fill="#876036"/>
<path d="M69.7413 396.723L41.8038 334.389C41.7738 334.326 41.7603 334.257 41.7644 334.188C41.7685 334.118 41.7903 334.051 41.8275 333.993C41.8648 333.934 41.9163 333.886 41.9773 333.853C42.0384 333.819 42.1069 333.802 42.1764 333.803H108.602C108.672 333.803 108.74 333.821 108.801 333.854C108.862 333.887 108.914 333.935 108.951 333.993C108.989 334.051 109.012 334.118 109.018 334.187C109.024 334.256 109.012 334.325 108.984 334.389L81.0467 396.723C80.5601 397.806 79.7702 398.726 78.7723 399.372C77.7743 400.017 76.6108 400.361 75.422 400.361C74.2331 400.361 73.0697 400.017 72.0717 399.372C71.0737 398.726 70.2838 397.806 69.7972 396.723" fill="#A87349"/>
<path d="M75.0401 333.831V400.36C73.8558 400.361 72.6968 400.018 71.7046 399.372C70.7124 398.726 69.9299 397.806 69.4526 396.723L41.5151 334.389C41.4873 334.325 41.4758 334.256 41.4815 334.187C41.4873 334.118 41.5101 334.051 41.5479 333.993C41.5858 333.935 41.6375 333.887 41.6984 333.854C41.7593 333.821 41.8275 333.803 41.8969 333.803L75.0401 333.831Z" fill="#EBCEBB"/>
<path d="M414 325H33V321.029C33.0099 317.308 34.4023 313.743 36.8727 311.113C39.3431 308.484 42.6901 307.005 46.1813 307H400.8C404.301 307 407.658 308.482 410.134 311.121C412.609 313.759 414 317.337 414 321.068V325Z" fill="#2EC635"/>
<path d="M413.95 324.536H33.0687C33.0786 327.046 34.0821 329.45 35.8601 331.223C37.6381 332.995 40.0461 333.993 42.5582 333.998H404.442C406.964 333.998 409.382 332.997 411.165 331.216C412.948 329.435 413.95 327.019 413.95 324.499" fill="#316831"/>
<path d="M277.82 252.629L277.689 252.731C273.339 256.031 268.3 258.308 262.948 259.393C258.387 260.408 253.748 261.031 249.081 261.254C247.023 261.374 244.863 261.43 242.619 261.44C239.534 261.928 236.425 262.254 233.306 262.416C230.941 262.547 228.454 262.612 225.856 262.612H182.525V252.629H143.934V278.902C143.934 286.122 150.229 292.02 157.903 292.02H229.143C235.28 292.04 241.414 291.729 247.517 291.09C248.346 291.006 249.165 290.913 249.985 290.802C254.157 290.309 258.198 289.62 262.091 288.792C271.447 286.921 280.351 283.259 288.315 278.009C295.86 272.838 301.893 265.754 305.795 257.486C306.549 255.951 307.21 254.313 307.834 252.638L277.82 252.629Z" fill="#316831"/>
<path d="M293.595 191.123C283.1 173.819 265.835 167.511 259.754 165.604H259.679C266.973 161.314 272.896 155.042 276.758 147.518C281.414 138.425 283.746 126.919 283.752 113.001C283.752 100.876 281.986 90.6045 278.453 82.1879C274.921 73.7712 269.951 67.0882 263.544 62.1387C256.709 57.0011 248.884 53.3329 240.561 51.3651C230.9 49.0333 220.988 47.9021 211.049 47.9972C206.083 47.9972 200.836 48.1585 195.311 48.481H195.255C189.922 48.7849 184.316 49.2408 178.437 49.8486C171.161 50.5929 164.331 51.483 157.949 52.5188C156.749 52.5281 155.558 52.7259 154.42 53.1049C153.489 53.4336 152.606 53.8841 151.794 54.4446C150.012 55.6662 148.56 57.3081 147.566 59.2248C146.572 61.1414 146.066 63.2736 146.095 65.4321V280.242C146.104 283.671 147.474 286.955 149.904 289.376C152.334 291.796 155.626 293.156 159.058 293.156H224.999C230.684 293.165 236.364 292.854 242.013 292.225C242.777 292.142 243.541 292.049 244.286 291.946C248.15 291.453 251.894 290.783 255.507 289.965C264.228 288.091 272.482 284.481 279.775 279.349C286.847 274.144 292.428 267.176 295.961 259.142C299.89 250.607 301.858 239.942 301.865 227.147C301.865 216.987 301.511 204.139 293.595 191.114M201.336 76.8104C203.36 76.5561 205.555 76.3359 207.92 76.1498C213.713 75.7033 219.3 75.48 224.683 75.48C230.942 75.3848 237.191 76.0092 243.308 77.3407C248.017 78.3335 252.409 80.4714 256.094 83.5648C259.576 86.7676 262.146 90.8348 263.544 95.3524C265.189 100.314 266.018 106.827 266.03 114.89C266.03 122.742 265.239 129.19 263.693 134.251C262.453 138.78 260.041 142.903 256.699 146.206C253.479 149.18 249.504 151.217 245.207 152.095C241.705 152.859 238.144 153.332 234.563 153.509C232.896 153.602 231.164 153.649 229.358 153.649H228.752C225.859 154.17 222.935 154.506 219.999 154.653C218.322 154.746 216.59 154.793 214.784 154.793H179.051V79.3131C183.761 78.2747 188.543 77.5998 193.355 77.2942C196.056 77.0802 198.71 76.922 201.336 76.8104ZM277.838 242.181C276.419 246.947 273.674 251.212 269.923 254.481C265.946 257.7 261.271 259.946 256.271 261.04C252.058 262.045 247.763 262.667 243.438 262.9C241.529 263.012 239.536 263.068 237.459 263.087C234.61 263.553 231.738 263.863 228.855 264.017C226.666 264.147 224.357 264.212 221.963 264.212H181.864V182.704H196.438V181.559H224.077C232.302 181.493 240.522 181.943 248.69 182.908C254.9 183.579 260.915 185.477 266.384 188.49C271.234 191.325 274.977 195.721 277 200.957C279.248 206.453 280.371 213.694 280.371 222.681C280.371 230.546 279.527 237.058 277.838 242.219" fill="#634A2B"/>
<path d="M280.371 222.653C280.371 230.518 279.527 237.03 277.838 242.191C276.419 246.956 273.674 251.221 269.923 254.49C265.946 257.709 261.271 259.955 256.271 261.049C252.059 262.058 247.763 262.681 243.438 262.91C241.529 263.021 239.536 263.077 237.459 263.096C238.931 262.854 240.346 262.556 241.687 262.23C246.687 261.131 251.362 258.882 255.339 255.662C259.098 252.398 261.847 248.132 263.264 243.363C264.947 238.209 265.788 231.696 265.788 223.825C265.788 214.838 264.664 207.594 262.417 202.092C260.393 196.858 256.65 192.466 251.801 189.635C246.331 186.621 240.317 184.723 234.107 184.053C225.951 183.094 217.743 182.644 209.531 182.703H196.494V181.559H224.133C232.358 181.493 240.578 181.943 248.746 182.908C254.956 183.579 260.971 185.476 266.44 188.49C271.288 191.327 275.03 195.722 277.056 200.957C279.304 206.452 280.427 213.694 280.427 222.681" fill="#634A2B"/>
<path d="M266.021 114.89C266.021 122.742 265.229 129.189 263.683 134.251C262.443 138.78 260.031 142.903 256.69 146.206C253.472 149.178 249.501 151.215 245.207 152.095C241.704 152.858 238.144 153.331 234.563 153.509C232.906 153.602 231.164 153.649 229.358 153.649H228.752C229.386 153.537 230.019 153.407 230.615 153.276C234.921 152.387 238.901 150.337 242.125 147.35C245.464 144.043 247.873 139.917 249.109 135.386C250.674 130.331 251.453 123.877 251.447 116.025C251.447 107.962 250.618 101.449 248.96 96.4874C247.573 91.965 245.001 87.8954 241.51 84.6998C237.842 81.601 233.462 79.4593 228.762 78.4664C222.645 77.1337 216.396 76.5093 210.137 76.6057C207.259 76.6057 204.326 76.6801 201.346 76.801C203.376 76.5498 205.564 76.3265 207.93 76.1405C213.722 75.6939 219.309 75.4706 224.692 75.4706C230.951 75.3755 237.201 75.9998 243.317 77.3313C248.025 78.3265 252.413 80.4677 256.094 83.5647C259.574 86.769 262.144 90.8356 263.544 95.3524C265.201 100.314 266.03 106.827 266.03 114.89" fill="#634A2B"/>
<path d="M193.635 78.1499C196.837 77.3216 200.106 76.7798 203.404 76.5311C206.495 76.3264 212.046 76.6055 212.046 76.6055C212.046 76.6055 206.458 76.6055 205.043 76.7171C203.627 76.8288 201.448 77.0148 200.507 77.1265C199.567 77.2381 198.347 77.4707 197.881 77.5917C197.416 77.7126 196.224 77.9266 196.019 77.9731C195.814 78.0196 195.088 78.1871 194.976 78.1964C194.864 78.2057 194.389 78.308 194.277 78.3359L193.616 78.4755L193.635 78.1499Z" fill="#634A2B"/>
<path d="M308.179 189.979C297.665 172.674 280.418 166.367 274.328 164.459H274.253C281.547 160.17 287.471 153.898 291.332 146.373C295.988 137.287 298.317 125.781 298.317 111.857C298.317 99.725 296.557 89.4508 293.036 81.0341C289.922 73.1631 284.782 66.2533 278.136 61.0036C271.303 55.8723 263.481 52.2075 255.162 50.2393C245.499 47.9042 235.584 46.7699 225.642 46.8621C216.534 46.8621 206.43 47.4048 195.33 48.4903H195.274L193.039 48.7228C185.766 49.4578 178.949 50.3603 172.551 51.3837C171.354 51.4 170.167 51.6008 169.031 51.9791C168.087 52.2996 167.191 52.7472 166.368 53.3095C164.59 54.5365 163.142 56.1811 162.149 58.0986C161.157 60.0162 160.652 62.1479 160.678 64.3063V279.107C160.69 282.531 162.058 285.812 164.484 288.231C166.909 290.651 170.195 292.013 173.622 292.021H239.564C241.147 292.021 242.721 292.021 244.267 291.955C248.501 291.838 252.602 291.552 256.569 291.1C261.109 290.6 265.618 289.842 270.072 288.829C278.805 286.954 287.066 283.33 294.359 278.177C301.43 272.971 307.011 266.004 310.544 257.969C314.474 249.435 316.442 238.773 316.448 225.984C316.448 215.824 316.094 202.976 308.179 189.942M193.635 153.574V78.15C196.176 77.5584 198.747 77.1019 201.336 76.7824C203.36 76.5281 205.555 76.3079 207.92 76.1219C213.713 75.6753 219.3 75.452 224.683 75.452C230.942 75.3568 237.191 75.9812 243.308 77.3127C248.02 78.3137 252.412 80.4613 256.094 83.5647C259.574 86.769 262.144 90.8356 263.544 95.3523C265.189 100.314 266.018 106.827 266.03 114.89C266.03 122.742 265.239 129.189 263.693 134.251C262.453 138.78 260.041 142.903 256.699 146.206C253.479 149.18 249.504 151.217 245.207 152.095C241.705 152.859 238.144 153.332 234.563 153.509C232.896 153.602 231.164 153.649 229.358 153.649L193.635 153.574ZM243.438 262.826C241.529 262.938 239.536 262.993 237.459 263.012H196.438V181.513H224.077C232.302 181.446 240.522 181.897 248.69 182.862C254.9 183.533 260.915 185.43 266.384 188.444C271.234 191.279 274.977 195.674 277 200.911C279.248 206.406 280.371 213.647 280.371 222.635C280.371 230.499 279.527 237.012 277.838 242.172C276.418 246.938 273.674 251.203 269.923 254.471C265.946 257.69 261.271 259.936 256.271 261.03C252.058 262.035 247.763 262.658 243.438 262.891" fill="#33CC3A"/>
<path d="M269.429 53.8212C269.429 53.8212 271.087 52.9932 271.189 48.9834C271.292 44.9735 273.983 50.5557 273.983 50.5557C274.677 51.6472 275.003 52.9315 274.914 54.2213C274.616 55.961 274.914 55.1516 274.914 55.1516C274.914 55.1516 279.282 54.5097 280.12 50.5836C280.958 46.6575 282.057 51.2813 282.057 51.2813C282.057 51.2813 282.411 53.3746 281.265 57.6264C280.12 61.8781 280.483 59.7848 280.483 59.7848C280.483 59.7848 283.398 56.6309 287.198 57.7659C290.997 58.901 290.448 59.1708 290.448 59.1708C290.448 59.1708 291.118 59.515 290.448 59.7755C289.777 60.036 289.181 59.5987 288.194 60.4081C287.482 60.9169 286.818 61.4899 286.21 62.12C283.761 64.3342 284.348 64.7901 283.417 66.3903C282.485 67.9906 268.172 55.2261 268.172 55.2261L269.429 53.8212Z" fill="#33CC3A"/>
<path d="M127.693 308.19H44.3368C52.867 293.546 83.0023 245.614 127.144 245.614L127.693 308.19Z" fill="#3E8E34"/>
<path d="M210.015 308.19H127.693L127.144 245.614C127.861 245.614 128.596 245.614 129.332 245.614C172.002 247.131 201.029 292.793 210.015 308.19Z" fill="#385E03"/>
<path d="M325 240V307.226L251 307.226C254.616 270.945 283.588 243.167 318.125 240.04C320.41 239.827 322.705 239.958 325 240Z" fill="#DE9251"/>
<path d="M398 307.237H361.5H325V240C360.65 240.288 393.186 268.445 398 307.237Z" fill="#CF690E"/>
<path d="M216.199 279.507V308.19H133.318C141.895 301.482 172.058 279.507 216.199 279.507Z" fill="#84CD66"/>
<path d="M299.034 308.19H216.152V279.507C216.869 279.507 217.586 279.507 218.294 279.507C261.02 280.205 290.047 301.138 299.034 308.19Z" fill="#1B8F08"/>
<path d="M197.583 242.628H197.574C191.649 242.628 186.846 247.426 186.846 253.346V277.144C186.846 283.063 191.649 287.862 197.574 287.862H197.583C203.508 287.862 208.311 283.063 208.311 277.144V253.346C208.311 247.426 203.508 242.628 197.583 242.628Z" fill="#24521D"/>
<path d="M185.896 269.19C185.896 266.528 183.736 264.37 181.072 264.37C178.408 264.37 176.248 266.528 176.248 269.19V280.261C176.248 282.922 178.408 285.08 181.072 285.08C183.736 285.08 185.896 282.922 185.896 280.261V269.19Z" fill="#24521D"/>
<path d="M184.387 274.502V289.62C184.387 289.62 184.387 293.593 187.181 294.56C187.181 294.56 190.189 294.84 190.655 298.766V309.307H193.197V298.859C193.197 298.859 193.262 295.24 191.176 293.956L188.494 292.467C188.494 292.467 187.181 292.346 186.865 289.602V274.502H184.387Z" fill="#712E76"/>
<path d="M197.965 256.379C197.965 253.717 195.805 251.559 193.141 251.559C190.477 251.559 188.317 253.717 188.317 256.379V267.45C188.317 270.111 190.477 272.269 193.141 272.269C195.805 272.269 197.965 270.111 197.965 267.45V256.379Z" fill="#5C8E16"/>
<path d="M182.795 257.318C182.795 254.657 180.635 252.499 177.971 252.499C175.307 252.499 173.147 254.657 173.147 257.318V268.39C173.147 271.051 175.307 273.209 177.971 273.209C180.635 273.209 182.795 271.051 182.795 268.39V257.318Z" fill="#5C8E16"/>
<path d="M193.644 255.002C193.644 251.251 190.6 248.21 186.846 248.21C183.091 248.21 180.048 251.251 180.048 255.002V273.739C180.048 277.49 183.091 280.531 186.846 280.531C190.6 280.531 193.644 277.49 193.644 273.739V255.002Z" fill="#A1F181"/>
<path d="M194.606 288.531V280H197.521V288.531C197.514 289.368 197.18 290.17 196.59 290.764C195.463 291.695 194.001 290.96 192.865 291.816C192.352 292.197 191.775 293.025 191.794 295.007H189C189 291.788 189.931 290.615 190.713 290.141C192.054 289.313 194.383 289.722 194.643 288.82C194.649 288.722 194.637 288.624 194.606 288.531Z" fill="#712E76"/>
<path d="M203.702 274.725V283.387C203.702 283.387 203.394 285.936 201.42 286.113L197.583 286.336V287.406H201.513C201.513 287.406 204.773 287.583 204.866 283.387V274.725H203.702Z" fill="#712E76"/>
<path d="M179.135 273.209V281.898C179.135 281.898 179.443 284.447 181.417 284.624L185.254 284.848V285.917H181.324C181.324 285.917 178.064 286.094 177.971 281.898V273.237L179.135 273.209Z" fill="#712E76"/>
<path d="M208.6 270.929V276.818C208.6 276.818 208.367 278.549 206.905 278.679L204.055 278.828V279.563H206.97C206.97 279.563 209.391 279.684 209.457 276.828V270.939L208.6 270.929Z" fill="#712E76"/>
<path d="M203.096 267.152H203.087C201.081 267.152 199.455 268.777 199.455 270.78V272.213C199.455 274.217 201.081 275.842 203.087 275.842H203.096C205.102 275.842 206.728 274.217 206.728 272.213V270.78C206.728 268.777 205.102 267.152 203.096 267.152Z" fill="#42DA2B"/>
<path d="M196.783 266.677H196.773C194.767 266.677 193.141 268.302 193.141 270.306V278.167C193.141 280.171 194.767 281.796 196.773 281.796H196.783C198.788 281.796 200.414 280.171 200.414 278.167V270.306C200.414 268.302 198.788 266.677 196.783 266.677Z" fill="#42DA2B"/>
<path d="M215.966 264.324C215.966 262.032 214.107 260.174 211.813 260.174C209.519 260.174 207.659 262.032 207.659 264.324V282.094C207.659 284.385 209.519 286.243 211.813 286.243C214.107 286.243 215.966 284.385 215.966 282.094V264.324Z" fill="#A1F181"/>
<path d="M181.603 264.77C181.603 261.22 178.722 258.342 175.168 258.342C171.614 258.342 168.733 261.22 168.733 264.77V274.641C168.733 278.192 171.614 281.07 175.168 281.07C178.722 281.07 181.603 278.192 181.603 274.641V264.77Z" fill="#A1F181"/>
<path d="M185.133 255.309C185.133 254.882 184.786 254.536 184.36 254.536C183.933 254.536 183.587 254.882 183.587 255.309V261.384C183.587 261.81 183.933 262.156 184.36 262.156C184.786 262.156 185.133 261.81 185.133 261.384V255.309Z" fill="#61B756"/>
<path d="M199.353 271.599C199.353 271.173 199.007 270.827 198.58 270.827C198.153 270.827 197.807 271.173 197.807 271.599V275.441C197.807 275.868 198.153 276.214 198.58 276.214C199.007 276.214 199.353 275.868 199.353 275.441V271.599Z" fill="#35732B"/>
<path d="M192.014 260.305C192.014 259.878 191.668 259.532 191.241 259.532C190.815 259.532 190.469 259.878 190.469 260.305V274.465C190.469 274.891 190.815 275.237 191.241 275.237C191.668 275.237 192.014 274.891 192.014 274.465V260.305Z" fill="#61B756"/>
<path d="M180.69 264.333C180.69 263.907 180.344 263.561 179.917 263.561C179.491 263.561 179.145 263.907 179.145 264.333V272.436C179.145 272.863 179.491 273.209 179.917 273.209C180.344 273.209 180.69 272.863 180.69 272.436V264.333Z" fill="#61B756"/>
<path d="M214.569 269.162C214.569 268.735 214.223 268.389 213.796 268.389C213.369 268.389 213.023 268.735 213.023 269.162V277.265C213.023 277.691 213.369 278.037 213.796 278.037C214.223 278.037 214.569 277.691 214.569 277.265V269.162Z" fill="#61B756"/>
<path d="M211.999 272.641C211.999 272.215 211.653 271.869 211.226 271.869C210.799 271.869 210.453 272.215 210.453 272.641V280.745C210.453 281.171 210.799 281.517 211.226 281.517C211.653 281.517 211.999 281.171 211.999 280.745V272.641Z" fill="#61B756"/>
<path d="M179.917 275.432C180.339 275.432 180.681 275.091 180.681 274.669C180.681 274.248 180.339 273.906 179.917 273.906C179.496 273.906 179.154 274.248 179.154 274.669C179.154 275.091 179.496 275.432 179.917 275.432Z" fill="#61B756"/>
<path d="M198.58 278.484C199.002 278.484 199.343 278.142 199.343 277.721C199.343 277.3 199.002 276.958 198.58 276.958C198.158 276.958 197.816 277.3 197.816 277.721C197.816 278.142 198.158 278.484 198.58 278.484Z" fill="#34732B"/>
<path d="M242.209 286.634H242.218C248.143 286.634 252.946 281.835 252.946 275.916V252.118C252.946 246.198 248.143 241.4 242.218 241.4H242.209C236.284 241.4 231.481 246.198 231.481 252.118V275.916C231.481 281.835 236.284 286.634 242.209 286.634Z" fill="#24521D"/>
<path d="M253.905 279.033C253.905 281.694 256.065 283.852 258.729 283.852C261.393 283.852 263.553 281.694 263.553 279.033V267.962C263.553 265.3 261.393 263.142 258.729 263.142C256.065 263.142 253.905 265.3 253.905 267.962V279.033Z" fill="#24521D"/>
<path d="M255.442 273.264V288.411C255.442 288.411 255.395 292.383 252.648 293.351C252.648 293.351 249.64 293.63 249.175 297.556V308.097H246.632V297.621C246.632 297.621 246.576 294.002 248.653 292.718L251.335 291.23C251.335 291.23 252.648 291.109 252.974 288.364V273.264H255.442Z" fill="#712E76"/>
<path d="M241.827 266.212C241.827 268.874 243.987 271.032 246.651 271.032C249.315 271.032 251.475 268.874 251.475 266.212V255.141C251.475 252.48 249.315 250.322 246.651 250.322C243.987 250.322 241.827 252.48 241.827 255.141V266.212Z" fill="#5C8E16"/>
<path d="M257.006 267.152C257.006 269.814 259.166 271.971 261.83 271.971C264.494 271.971 266.654 269.814 266.654 267.152V256.081C266.654 253.419 264.494 251.261 261.83 251.261C259.166 251.261 257.006 253.419 257.006 256.081V267.152Z" fill="#5C8E16"/>
<path d="M246.148 272.502C246.148 276.252 249.192 279.293 252.946 279.293C256.701 279.293 259.744 276.252 259.744 272.502V253.764C259.744 250.013 256.701 246.973 252.946 246.973C249.192 246.973 246.148 250.013 246.148 253.764V272.502Z" fill="#42DA2B"/>
<path d="M244.877 287.531V279H242V287.531C242.004 288.369 242.339 289.171 242.931 289.764C244.049 290.695 245.511 289.96 246.656 290.816C247.168 291.197 247.755 292.025 247.727 294.007H250.521C250.521 290.788 249.59 289.615 248.817 289.141C247.466 288.313 245.138 288.722 244.887 287.82C244.861 287.726 244.858 287.627 244.877 287.531Z" fill="#712E76"/>
<path d="M236.091 273.525V282.187C236.091 282.187 236.407 284.736 238.372 284.912L242.218 285.136V286.206H238.279C238.279 286.206 235.02 286.382 234.927 282.187V273.525H236.091Z" fill="#712E76"/>
<path d="M260.666 271.971V280.633C260.666 280.633 260.35 283.182 258.385 283.359L254.539 283.582V284.689H258.468C258.468 284.689 261.737 284.866 261.821 280.67V272.008L260.666 271.971Z" fill="#712E76"/>
<path d="M231.239 269.692V275.581C231.239 275.581 231.471 277.312 232.924 277.442L235.783 277.591V278.326H232.859C232.859 278.326 230.438 278.447 230.373 275.59V269.701L231.239 269.692Z" fill="#712E76"/>
<path d="M236.705 274.604H236.714C238.72 274.604 240.346 272.98 240.346 270.976V269.543C240.346 267.539 238.72 265.915 236.714 265.915H236.705C234.699 265.915 233.073 267.539 233.073 269.543V270.976C233.073 272.98 234.699 274.604 236.705 274.604Z" fill="#42DA2B"/>
<path d="M243.01 280.559H243.019C245.025 280.559 246.651 278.934 246.651 276.93V269.069C246.651 267.065 245.025 265.44 243.019 265.44H243.01C241.004 265.44 239.378 267.065 239.378 269.069V276.93C239.378 278.934 241.004 280.559 243.01 280.559Z" fill="#42DA2B"/>
<path d="M223.826 280.866C223.826 283.157 225.686 285.015 227.979 285.015C230.273 285.015 232.133 283.157 232.133 280.866V263.096C232.133 260.804 230.273 258.946 227.979 258.946C225.686 258.946 223.826 260.804 223.826 263.096V280.866Z" fill="#A1F181"/>
<path d="M258.189 273.404C258.189 276.955 261.07 279.833 264.624 279.833C268.178 279.833 271.059 276.955 271.059 273.404V263.533C271.059 259.982 268.178 257.104 264.624 257.104C261.07 257.104 258.189 259.982 258.189 263.533V273.404Z" fill="#A1F181"/>
<path d="M254.669 260.147C254.669 260.573 255.015 260.919 255.442 260.919C255.869 260.919 256.215 260.573 256.215 260.147V254.071C256.215 253.645 255.869 253.299 255.442 253.299C255.015 253.299 254.669 253.645 254.669 254.071V260.147Z" fill="#34732B"/>
<path d="M240.44 274.213C240.44 274.64 240.786 274.986 241.212 274.986C241.639 274.986 241.985 274.64 241.985 274.213V270.371C241.985 269.945 241.639 269.599 241.212 269.599C240.786 269.599 240.44 269.945 240.44 270.371V274.213Z" fill="#34732B"/>
<path d="M247.787 273.237C247.787 273.663 248.133 274.009 248.56 274.009C248.987 274.009 249.333 273.663 249.333 273.237V259.077C249.333 258.65 248.987 258.304 248.56 258.304C248.133 258.304 247.787 258.65 247.787 259.077V273.237Z" fill="#34732B"/>
<path d="M259.102 271.208C259.102 271.635 259.448 271.98 259.875 271.98C260.301 271.98 260.647 271.635 260.647 271.208V263.105C260.647 262.678 260.301 262.333 259.875 262.333C259.448 262.333 259.102 262.678 259.102 263.105V271.208Z" fill="#61B756"/>
<path d="M225.223 276.028C225.223 276.454 225.569 276.8 225.996 276.8C226.423 276.8 226.769 276.454 226.769 276.028V267.924C226.769 267.498 226.423 267.152 225.996 267.152C225.569 267.152 225.223 267.498 225.223 267.924V276.028Z" fill="#61B756"/>
<path d="M227.793 279.507C227.793 279.934 228.139 280.279 228.566 280.279C228.993 280.279 229.339 279.934 229.339 279.507V271.404C229.339 270.977 228.993 270.631 228.566 270.631C228.139 270.631 227.793 270.977 227.793 271.404V279.507Z" fill="#61B756"/>
<path d="M259.884 274.195C260.306 274.195 260.648 273.853 260.648 273.432C260.648 273.011 260.306 272.669 259.884 272.669C259.462 272.669 259.12 273.011 259.12 273.432C259.12 273.853 259.462 274.195 259.884 274.195Z" fill="#61B756"/>
<path d="M241.222 277.247C241.643 277.247 241.985 276.905 241.985 276.484C241.985 276.062 241.643 275.721 241.222 275.721C240.8 275.721 240.458 276.062 240.458 276.484C240.458 276.905 240.8 277.247 241.222 277.247Z" fill="#34732B"/>
<path d="M223.354 277.787C223.354 274.591 220.76 272 217.561 272C214.362 272 211.769 274.591 211.769 277.787V290.616C211.769 293.812 214.362 296.403 217.561 296.403C220.76 296.403 223.354 293.812 223.354 290.616V277.787Z" fill="#24521D"/>
<path d="M211.257 286.337C211.257 284.898 210.091 283.732 208.654 283.732C207.216 283.732 206.051 284.898 206.051 286.337V292.301C206.051 293.739 207.216 294.906 208.654 294.906C210.091 294.906 211.257 293.739 211.257 292.301V286.337Z" fill="#24521D"/>
<path d="M210.428 289.193V297.343C210.428 297.343 210.428 299.492 211.927 300.013C212.455 300.113 212.93 300.396 213.271 300.811C213.611 301.226 213.795 301.747 213.79 302.283V308.156H215.159V302.33C215.159 302.33 215.159 300.376 214.069 299.688L212.616 298.887C212.616 298.887 211.918 298.822 211.741 297.343V289.193H210.428Z" fill="#712E76"/>
<path d="M217.766 279.415C217.766 277.976 216.601 276.81 215.163 276.81C213.726 276.81 212.561 277.976 212.561 279.415V285.379C212.561 286.817 213.726 287.984 215.163 287.984C216.601 287.984 217.766 286.817 217.766 285.379V279.415Z" fill="#5C8E16"/>
<path d="M209.58 279.927C209.58 278.488 208.415 277.322 206.978 277.322C205.54 277.322 204.375 278.488 204.375 279.927V285.89C204.375 287.329 205.54 288.495 206.978 288.495C208.415 288.495 209.58 287.329 209.58 285.89V279.927Z" fill="#5C8E16"/>
<path d="M215.438 278.671C215.438 276.646 213.795 275.005 211.769 275.005C209.743 275.005 208.1 276.646 208.1 278.671V288.774C208.1 290.799 209.743 292.44 211.769 292.44C213.795 292.44 215.438 290.799 215.438 288.774V278.671Z" fill="#42DA2B"/>
<path d="M216.045 296.652V292H217.591V296.652C217.593 296.875 217.549 297.097 217.463 297.303C217.376 297.51 217.249 297.696 217.088 297.852C216.483 298.364 215.701 297.954 215.086 298.419C214.807 298.624 214.499 299.071 214.509 300.141H213C213 298.401 213.494 297.778 213.931 297.517C214.658 297.07 215.915 297.294 216.045 296.801C216.054 296.751 216.054 296.701 216.045 296.652Z" fill="#712E76"/>
<path d="M220.876 289.314V293.966C220.876 293.966 220.709 295.343 219.647 295.436L217.571 295.557V296.133H219.694C219.694 296.133 221.454 296.236 221.5 293.966V289.314H220.876Z" fill="#712E76"/>
<path d="M207.606 288.505V293.156C207.606 293.156 207.774 294.533 208.835 294.626L210.912 294.747V295.324H208.77C208.77 295.324 207.01 295.426 206.964 293.156V288.505H207.606Z" fill="#712E76"/>
<path d="M223.484 287.267V290.44C223.484 290.44 223.363 291.37 222.553 291.445L221.016 291.528V291.919H222.59C222.779 291.923 222.967 291.886 223.141 291.812C223.315 291.737 223.471 291.625 223.598 291.485C223.725 291.345 223.821 291.179 223.878 290.999C223.936 290.818 223.954 290.628 223.931 290.44V287.267H223.484Z" fill="#712E76"/>
<path d="M222.488 287.193C222.488 286.109 221.61 285.23 220.527 285.23C219.445 285.23 218.567 286.109 218.567 287.193V287.956C218.567 289.04 219.445 289.919 220.527 289.919C221.61 289.919 222.488 289.04 222.488 287.956V287.193Z" fill="#A1F181"/>
<path d="M219.089 286.932C219.089 285.848 218.211 284.969 217.128 284.969C216.046 284.969 215.168 285.848 215.168 286.932V291.165C215.168 292.25 216.046 293.128 217.128 293.128C218.211 293.128 219.089 292.25 219.089 291.165V286.932Z" fill="#42DA2B"/>
<path d="M227.479 283.704C227.479 282.466 226.476 281.462 225.239 281.462C224.002 281.462 223 282.466 223 283.704V293.287C223 294.525 224.002 295.529 225.239 295.529C226.476 295.529 227.479 294.525 227.479 293.287V283.704Z" fill="#42DA2B"/>
<path d="M208.947 283.946C208.947 282.029 207.392 280.476 205.474 280.476C203.555 280.476 202 282.029 202 283.946V289.267C202 291.184 203.555 292.738 205.474 292.738C207.392 292.738 208.947 291.184 208.947 289.267V283.946Z" fill="#A1F181"/>
<path d="M210.838 278.838C210.838 278.607 210.652 278.42 210.423 278.42C210.194 278.42 210.009 278.607 210.009 278.838V282.113C210.009 282.344 210.194 282.532 210.423 282.532C210.652 282.532 210.838 282.344 210.838 282.113V278.838Z" fill="#34732B"/>
<path d="M218.511 287.63C218.511 287.399 218.326 287.211 218.097 287.211C217.868 287.211 217.682 287.399 217.682 287.63V289.695C217.682 289.927 217.868 290.114 218.097 290.114C218.326 290.114 218.511 289.927 218.511 289.695V287.63Z" fill="#34732B"/>
<path d="M214.553 281.536C214.553 281.305 214.368 281.118 214.139 281.118C213.91 281.118 213.725 281.305 213.725 281.536V289.175C213.725 289.406 213.91 289.593 214.139 289.593C214.368 289.593 214.553 289.406 214.553 289.175V281.536Z" fill="#34732B"/>
<path d="M208.444 283.713C208.444 283.482 208.259 283.295 208.03 283.295C207.801 283.295 207.615 283.482 207.615 283.713V288.077C207.615 288.308 207.801 288.495 208.03 288.495C208.259 288.495 208.444 288.308 208.444 288.077V283.713Z" fill="#61B756"/>
<path d="M226.725 286.309C226.725 286.078 226.539 285.89 226.31 285.89C226.082 285.89 225.896 286.078 225.896 286.309V290.672C225.896 290.904 226.082 291.091 226.31 291.091C226.539 291.091 226.725 290.904 226.725 290.672V286.309Z" fill="#34732B"/>
<path d="M225.337 288.188C225.337 287.957 225.152 287.77 224.923 287.77C224.694 287.77 224.508 287.957 224.508 288.188V292.552C224.508 292.783 224.694 292.97 224.923 292.97C225.152 292.97 225.337 292.783 225.337 292.552V288.188Z" fill="#34732B"/>
<path d="M208.035 289.695C208.261 289.695 208.444 289.512 208.444 289.286C208.444 289.06 208.261 288.877 208.035 288.877C207.808 288.877 207.625 289.06 207.625 289.286C207.625 289.512 207.808 289.695 208.035 289.695Z" fill="#61B756"/>
<path d="M218.101 291.333C218.328 291.333 218.511 291.15 218.511 290.924C218.511 290.697 218.328 290.514 218.101 290.514C217.875 290.514 217.692 290.697 217.692 290.924C217.692 291.15 217.875 291.333 218.101 291.333Z" fill="#34732B"/>
<path d="M91.6443 458.834L89.9308 459.922C89.5898 460.137 89.207 460.276 88.8078 460.332C88.4086 460.388 88.0022 460.357 87.6155 460.244C87.2288 460.13 86.8707 459.936 86.565 459.674C86.2594 459.411 86.0131 459.087 85.8426 458.722L84.8462 456.861C84.4443 456.108 84.3342 455.234 84.5369 454.405C84.7396 453.576 85.2409 452.851 85.945 452.368L87.6585 451.223C87.9995 451.008 88.3823 450.869 88.7815 450.813C89.1807 450.758 89.5871 450.788 89.9738 450.901C90.3605 451.015 90.7186 451.209 91.0243 451.472C91.33 451.734 91.5762 452.059 91.7467 452.423L92.7432 454.284C93.1451 455.037 93.2552 455.912 93.0525 456.74C92.8497 457.569 92.3484 458.295 91.6443 458.778" fill="#714E29"/>
<path d="M289.498 405.766L288.985 406.845C288.879 407.055 288.727 407.239 288.541 407.383C288.355 407.527 288.139 407.627 287.908 407.677C287.678 407.727 287.44 407.725 287.21 407.671C286.981 407.617 286.767 407.513 286.583 407.366L285.512 406.64C285.079 406.352 284.759 405.924 284.603 405.428C284.447 404.932 284.466 404.398 284.655 403.914L285.177 402.845C285.28 402.633 285.429 402.447 285.614 402.301C285.799 402.155 286.015 402.053 286.245 402.002C286.475 401.951 286.714 401.952 286.943 402.006C287.173 402.061 287.387 402.166 287.57 402.314L288.641 403.049C289.075 403.334 289.398 403.76 289.554 404.255C289.71 404.75 289.69 405.284 289.498 405.766Z" fill="#876036"/>
<path d="M295.42 411.888L294.871 412.818C294.651 413.198 294.289 413.475 293.865 413.588C293.44 413.702 292.988 413.642 292.608 413.423L291.677 412.874C291.297 412.654 291.019 412.293 290.906 411.869C290.792 411.445 290.852 410.993 291.071 410.613L291.621 409.683C291.841 409.303 292.203 409.026 292.627 408.913C293.051 408.799 293.503 408.859 293.884 409.078L294.815 409.627C295.195 409.847 295.472 410.208 295.586 410.632C295.699 411.056 295.64 411.508 295.42 411.888Z" fill="#876036"/>
<path d="M293.344 420.335L292.99 420.949C292.92 421.072 292.827 421.179 292.716 421.265C292.604 421.351 292.477 421.414 292.341 421.451C292.205 421.487 292.063 421.496 291.923 421.477C291.784 421.458 291.649 421.411 291.528 421.34L290.922 420.986C290.677 420.844 290.498 420.611 290.424 420.337C290.351 420.063 290.39 419.771 290.531 419.526L290.885 418.912C290.955 418.791 291.048 418.684 291.158 418.599C291.269 418.514 291.395 418.451 291.53 418.415C291.665 418.379 291.806 418.369 291.945 418.387C292.083 418.406 292.217 418.451 292.338 418.521L292.953 418.875C293.198 419.017 293.377 419.25 293.451 419.524C293.524 419.798 293.486 420.09 293.344 420.335Z" fill="#876036"/>
<path d="M288.064 424.736L287.812 425.173C287.763 425.26 287.697 425.335 287.618 425.396C287.54 425.457 287.45 425.502 287.353 425.528C287.257 425.554 287.157 425.56 287.058 425.547C286.96 425.535 286.865 425.502 286.778 425.452L286.341 425.201C286.254 425.152 286.178 425.086 286.117 425.007C286.057 424.929 286.012 424.839 285.986 424.743C285.96 424.647 285.953 424.547 285.966 424.448C285.979 424.35 286.011 424.254 286.061 424.168L286.313 423.731C286.414 423.556 286.581 423.428 286.776 423.376C286.972 423.323 287.18 423.351 287.356 423.452L287.794 423.703C287.88 423.752 287.956 423.818 288.017 423.897C288.077 423.976 288.122 424.066 288.147 424.163C288.172 424.259 288.178 424.359 288.163 424.458C288.149 424.556 288.115 424.651 288.064 424.736Z" fill="#876036"/>
<path d="M289.367 428.29L289.563 428.643C289.645 428.784 289.779 428.886 289.936 428.928C290.093 428.97 290.26 428.948 290.401 428.867L290.746 428.662C290.815 428.622 290.876 428.57 290.924 428.507C290.973 428.443 291.009 428.371 291.03 428.294C291.05 428.217 291.056 428.137 291.045 428.058C291.035 427.979 291.009 427.903 290.969 427.834L290.764 427.48C290.725 427.411 290.672 427.351 290.609 427.302C290.545 427.253 290.473 427.217 290.396 427.197C290.319 427.176 290.239 427.171 290.16 427.181C290.081 427.191 290.004 427.217 289.935 427.257L289.581 427.462C289.512 427.501 289.451 427.554 289.403 427.618C289.354 427.681 289.319 427.753 289.299 427.831C289.279 427.908 289.275 427.988 289.286 428.067C289.298 428.146 289.326 428.222 289.367 428.29Z" fill="#876036"/>
<path d="M287.579 431.89L287.747 432.169C287.779 432.226 287.822 432.275 287.873 432.314C287.924 432.354 287.982 432.382 288.045 432.399C288.107 432.415 288.173 432.419 288.237 432.41C288.301 432.401 288.362 432.379 288.417 432.346L288.697 432.188C288.809 432.122 288.89 432.015 288.923 431.889C288.956 431.764 288.938 431.631 288.874 431.518L288.715 431.239C288.649 431.127 288.542 431.046 288.417 431.013C288.291 430.98 288.158 430.998 288.045 431.062L287.766 431.22C287.654 431.287 287.572 431.393 287.538 431.518C287.503 431.643 287.518 431.776 287.579 431.89Z" fill="#876036"/>
<path d="M288.557 416.13L288.101 416.912C288.012 417.067 287.893 417.204 287.751 417.313C287.609 417.423 287.447 417.503 287.274 417.55C287.101 417.597 286.92 417.609 286.743 417.585C286.565 417.562 286.393 417.504 286.238 417.414L285.447 416.958C285.134 416.777 284.906 416.48 284.811 416.131C284.717 415.783 284.765 415.411 284.944 415.097L285.4 414.307C285.583 413.996 285.881 413.769 286.229 413.676C286.577 413.582 286.948 413.628 287.263 413.804L288.054 414.26C288.367 414.441 288.595 414.738 288.69 415.087C288.784 415.435 288.736 415.807 288.557 416.121" fill="#876036"/>
<path d="M96.0491 482.669L95.4531 483.683C95.2171 484.094 94.8276 484.394 94.37 484.518C93.9125 484.642 93.4245 484.579 93.0132 484.344L91.9982 483.786C91.5871 483.55 91.2865 483.161 91.1625 482.704C91.0385 482.246 91.1013 481.759 91.337 481.348L91.933 480.325C92.1705 479.916 92.5608 479.617 93.0182 479.495C93.4755 479.373 93.9627 479.437 94.3729 479.673L95.3879 480.269C95.799 480.505 96.0996 480.894 96.2236 481.351C96.3476 481.808 96.2848 482.296 96.0491 482.706" fill="#714E29"/>
<path d="M89.0368 489.368V490.298C89.0431 490.497 89.0089 490.696 88.936 490.881C88.8631 491.067 88.7532 491.236 88.613 491.378C88.4727 491.52 88.3051 491.632 88.1202 491.707C87.9353 491.782 87.737 491.818 87.5375 491.815H86.6062C86.4134 491.815 86.2226 491.776 86.0446 491.702C85.8666 491.628 85.705 491.52 85.5691 491.383C85.4332 491.247 85.3257 491.085 85.2528 490.906C85.1798 490.728 85.1429 490.537 85.1442 490.345V489.414C85.138 489.218 85.1711 489.023 85.2417 488.84C85.3122 488.656 85.4188 488.489 85.5551 488.348C85.6913 488.207 85.8545 488.094 86.0351 488.017C86.2156 487.939 86.4098 487.899 86.6062 487.898H87.5375C87.733 487.894 87.9274 487.929 88.1091 488.002C88.2909 488.074 88.4564 488.181 88.596 488.318C88.7356 488.455 88.8465 488.618 88.9222 488.799C88.9979 488.979 89.0368 489.172 89.0368 489.368Z" fill="#714E29"/>
<path d="M148.926 497.676L148.413 498.606C148.213 498.962 148.16 499.383 148.266 499.778C148.372 500.173 148.629 500.51 148.981 500.718L149.913 501.23C150.089 501.331 150.283 501.397 150.485 501.424C150.686 501.45 150.891 501.437 151.087 501.384C151.284 501.331 151.468 501.24 151.629 501.117C151.79 500.993 151.925 500.838 152.027 500.662L152.539 499.732C152.641 499.556 152.707 499.362 152.733 499.16C152.76 498.959 152.746 498.754 152.693 498.558C152.641 498.362 152.55 498.178 152.426 498.017C152.302 497.856 152.147 497.721 151.971 497.62L151.086 497.108C150.91 497.007 150.716 496.941 150.514 496.914C150.312 496.888 150.108 496.901 149.911 496.954C149.715 497.007 149.531 497.097 149.37 497.221C149.209 497.345 149.073 497.5 148.972 497.676" fill="#714E29"/>
<path d="M152.334 507.417L152.818 508.003C153.014 508.234 153.293 508.379 153.595 508.405C153.897 508.431 154.197 508.337 154.429 508.142L155.007 507.649C155.24 507.455 155.386 507.177 155.414 506.875C155.442 506.574 155.349 506.273 155.156 506.04L154.662 505.463C154.566 505.347 154.448 505.252 154.315 505.182C154.181 505.112 154.036 505.07 153.886 505.057C153.736 505.044 153.585 505.061 153.442 505.106C153.298 505.152 153.165 505.226 153.051 505.323L152.474 505.807C152.358 505.903 152.262 506.021 152.192 506.154C152.123 506.287 152.08 506.433 152.067 506.583C152.054 506.732 152.071 506.883 152.117 507.026C152.163 507.17 152.236 507.302 152.334 507.417Z" fill="#714E29"/>
<path d="M148.413 511.799L148.674 512.134C148.726 512.198 148.791 512.251 148.864 512.29C148.937 512.328 149.017 512.353 149.099 512.36C149.181 512.368 149.264 512.359 149.343 512.335C149.422 512.31 149.495 512.27 149.559 512.217L149.866 511.938C149.933 511.883 149.988 511.814 150.028 511.737C150.069 511.66 150.093 511.575 150.1 511.489C150.107 511.402 150.096 511.315 150.069 511.232C150.042 511.15 149.998 511.073 149.941 511.008L149.67 510.682C149.619 510.618 149.555 510.566 149.483 510.527C149.411 510.488 149.332 510.464 149.25 510.456C149.169 510.448 149.087 510.457 149.008 510.481C148.93 510.506 148.858 510.546 148.795 510.598L148.478 510.868C148.412 510.924 148.358 510.993 148.318 511.071C148.279 511.148 148.256 511.233 148.25 511.32C148.243 511.406 148.255 511.493 148.283 511.576C148.311 511.658 148.355 511.734 148.413 511.799Z" fill="#714E29"/>
<path d="M93.125 465.653L93.4323 467.058C93.4908 467.338 93.6045 467.604 93.7668 467.84C93.9291 468.076 94.1368 468.277 94.3777 468.432C94.6186 468.587 94.888 468.693 95.1702 468.742C95.4523 468.792 95.7416 468.786 96.0212 468.723L97.4274 468.416C97.7073 468.356 97.9726 468.242 98.2082 468.08C98.4437 467.917 98.6447 467.71 98.7996 467.469C98.9546 467.229 99.0604 466.96 99.1109 466.679C99.1615 466.398 99.1559 466.109 99.0943 465.83L98.787 464.425C98.7274 464.145 98.6129 463.88 98.4503 463.645C98.2877 463.409 98.0801 463.209 97.8395 463.054C97.5988 462.899 97.3299 462.793 97.0482 462.743C96.7665 462.692 96.4776 462.698 96.1981 462.759L94.7919 463.067C94.512 463.126 94.2467 463.24 94.0111 463.403C93.7756 463.565 93.5746 463.773 93.4197 464.013C93.2647 464.254 93.1589 464.522 93.1084 464.804C93.0578 465.085 93.0634 465.374 93.125 465.653Z" fill="#714E29"/>
<path d="M84.9206 475.04L85.1907 476.24C85.2956 476.721 85.5867 477.14 86.0002 477.407C86.4138 477.674 86.9163 477.766 87.3978 477.664L88.5991 477.403C88.8382 477.352 89.0648 477.253 89.2658 477.114C89.4668 476.974 89.6384 476.797 89.7707 476.591C89.903 476.386 89.9935 476.156 90.0369 475.915C90.0804 475.675 90.0759 475.428 90.0239 475.189L89.7631 473.989C89.7113 473.749 89.6125 473.522 89.4724 473.32C89.3323 473.119 89.1536 472.947 88.9468 472.815C88.7399 472.682 88.5089 472.592 88.267 472.549C88.0251 472.507 87.7772 472.512 87.5375 472.566L86.3268 472.826C86.0877 472.878 85.8612 472.976 85.6601 473.116C85.4591 473.255 85.2875 473.433 85.1552 473.638C85.0229 473.844 84.9324 474.074 84.889 474.314C84.8455 474.555 84.85 474.801 84.902 475.04" fill="#714E29"/>
<path d="M151.431 412.204L150.602 413.441C150.26 413.938 149.737 414.281 149.144 414.396C148.552 414.51 147.938 414.388 147.436 414.055L146.169 413.227C145.92 413.068 145.704 412.861 145.537 412.617C145.369 412.373 145.251 412.099 145.191 411.809C145.131 411.519 145.13 411.221 145.188 410.931C145.245 410.641 145.361 410.365 145.526 410.12L146.365 408.883C146.705 408.384 147.228 408.04 147.821 407.925C148.414 407.81 149.029 407.933 149.531 408.268L150.788 409.087C151.037 409.248 151.251 409.457 151.418 409.701C151.586 409.946 151.703 410.221 151.763 410.511C151.822 410.801 151.824 411.1 151.767 411.391C151.71 411.681 151.596 411.958 151.431 412.204Z" fill="#876036"/>
<path d="M155.305 420.131L154.736 420.977C154.506 421.314 154.152 421.547 153.751 421.625C153.351 421.703 152.935 421.621 152.595 421.396L151.738 420.838C151.399 420.614 151.163 420.265 151.081 419.867C150.999 419.47 151.078 419.056 151.3 418.716L151.868 417.879C152.097 417.541 152.45 417.306 152.851 417.226C153.252 417.146 153.668 417.227 154.01 417.451L154.867 418.019C155.205 418.241 155.441 418.588 155.523 418.984C155.605 419.38 155.527 419.792 155.305 420.131Z" fill="#876036"/>
<path d="M149.708 426.801L149.307 427.545C149.227 427.694 149.119 427.825 148.988 427.932C148.857 428.038 148.706 428.117 148.544 428.165C148.382 428.212 148.212 428.227 148.044 428.209C147.876 428.19 147.714 428.139 147.566 428.057L146.812 427.648C146.512 427.481 146.29 427.203 146.192 426.875C146.095 426.546 146.13 426.192 146.29 425.889L146.691 425.145C146.769 424.996 146.876 424.864 147.006 424.757C147.136 424.65 147.287 424.57 147.448 424.523C147.61 424.475 147.779 424.46 147.947 424.479C148.114 424.498 148.276 424.551 148.423 424.633L149.177 425.043C149.478 425.208 149.703 425.485 149.802 425.814C149.901 426.142 149.867 426.497 149.708 426.801Z" fill="#876036"/>
<path d="M199.846 458.601L200.647 459.987C200.802 460.266 201.011 460.511 201.262 460.709C201.512 460.906 201.799 461.053 202.106 461.139C202.414 461.226 202.735 461.251 203.052 461.213C203.369 461.175 203.675 461.074 203.953 460.917L205.341 460.108C205.896 459.787 206.301 459.259 206.467 458.64C206.633 458.02 206.546 457.361 206.225 456.805L205.424 455.419C205.269 455.14 205.06 454.895 204.81 454.697C204.559 454.5 204.272 454.353 203.965 454.267C203.658 454.18 203.337 454.155 203.02 454.194C202.703 454.232 202.396 454.332 202.118 454.489L200.731 455.289C200.452 455.444 200.206 455.652 200.009 455.903C199.811 456.153 199.664 456.44 199.578 456.747C199.491 457.054 199.466 457.375 199.504 457.691C199.542 458.008 199.643 458.314 199.8 458.592" fill="#876036"/>
<path d="M197.146 467.039L197.714 468.035C197.901 468.42 198.233 468.717 198.637 468.86C199.041 469.002 199.486 468.98 199.874 468.798L200.731 468.305C201.07 468.063 201.303 467.7 201.381 467.291C201.459 466.882 201.376 466.459 201.15 466.109L200.582 465.113C200.393 464.729 200.061 464.435 199.656 464.294C199.252 464.153 198.808 464.177 198.421 464.36L197.565 464.853C197.389 464.972 197.24 465.125 197.124 465.303C197.008 465.48 196.928 465.679 196.889 465.887C196.85 466.095 196.853 466.309 196.897 466.517C196.941 466.724 197.025 466.921 197.146 467.095" fill="#876036"/>
<path d="M202.519 471.961L202.919 472.696C203.057 472.981 203.299 473.202 203.596 473.313C203.893 473.424 204.221 473.416 204.512 473.291L205.154 472.947C205.286 472.865 205.4 472.757 205.49 472.63C205.579 472.503 205.643 472.36 205.676 472.209C205.71 472.057 205.714 471.901 205.686 471.748C205.659 471.595 205.602 471.449 205.518 471.319L205.108 470.584C204.974 470.298 204.733 470.075 204.438 469.964C204.142 469.853 203.814 469.862 203.525 469.988L202.882 470.323C202.75 470.407 202.636 470.515 202.546 470.643C202.457 470.77 202.393 470.914 202.359 471.066C202.326 471.219 202.322 471.376 202.35 471.53C202.377 471.683 202.435 471.83 202.519 471.961Z" fill="#876036"/>
<path d="M197.537 476.147L197.881 475.524C197.997 475.284 198.201 475.097 198.451 475.003C198.701 474.91 198.977 474.916 199.222 475.022L199.772 475.31C199.884 475.379 199.98 475.47 200.057 475.577C200.133 475.684 200.187 475.806 200.216 475.934C200.244 476.062 200.247 476.195 200.223 476.324C200.2 476.454 200.151 476.577 200.079 476.687L199.734 477.31C199.619 477.551 199.416 477.738 199.166 477.833C198.917 477.929 198.64 477.925 198.393 477.822L197.844 477.524C197.732 477.455 197.635 477.364 197.559 477.257C197.483 477.15 197.429 477.029 197.4 476.901C197.372 476.772 197.369 476.64 197.392 476.51C197.416 476.381 197.465 476.258 197.537 476.147Z" fill="#876036"/>
<path d="M202.687 480.427L202.426 479.953C202.337 479.772 202.183 479.632 201.994 479.561C201.805 479.49 201.597 479.494 201.411 479.571L200.992 479.794C200.908 479.847 200.835 479.916 200.778 479.998C200.721 480.079 200.68 480.17 200.659 480.267C200.637 480.364 200.635 480.464 200.652 480.562C200.669 480.659 200.706 480.753 200.759 480.836L201.02 481.302C201.105 481.486 201.259 481.629 201.449 481.7C201.639 481.771 201.849 481.765 202.035 481.683L202.454 481.469C202.538 481.416 202.61 481.347 202.667 481.266C202.725 481.185 202.765 481.093 202.787 480.996C202.808 480.9 202.811 480.799 202.793 480.702C202.776 480.604 202.74 480.511 202.687 480.427Z" fill="#876036"/>
<path d="M197.844 484.26L198.04 483.907C198.105 483.769 198.22 483.662 198.363 483.608C198.506 483.554 198.663 483.558 198.803 483.618L199.111 483.786C199.238 483.866 199.327 483.993 199.361 484.14C199.394 484.286 199.368 484.44 199.288 484.567L199.092 484.921C199.029 485.06 198.913 485.169 198.77 485.223C198.627 485.277 198.468 485.272 198.328 485.209L198.021 485.042C197.957 485.003 197.902 484.951 197.858 484.891C197.815 484.83 197.784 484.761 197.767 484.688C197.751 484.615 197.749 484.54 197.762 484.466C197.775 484.393 197.803 484.323 197.844 484.26Z" fill="#876036"/>
<path d="M201.215 486.632L200.871 486.409C200.748 486.319 200.594 486.28 200.443 486.301C200.292 486.322 200.154 486.4 200.06 486.521L199.865 486.818C199.829 486.884 199.806 486.956 199.797 487.03C199.789 487.104 199.795 487.179 199.816 487.251C199.837 487.323 199.872 487.39 199.918 487.448C199.965 487.506 200.023 487.555 200.088 487.591L200.424 487.805C200.547 487.895 200.7 487.934 200.851 487.913C201.003 487.892 201.14 487.813 201.234 487.693L201.429 487.405C201.467 487.34 201.492 487.269 201.501 487.195C201.511 487.121 201.506 487.045 201.486 486.973C201.466 486.901 201.432 486.834 201.385 486.775C201.339 486.717 201.281 486.668 201.215 486.632Z" fill="#876036"/>
<path d="M197.742 488.437L197.993 488.27C198.084 488.205 198.197 488.178 198.308 488.193C198.419 488.209 198.519 488.266 198.589 488.354L198.738 488.568C198.791 488.667 198.804 488.782 198.772 488.89C198.741 488.998 198.669 489.09 198.57 489.144L198.319 489.303C198.275 489.337 198.224 489.362 198.17 489.377C198.115 489.391 198.059 489.395 198.003 489.387C197.948 489.379 197.894 489.36 197.846 489.331C197.798 489.302 197.756 489.264 197.723 489.219L197.574 489.005C197.521 488.907 197.509 488.793 197.54 488.687C197.572 488.58 197.644 488.491 197.742 488.437Z" fill="#876036"/>
<path d="M383.675 420.186L384.476 421.573C384.634 421.848 384.845 422.09 385.097 422.284C385.349 422.478 385.637 422.62 385.945 422.702C386.252 422.784 386.572 422.805 386.888 422.762C387.203 422.72 387.507 422.616 387.782 422.457L389.169 421.656C389.725 421.335 390.13 420.807 390.296 420.188C390.462 419.569 390.375 418.909 390.054 418.354L389.253 416.967C388.932 416.412 388.403 416.008 387.783 415.842C387.163 415.676 386.503 415.763 385.947 416.084L384.56 416.884C384.004 417.205 383.599 417.733 383.433 418.352C383.267 418.971 383.354 419.631 383.675 420.186Z" fill="#563A21"/>
<path d="M380.984 428.634L381.552 429.63C381.739 430.015 382.071 430.312 382.475 430.454C382.88 430.597 383.324 430.575 383.712 430.393L384.569 429.899C384.745 429.779 384.895 429.625 385.011 429.447C385.127 429.269 385.207 429.07 385.245 428.86C385.284 428.651 385.282 428.437 385.238 428.229C385.193 428.021 385.109 427.823 384.988 427.648L384.411 426.652C384.224 426.269 383.893 425.975 383.49 425.834C383.087 425.693 382.645 425.716 382.26 425.899L381.403 426.392C381.228 426.511 381.078 426.664 380.962 426.842C380.846 427.019 380.766 427.218 380.727 427.426C380.688 427.634 380.691 427.848 380.735 428.056C380.779 428.263 380.863 428.46 380.984 428.634Z" fill="#563A21"/>
<path d="M386.357 433.546L386.757 434.291C386.895 434.576 387.137 434.797 387.434 434.908C387.731 435.019 388.059 435.011 388.35 434.886L388.992 434.542C389.124 434.459 389.238 434.352 389.328 434.225C389.417 434.098 389.481 433.955 389.514 433.804C389.548 433.652 389.552 433.496 389.524 433.343C389.497 433.19 389.44 433.044 389.356 432.914L388.946 432.179C388.812 431.893 388.571 431.67 388.276 431.559C387.98 431.448 387.652 431.456 387.363 431.583L386.711 431.918C386.58 432.001 386.467 432.11 386.378 432.237C386.289 432.364 386.227 432.507 386.194 432.659C386.161 432.81 386.159 432.966 386.186 433.119C386.214 433.271 386.272 433.417 386.357 433.546Z" fill="#563A21"/>
<path d="M381.375 437.733L381.719 437.11C381.833 436.867 382.037 436.679 382.287 436.585C382.538 436.492 382.815 436.499 383.06 436.607L383.61 436.896C383.722 436.965 383.818 437.056 383.895 437.163C383.971 437.27 384.025 437.391 384.054 437.52C384.082 437.648 384.085 437.78 384.061 437.91C384.038 438.039 383.989 438.162 383.917 438.273L383.572 438.896C383.459 439.138 383.255 439.326 383.004 439.42C382.754 439.514 382.476 439.506 382.231 439.398L381.682 439.11C381.57 439.041 381.473 438.95 381.397 438.843C381.321 438.736 381.267 438.614 381.238 438.486C381.21 438.358 381.207 438.225 381.23 438.096C381.254 437.966 381.303 437.843 381.375 437.733Z" fill="#563A21"/>
<path d="M386.515 442.012L386.264 441.538C386.175 441.357 386.021 441.217 385.832 441.146C385.643 441.075 385.435 441.079 385.249 441.157L384.83 441.38C384.746 441.433 384.673 441.502 384.616 441.583C384.559 441.664 384.518 441.756 384.497 441.853C384.475 441.949 384.473 442.049 384.49 442.147C384.507 442.245 384.544 442.338 384.597 442.422L384.858 442.887C384.943 443.071 385.097 443.214 385.287 443.285C385.477 443.357 385.687 443.351 385.873 443.268L386.292 443.054C386.376 443.002 386.449 442.932 386.506 442.851C386.562 442.77 386.603 442.678 386.623 442.581C386.644 442.483 386.645 442.383 386.627 442.286C386.608 442.188 386.57 442.095 386.515 442.012Z" fill="#563A21"/>
<path d="M381.682 445.846L381.878 445.492C381.941 445.353 382.056 445.244 382.2 445.19C382.343 445.136 382.502 445.141 382.641 445.204L382.949 445.371C383.076 445.451 383.166 445.579 383.199 445.725C383.232 445.872 383.206 446.025 383.126 446.153L382.93 446.506C382.865 446.644 382.749 446.751 382.607 446.805C382.464 446.859 382.306 446.855 382.166 446.795L381.859 446.627C381.795 446.588 381.74 446.537 381.696 446.476C381.653 446.415 381.622 446.347 381.605 446.274C381.589 446.201 381.587 446.125 381.6 446.052C381.613 445.978 381.641 445.908 381.682 445.846Z" fill="#563A21"/>
<path d="M385.053 448.209L384.709 447.995C384.586 447.904 384.432 447.866 384.281 447.886C384.13 447.907 383.992 447.986 383.898 448.106L383.675 448.432C383.637 448.497 383.614 448.569 383.605 448.644C383.595 448.718 383.602 448.794 383.622 448.866C383.643 448.938 383.678 449.005 383.726 449.063C383.773 449.121 383.832 449.169 383.898 449.204L384.234 449.428C384.357 449.518 384.51 449.557 384.661 449.536C384.813 449.515 384.95 449.436 385.044 449.316L385.239 449.028C385.277 448.962 385.302 448.89 385.312 448.815C385.322 448.741 385.317 448.665 385.297 448.592C385.277 448.519 385.242 448.451 385.196 448.392C385.149 448.332 385.091 448.283 385.025 448.246" fill="#563A21"/>
<path d="M381.179 452.74L381.431 452.581C381.522 452.517 381.634 452.489 381.745 452.505C381.856 452.52 381.957 452.578 382.027 452.665L382.176 452.879C382.203 452.928 382.221 452.982 382.228 453.037C382.234 453.093 382.229 453.149 382.214 453.203C382.198 453.257 382.172 453.307 382.137 453.35C382.101 453.394 382.057 453.43 382.008 453.456L381.757 453.614C381.665 453.679 381.553 453.706 381.442 453.691C381.331 453.675 381.23 453.618 381.161 453.53L381.021 453.316C380.967 453.219 380.953 453.104 380.982 452.996C381.012 452.888 381.083 452.796 381.179 452.74Z" fill="#563A21"/>
<path d="M45.3053 392.08L45.8827 391.02C46.077 390.611 46.4229 390.294 46.847 390.136C47.2712 389.978 47.7403 389.991 48.1549 390.173L49.0862 390.657C49.2747 390.775 49.4379 390.93 49.5663 391.112C49.6947 391.293 49.7857 391.499 49.8342 391.716C49.8827 391.933 49.8877 392.158 49.8488 392.377C49.8099 392.596 49.728 392.805 49.6077 392.992L49.0303 394.043C48.8341 394.45 48.4886 394.766 48.0656 394.926C47.6425 395.085 47.1743 395.075 46.758 394.899L45.8268 394.406C45.6386 394.289 45.4756 394.135 45.3473 393.954C45.219 393.773 45.128 393.569 45.0795 393.352C45.031 393.136 45.0259 392.912 45.0647 392.694C45.1035 392.475 45.1853 392.267 45.3053 392.08Z" fill="#876036"/>
<path d="M54.0125 397.411L53.5748 396.611C53.4271 396.302 53.1648 396.062 52.8434 395.942C52.5219 395.822 52.1664 395.832 51.852 395.969L51.1536 396.341C50.8685 396.523 50.6672 396.81 50.5939 397.14C50.5205 397.469 50.5812 397.815 50.7625 398.1L51.2001 398.9C51.3496 399.208 51.612 399.446 51.9329 399.566C52.2537 399.685 52.6083 399.677 52.923 399.542L53.6214 399.17C53.9065 398.988 54.1078 398.701 54.1811 398.371C54.2544 398.042 54.1938 397.696 54.0125 397.411Z" fill="#876036"/>
<path d="M45.8174 402.724L46.1527 402.119C46.2621 401.887 46.4574 401.707 46.6972 401.617C46.9371 401.527 47.2027 401.533 47.4378 401.635L47.9686 401.914C48.0785 401.979 48.1737 402.067 48.2484 402.17C48.323 402.274 48.3756 402.392 48.4026 402.517C48.4297 402.641 48.4308 402.77 48.4058 402.896C48.3808 403.021 48.3302 403.14 48.2573 403.245L47.9314 403.84C47.8201 404.072 47.6231 404.252 47.3818 404.342C47.1404 404.433 46.8734 404.426 46.6369 404.324L46.1154 404.045C46.0062 403.98 45.9113 403.894 45.8365 403.791C45.7618 403.689 45.7089 403.572 45.681 403.448C45.6531 403.325 45.6508 403.196 45.6742 403.072C45.6977 402.947 45.7464 402.829 45.8174 402.724Z" fill="#876036"/>
<path d="M51.5168 407.394L50.9394 407.022C50.7311 406.869 50.471 406.803 50.215 406.84C49.959 406.877 49.7276 407.012 49.5705 407.217L49.2445 407.71C49.1796 407.819 49.1376 407.94 49.1212 408.066C49.1048 408.192 49.1143 408.32 49.1492 408.442C49.1841 408.564 49.2436 408.677 49.3241 408.776C49.4045 408.874 49.5042 408.955 49.617 409.013L50.1944 409.385C50.4009 409.536 50.6582 409.601 50.9119 409.567C51.1656 409.532 51.3958 409.4 51.554 409.199L51.8893 408.696C51.9543 408.587 51.9962 408.466 52.0126 408.34C52.029 408.215 52.0195 408.087 51.9846 407.965C51.9497 407.843 51.8902 407.729 51.8097 407.631C51.7293 407.533 51.6296 407.452 51.5168 407.394Z" fill="#876036"/>
<path d="M45.6312 412.827L46.0503 412.557C46.2045 412.444 46.3967 412.396 46.5861 412.422C46.7756 412.448 46.9475 412.546 47.0654 412.697L47.3075 413.06C47.391 413.221 47.4086 413.408 47.3564 413.582C47.3043 413.755 47.1865 413.902 47.0281 413.99L46.609 414.26C46.4549 414.373 46.2627 414.422 46.0732 414.396C45.8837 414.37 45.7118 414.271 45.594 414.12L45.3519 413.758C45.2707 413.596 45.2544 413.41 45.3063 413.237C45.3583 413.064 45.4745 412.917 45.6312 412.827Z" fill="#876036"/>
<path d="M224.72 437.863L224.459 437.705C224.414 437.67 224.363 437.645 224.308 437.631C224.253 437.616 224.195 437.612 224.139 437.62C224.083 437.628 224.028 437.647 223.979 437.676C223.93 437.705 223.888 437.743 223.854 437.789L223.714 438.003C223.66 438.101 223.646 438.216 223.676 438.324C223.705 438.431 223.776 438.523 223.872 438.58L224.133 438.747C224.225 438.815 224.34 438.844 224.453 438.828C224.566 438.813 224.668 438.754 224.738 438.663L224.878 438.44C224.932 438.342 224.946 438.227 224.917 438.12C224.887 438.012 224.816 437.92 224.72 437.863Z" fill="#634A2B"/>
<path d="M220.771 439.808L221.004 439.659C221.078 439.592 221.174 439.554 221.274 439.554C221.374 439.554 221.471 439.592 221.544 439.659L221.656 439.826C221.759 439.966 221.656 440.189 221.47 440.31L221.237 440.459C221.163 440.526 221.067 440.564 220.967 440.564C220.867 440.564 220.771 440.526 220.697 440.459L220.585 440.292C220.483 440.143 220.585 439.929 220.771 439.808Z" fill="#634A2B"/>
<path d="M223.426 442.72L223.239 442.599C223.172 442.549 223.088 442.527 223.005 442.537C222.921 442.547 222.845 442.589 222.792 442.654L222.69 442.822C222.669 442.857 222.655 442.896 222.65 442.937C222.645 442.977 222.648 443.018 222.659 443.058C222.671 443.097 222.69 443.133 222.716 443.165C222.742 443.196 222.774 443.222 222.811 443.241L222.997 443.361C223.065 443.411 223.149 443.434 223.232 443.423C223.315 443.413 223.391 443.371 223.444 443.306L223.547 443.138C223.568 443.103 223.581 443.064 223.586 443.024C223.592 442.983 223.589 442.942 223.577 442.903C223.566 442.863 223.547 442.827 223.52 442.795C223.494 442.764 223.462 442.738 223.426 442.72Z" fill="#634A2B"/>
<path d="M225.092 445.864L224.943 445.771C224.889 445.735 224.823 445.719 224.758 445.728C224.693 445.736 224.633 445.768 224.59 445.818L224.506 445.948C224.489 445.976 224.479 446.007 224.474 446.039C224.47 446.071 224.473 446.104 224.481 446.135C224.49 446.166 224.505 446.195 224.525 446.221C224.545 446.246 224.57 446.267 224.599 446.283L224.748 446.385C224.775 446.405 224.805 446.419 224.838 446.427C224.87 446.435 224.904 446.436 224.936 446.431C224.969 446.426 225.001 446.414 225.029 446.397C225.058 446.379 225.082 446.356 225.102 446.329L225.186 446.208C225.202 446.18 225.213 446.148 225.217 446.115C225.222 446.082 225.219 446.049 225.211 446.017C225.202 445.985 225.187 445.955 225.167 445.929C225.147 445.903 225.121 445.881 225.092 445.864Z" fill="#634A2B"/>
<path d="M342.7 471.905L342.421 471.393C342.325 471.194 342.157 471.04 341.951 470.962C341.744 470.884 341.516 470.888 341.312 470.975L340.856 471.217C340.764 471.273 340.684 471.348 340.621 471.437C340.558 471.525 340.513 471.625 340.49 471.731C340.466 471.837 340.464 471.946 340.484 472.053C340.504 472.16 340.545 472.261 340.605 472.352L340.884 472.863C340.981 473.063 341.151 473.218 341.359 473.296C341.567 473.374 341.797 473.369 342.002 473.282L342.449 473.04C342.541 472.983 342.621 472.908 342.684 472.82C342.747 472.732 342.791 472.632 342.815 472.526C342.838 472.42 342.84 472.31 342.82 472.204C342.801 472.097 342.76 471.996 342.7 471.905Z" fill="#714E29"/>
<path d="M334.123 475.757L334.44 475.171C334.49 475.056 334.563 474.953 334.654 474.867C334.745 474.781 334.852 474.715 334.969 474.671C335.087 474.628 335.212 474.608 335.337 474.614C335.462 474.62 335.584 474.651 335.697 474.705L336.209 474.975C336.312 475.041 336.402 475.126 336.472 475.226C336.543 475.325 336.593 475.438 336.62 475.557C336.647 475.677 336.65 475.8 336.629 475.92C336.608 476.041 336.563 476.156 336.498 476.259L336.181 476.845C336.131 476.96 336.058 477.063 335.967 477.149C335.876 477.235 335.769 477.301 335.652 477.345C335.534 477.388 335.409 477.407 335.284 477.402C335.159 477.396 335.037 477.365 334.924 477.31L334.412 477.041C334.308 476.975 334.219 476.89 334.149 476.79C334.078 476.69 334.028 476.578 334.001 476.458C333.974 476.339 333.971 476.216 333.992 476.095C334.013 475.975 334.058 475.86 334.123 475.757Z" fill="#714E29"/>
<path d="M341.769 484.567L341.396 484.325C341.261 484.229 341.094 484.188 340.93 484.211C340.766 484.233 340.616 484.317 340.512 484.446L340.297 484.772C340.257 484.842 340.231 484.92 340.221 485.001C340.211 485.082 340.217 485.164 340.24 485.242C340.263 485.32 340.301 485.393 340.352 485.456C340.404 485.519 340.467 485.571 340.539 485.609L340.912 485.851C341.046 485.952 341.214 485.996 341.379 485.973C341.545 485.95 341.695 485.863 341.797 485.73L342.011 485.414C342.091 485.269 342.11 485.099 342.065 484.94C342.02 484.782 341.913 484.647 341.769 484.567Z" fill="#714E29"/>
<path d="M334.654 484.39L335.008 484.167C335.115 484.071 335.255 484.018 335.399 484.018C335.543 484.018 335.682 484.071 335.79 484.167L335.958 484.418C336.097 484.623 335.958 484.939 335.688 485.125L335.334 485.339C335.226 485.435 335.087 485.489 334.943 485.489C334.798 485.489 334.659 485.435 334.551 485.339L334.384 485.097C334.244 484.893 334.384 484.576 334.654 484.39Z" fill="#714E29"/>
<path d="M336.377 497.806L336.191 498.057C336.115 498.138 336.073 498.244 336.073 498.355C336.073 498.465 336.115 498.572 336.191 498.653L336.368 498.802C336.517 498.922 336.768 498.848 336.926 498.634L337.122 498.383C337.197 498.302 337.239 498.196 337.239 498.085C337.239 497.975 337.197 497.868 337.122 497.787L336.945 497.639C336.796 497.518 336.544 497.639 336.386 497.806" fill="#714E29"/>
<path d="M338.556 488.642L338.277 488.465C338.177 488.394 338.053 488.363 337.932 488.381C337.81 488.398 337.7 488.462 337.625 488.558L337.466 488.791C337.437 488.844 337.418 488.901 337.411 488.961C337.403 489.021 337.408 489.082 337.425 489.14C337.441 489.198 337.469 489.252 337.506 489.299C337.544 489.346 337.59 489.385 337.643 489.414L337.923 489.591C338.021 489.664 338.144 489.696 338.265 489.68C338.387 489.665 338.498 489.603 338.575 489.507L338.733 489.266C338.79 489.159 338.804 489.034 338.771 488.918C338.738 488.802 338.661 488.703 338.556 488.642Z" fill="#714E29"/>
<path d="M340.987 493.257L340.772 493.117C340.694 493.059 340.596 493.034 340.499 493.046C340.402 493.058 340.313 493.107 340.251 493.182L340.13 493.368C340.083 493.452 340.071 493.551 340.098 493.644C340.124 493.736 340.186 493.814 340.269 493.861L340.484 494.001C340.562 494.061 340.66 494.088 340.758 494.076C340.856 494.064 340.944 494.013 341.005 493.936L341.126 493.75C341.151 493.708 341.166 493.663 341.173 493.615C341.179 493.568 341.175 493.519 341.162 493.473C341.149 493.427 341.127 493.384 341.097 493.347C341.066 493.31 341.029 493.279 340.987 493.257Z" fill="#714E29"/>
<path d="M342.644 478.715L342.924 478.204C343.02 478.004 343.191 477.849 343.399 477.771C343.607 477.693 343.837 477.698 344.041 477.785L344.488 478.027C344.58 478.084 344.66 478.158 344.723 478.246C344.786 478.335 344.831 478.434 344.856 478.54C344.88 478.645 344.883 478.755 344.865 478.862C344.846 478.968 344.807 479.07 344.749 479.162L344.46 479.683C344.365 479.882 344.196 480.036 343.989 480.112C343.782 480.189 343.554 480.181 343.352 480.092L342.896 479.86C342.804 479.801 342.725 479.725 342.662 479.636C342.6 479.546 342.556 479.446 342.532 479.339C342.509 479.233 342.507 479.123 342.526 479.016C342.545 478.909 342.585 478.807 342.644 478.715Z" fill="#714E29"/>
<path d="M351.221 482.567L350.895 481.99C350.846 481.875 350.774 481.771 350.683 481.684C350.592 481.597 350.485 481.529 350.368 481.485C350.25 481.441 350.125 481.421 350 481.426C349.874 481.431 349.751 481.462 349.638 481.516L349.126 481.785C349.021 481.851 348.93 481.936 348.859 482.037C348.788 482.138 348.737 482.251 348.711 482.372C348.684 482.492 348.681 482.616 348.703 482.738C348.724 482.859 348.77 482.975 348.837 483.079L349.163 483.655C349.212 483.771 349.284 483.875 349.375 483.962C349.466 484.049 349.573 484.116 349.69 484.16C349.808 484.205 349.933 484.225 350.058 484.22C350.184 484.214 350.307 484.184 350.42 484.13L350.932 483.86C351.037 483.795 351.127 483.709 351.199 483.609C351.27 483.508 351.321 483.394 351.347 483.274C351.374 483.153 351.377 483.029 351.355 482.908C351.334 482.786 351.288 482.67 351.221 482.567Z" fill="#714E29"/>
<path d="M344.907 488.372L345.28 488.13C345.348 488.076 345.427 488.035 345.511 488.012C345.596 487.988 345.684 487.982 345.771 487.993C345.858 488.004 345.942 488.033 346.017 488.077C346.093 488.122 346.159 488.181 346.211 488.251L346.425 488.577C346.464 488.648 346.489 488.726 346.499 488.806C346.508 488.887 346.501 488.968 346.478 489.046C346.456 489.124 346.418 489.196 346.368 489.26C346.317 489.323 346.254 489.375 346.183 489.414L345.81 489.656C345.742 489.712 345.664 489.754 345.579 489.778C345.495 489.802 345.406 489.809 345.318 489.798C345.231 489.786 345.147 489.757 345.072 489.712C344.996 489.667 344.93 489.607 344.879 489.535L344.665 489.219C344.624 489.148 344.598 489.069 344.588 488.988C344.578 488.906 344.584 488.823 344.607 488.744C344.63 488.666 344.668 488.592 344.719 488.528C344.771 488.464 344.835 488.411 344.907 488.372Z" fill="#714E29"/>
<path d="M350.681 491.228L350.336 491.015C350.227 490.918 350.086 490.864 349.94 490.864C349.795 490.864 349.654 490.918 349.545 491.015L349.377 491.256C349.237 491.461 349.377 491.777 349.656 491.963L350.001 492.187C350.109 492.281 350.248 492.333 350.392 492.333C350.536 492.333 350.675 492.281 350.783 492.187L350.96 491.936C351.1 491.731 350.96 491.415 350.681 491.228Z" fill="#714E29"/>
<path d="M346.788 495.462L347.058 495.285C347.158 495.212 347.283 495.179 347.406 495.195C347.529 495.211 347.641 495.273 347.719 495.369L347.878 495.61C347.907 495.664 347.925 495.722 347.932 495.782C347.938 495.842 347.933 495.903 347.916 495.961C347.898 496.019 347.869 496.073 347.831 496.12C347.792 496.167 347.745 496.206 347.691 496.234L347.421 496.411C347.322 496.482 347.198 496.513 347.077 496.495C346.955 496.478 346.845 496.414 346.77 496.318L346.611 496.085C346.58 496.033 346.56 495.975 346.552 495.915C346.545 495.855 346.549 495.794 346.566 495.735C346.582 495.677 346.61 495.623 346.649 495.576C346.687 495.529 346.734 495.49 346.788 495.462Z" fill="#714E29"/>
<path d="M344.348 500.067L344.572 499.927C344.65 499.871 344.747 499.847 344.843 499.861C344.939 499.875 345.025 499.925 345.084 500.002L345.214 500.188C345.237 500.23 345.251 500.276 345.256 500.324C345.261 500.371 345.256 500.419 345.243 500.465C345.229 500.511 345.206 500.554 345.176 500.591C345.145 500.628 345.108 500.658 345.065 500.681L344.851 500.82C344.773 500.877 344.676 500.9 344.58 500.887C344.484 500.873 344.398 500.822 344.339 500.746L344.209 500.56C344.162 500.476 344.15 500.377 344.176 500.284C344.203 500.192 344.264 500.114 344.348 500.067Z" fill="#714E29"/>
<path d="M258.822 477.208L258.17 478.334C258.041 478.559 257.869 478.756 257.663 478.915C257.457 479.073 257.222 479.189 256.971 479.257C256.72 479.324 256.458 479.341 256.201 479.308C255.943 479.274 255.695 479.189 255.47 479.059L254.334 478.408C254.109 478.278 253.912 478.105 253.755 477.899C253.597 477.693 253.482 477.458 253.415 477.208C253.349 476.957 253.332 476.696 253.367 476.439C253.401 476.182 253.486 475.934 253.617 475.71L254.269 474.575C254.531 474.122 254.963 473.792 255.469 473.656C255.975 473.52 256.514 473.59 256.969 473.849L258.105 474.51C258.33 474.64 258.527 474.813 258.684 475.019C258.842 475.225 258.957 475.46 259.024 475.71C259.09 475.961 259.107 476.222 259.072 476.479C259.038 476.736 258.953 476.984 258.822 477.208Z" fill="#876036"/>
<path d="M267.036 481.488L266.505 482.418C266.334 482.773 266.029 483.045 265.658 483.176C265.286 483.307 264.877 483.285 264.522 483.116L263.73 482.669C263.406 482.445 263.184 482.102 263.112 481.715C263.041 481.328 263.126 480.929 263.348 480.604L263.87 479.673C264.043 479.318 264.349 479.045 264.722 478.915C265.096 478.784 265.505 478.806 265.863 478.976L266.645 479.432C266.97 479.654 267.194 479.996 267.268 480.384C267.341 480.771 267.258 481.171 267.036 481.497" fill="#563A21"/>
<path d="M259.688 485.739L259.279 486.474C259.143 486.759 258.902 486.98 258.607 487.091C258.312 487.202 257.985 487.194 257.695 487.07L257.053 486.726C256.92 486.644 256.805 486.537 256.715 486.41C256.625 486.283 256.561 486.14 256.527 485.988C256.493 485.836 256.49 485.679 256.518 485.526C256.546 485.373 256.604 485.227 256.69 485.097L257.09 484.362C257.226 484.076 257.468 483.853 257.765 483.742C258.063 483.631 258.392 483.64 258.683 483.767L259.325 484.111C259.457 484.194 259.571 484.301 259.66 484.428C259.75 484.555 259.813 484.698 259.847 484.849C259.881 485.001 259.884 485.158 259.857 485.31C259.83 485.463 259.772 485.609 259.688 485.739Z" fill="#876036"/>
<path d="M264.112 489.768L263.767 489.154C263.654 488.912 263.45 488.723 263.2 488.628C262.95 488.532 262.673 488.537 262.426 488.642L261.877 488.94C261.765 489.009 261.668 489.1 261.592 489.207C261.516 489.314 261.462 489.435 261.433 489.564C261.404 489.692 261.402 489.825 261.425 489.954C261.449 490.083 261.498 490.207 261.569 490.317L261.914 490.931C262.028 491.173 262.231 491.362 262.481 491.457C262.731 491.553 263.009 491.547 263.255 491.443L263.804 491.154C263.917 491.084 264.014 490.992 264.09 490.884C264.166 490.776 264.22 490.654 264.249 490.525C264.278 490.396 264.28 490.263 264.257 490.133C264.233 490.003 264.184 489.879 264.112 489.768Z" fill="#876036"/>
<path d="M251.27 506.849L251.102 506.533C251.044 506.411 250.94 506.317 250.813 506.27C250.686 506.223 250.546 506.227 250.422 506.282L250.152 506.421C250.04 506.494 249.96 506.607 249.931 506.738C249.901 506.868 249.924 507.005 249.994 507.119L250.171 507.435C250.228 507.556 250.33 507.65 250.455 507.697C250.58 507.744 250.719 507.74 250.842 507.686L251.121 507.538C251.176 507.503 251.224 507.457 251.262 507.403C251.3 507.349 251.326 507.289 251.34 507.225C251.354 507.16 251.355 507.094 251.343 507.03C251.331 506.965 251.306 506.904 251.27 506.849Z" fill="#876036"/>
<path d="M249.175 500.272L248.998 499.965C248.941 499.844 248.839 499.749 248.714 499.703C248.588 499.656 248.45 499.659 248.327 499.713L248.048 499.853C247.991 499.888 247.942 499.934 247.903 499.988C247.865 500.043 247.837 500.104 247.823 500.169C247.808 500.234 247.806 500.301 247.818 500.366C247.829 500.432 247.854 500.495 247.889 500.551L248.066 500.858C248.123 500.981 248.226 501.077 248.353 501.126C248.48 501.175 248.621 501.172 248.746 501.118L249.016 500.969C249.073 500.934 249.122 500.888 249.161 500.834C249.199 500.78 249.227 500.719 249.241 500.654C249.256 500.589 249.258 500.521 249.246 500.456C249.235 500.39 249.21 500.328 249.175 500.272Z" fill="#876036"/>
<path d="M252.657 491.908L252.918 491.442C253.003 491.259 253.158 491.115 253.348 491.044C253.537 490.973 253.748 490.979 253.933 491.061L254.343 491.275C254.427 491.328 254.5 491.397 254.557 491.478C254.614 491.559 254.654 491.651 254.676 491.748C254.698 491.845 254.7 491.945 254.683 492.042C254.666 492.14 254.629 492.233 254.576 492.317L254.315 492.791C254.228 492.974 254.074 493.115 253.884 493.186C253.695 493.258 253.486 493.253 253.3 493.173L252.89 492.95C252.806 492.897 252.734 492.828 252.677 492.746C252.619 492.665 252.579 492.574 252.557 492.477C252.536 492.38 252.533 492.28 252.551 492.182C252.568 492.085 252.604 491.991 252.657 491.908Z" fill="#876036"/>
<path d="M266.338 494.168L266.598 493.694C266.685 493.512 266.84 493.37 267.029 493.299C267.218 493.228 267.428 493.233 267.613 493.313L268.023 493.536C268.107 493.589 268.18 493.658 268.237 493.739C268.294 493.82 268.334 493.912 268.356 494.009C268.378 494.105 268.38 494.205 268.363 494.303C268.346 494.401 268.309 494.494 268.256 494.578L267.995 495.043C267.91 495.227 267.756 495.37 267.566 495.441C267.376 495.513 267.166 495.507 266.98 495.425L266.57 495.211C266.486 495.158 266.414 495.088 266.357 495.007C266.3 494.926 266.259 494.835 266.237 494.738C266.216 494.641 266.213 494.541 266.231 494.443C266.248 494.346 266.284 494.252 266.338 494.168Z" fill="#563A21"/>
<path d="M272.121 499.276L271.897 498.885C271.826 498.734 271.699 498.616 271.542 498.557C271.386 498.498 271.212 498.502 271.059 498.569L270.714 498.746C270.645 498.79 270.585 498.848 270.538 498.915C270.491 498.983 270.458 499.059 270.441 499.14C270.424 499.22 270.422 499.303 270.437 499.384C270.452 499.465 270.483 499.542 270.528 499.611L270.742 500.002C270.813 500.153 270.941 500.271 271.097 500.33C271.254 500.389 271.427 500.385 271.58 500.318L271.925 500.141C271.995 500.098 272.056 500.04 272.104 499.973C272.152 499.906 272.185 499.83 272.204 499.749C272.222 499.669 272.224 499.586 272.21 499.504C272.195 499.423 272.165 499.345 272.121 499.276Z" fill="#563A21"/>
<path d="M263.972 499.406L263.777 499.053C263.712 498.915 263.596 498.808 263.453 498.754C263.311 498.7 263.153 498.704 263.013 498.764L262.706 498.932C262.642 498.971 262.586 499.022 262.543 499.083C262.499 499.144 262.468 499.212 262.452 499.285C262.435 499.358 262.433 499.434 262.447 499.507C262.46 499.581 262.488 499.651 262.529 499.713L262.724 500.067C262.787 500.206 262.903 500.315 263.046 500.369C263.189 500.423 263.348 500.418 263.488 500.355L263.795 500.197C263.859 500.157 263.915 500.105 263.959 500.044C264.002 499.982 264.033 499.913 264.05 499.839C264.066 499.765 264.068 499.689 264.055 499.615C264.041 499.541 264.013 499.47 263.972 499.406Z" fill="#876036"/>
<path d="M260.489 495.434L260.191 494.903C260.096 494.695 259.922 494.533 259.707 494.453C259.492 494.373 259.255 494.381 259.046 494.475L258.58 494.717C258.484 494.777 258.402 494.855 258.337 494.947C258.271 495.039 258.225 495.143 258.201 495.253C258.177 495.363 258.175 495.477 258.195 495.588C258.215 495.699 258.258 495.804 258.319 495.899L258.608 496.429C258.705 496.636 258.88 496.796 259.094 496.876C259.308 496.956 259.544 496.949 259.754 496.857L260.219 496.615C260.315 496.555 260.397 496.477 260.463 496.386C260.528 496.294 260.574 496.19 260.6 496.08C260.625 495.971 260.628 495.857 260.609 495.746C260.59 495.635 260.549 495.529 260.489 495.434Z" fill="#563A21"/>
<path d="M254.715 500.737L255.06 500.523C255.183 500.432 255.336 500.393 255.488 500.414C255.639 500.435 255.776 500.514 255.87 500.634L256.066 500.923C256.103 500.988 256.127 501.06 256.136 501.134C256.145 501.209 256.139 501.284 256.118 501.356C256.097 501.428 256.062 501.496 256.015 501.554C255.967 501.612 255.909 501.66 255.842 501.695L255.507 501.918C255.383 502.006 255.23 502.044 255.08 502.023C254.929 502.002 254.792 501.925 254.697 501.807L254.501 501.509C254.427 501.378 254.408 501.223 254.449 501.079C254.489 500.934 254.585 500.811 254.715 500.737Z" fill="#876036"/>
<path d="M259.996 503.323L259.679 503.118C259.58 503.031 259.453 502.982 259.32 502.982C259.188 502.982 259.061 503.031 258.962 503.118L258.804 503.342C258.755 503.462 258.754 503.596 258.801 503.717C258.848 503.838 258.938 503.936 259.055 503.993L259.381 504.188C259.478 504.275 259.604 504.323 259.735 504.323C259.865 504.323 259.991 504.275 260.089 504.188L260.247 503.956C260.377 503.77 260.247 503.481 259.996 503.314" fill="#563A21"/>
<path d="M260.852 511.817L261.029 512.041C261.096 512.117 261.132 512.214 261.132 512.315C261.132 512.416 261.096 512.513 261.029 512.59L260.871 512.72C260.731 512.831 260.508 512.72 260.359 512.58L260.182 512.348C260.112 512.273 260.073 512.175 260.073 512.073C260.073 511.971 260.112 511.873 260.182 511.799L260.34 511.668C260.48 511.557 260.703 511.622 260.852 511.817Z" fill="#563A21"/>
<path d="M256.438 507.221L256.69 507.063C256.781 506.998 256.894 506.971 257.004 506.986C257.115 507.002 257.216 507.059 257.286 507.147L257.435 507.361C257.462 507.41 257.48 507.463 257.487 507.519C257.493 507.575 257.489 507.631 257.473 507.685C257.457 507.738 257.431 507.789 257.396 507.832C257.36 507.875 257.317 507.911 257.267 507.938L257.016 508.096C256.924 508.161 256.812 508.188 256.701 508.173C256.59 508.157 256.489 508.1 256.42 508.012L256.28 507.798C256.226 507.7 256.212 507.585 256.242 507.478C256.271 507.37 256.342 507.278 256.438 507.221Z" fill="#876036"/>
<path d="M254.231 511.445L254.436 511.315C254.508 511.265 254.595 511.244 254.682 511.256C254.768 511.268 254.847 511.312 254.902 511.38L255.013 511.547C255.058 511.624 255.07 511.715 255.047 511.8C255.024 511.886 254.969 511.959 254.892 512.003L254.688 512.134C254.616 512.184 254.528 512.205 254.442 512.193C254.355 512.181 254.277 512.136 254.222 512.068L254.101 511.892C254.08 511.854 254.066 511.812 254.061 511.769C254.056 511.726 254.06 511.683 254.072 511.641C254.084 511.599 254.105 511.561 254.132 511.527C254.159 511.493 254.193 511.466 254.231 511.445Z" fill="#876036"/>
<path d="M269.634 507.221L269.485 507.128C269.438 507.082 269.374 507.056 269.308 507.056C269.242 507.056 269.178 507.082 269.131 507.128L269.047 507.259C269.031 507.287 269.02 507.318 269.016 507.35C269.012 507.382 269.014 507.415 269.023 507.446C269.032 507.477 269.047 507.506 269.067 507.532C269.087 507.557 269.112 507.578 269.141 507.594L269.29 507.696C269.346 507.734 269.415 507.75 269.482 507.739C269.549 507.729 269.61 507.693 269.653 507.64L269.737 507.51C269.753 507.481 269.763 507.45 269.766 507.417C269.77 507.385 269.767 507.352 269.757 507.32C269.748 507.289 269.732 507.26 269.711 507.235C269.689 507.21 269.663 507.19 269.634 507.175" fill="#876036"/>
<path d="M262.855 506.338L262.603 506.17C262.512 506.105 262.399 506.078 262.288 506.093C262.178 506.109 262.077 506.166 262.007 506.254L261.867 506.468C261.813 506.566 261.799 506.681 261.829 506.788C261.859 506.896 261.929 506.988 262.026 507.045L262.277 507.203C262.321 507.237 262.372 507.262 262.426 507.277C262.481 507.291 262.537 507.295 262.593 507.287C262.649 507.279 262.702 507.26 262.75 507.231C262.798 507.203 262.84 507.164 262.873 507.119L263.022 506.905C263.05 506.857 263.067 506.804 263.074 506.749C263.08 506.694 263.075 506.639 263.06 506.586C263.044 506.532 263.018 506.483 262.983 506.441C262.947 506.398 262.904 506.363 262.855 506.338Z" fill="#563A21"/>
<path d="M266.337 509.268L266.133 509.129C266.056 509.074 265.962 509.05 265.868 509.062C265.775 509.074 265.69 509.121 265.63 509.194L265.518 509.38C265.495 509.419 265.48 509.463 265.474 509.509C265.468 509.554 265.471 509.6 265.483 509.644C265.495 509.689 265.516 509.73 265.545 509.766C265.573 509.802 265.608 509.832 265.648 509.854L265.853 509.984C265.93 510.039 266.024 510.063 266.117 510.051C266.211 510.039 266.296 509.992 266.356 509.919L266.468 509.733C266.491 509.694 266.506 509.651 266.511 509.607C266.517 509.562 266.514 509.516 266.502 509.473C266.49 509.429 266.469 509.389 266.441 509.354C266.412 509.319 266.377 509.289 266.337 509.268Z" fill="#563A21"/>
<path d="M267.799 503.872L267.501 504.058C267.395 504.135 267.264 504.168 267.134 504.151C267.004 504.133 266.885 504.067 266.803 503.965L266.635 503.705C266.572 503.591 266.555 503.457 266.59 503.331C266.625 503.206 266.708 503.099 266.822 503.035L267.12 502.849C267.227 502.769 267.36 502.734 267.492 502.752C267.625 502.769 267.745 502.837 267.827 502.942L267.995 503.193C268.059 503.309 268.074 503.445 268.037 503.573C268 503.7 267.915 503.807 267.799 503.872Z" fill="#563A21"/>
<path d="M155.845 430.002L155.519 429.416C155.47 429.298 155.399 429.192 155.308 429.103C155.217 429.015 155.109 428.946 154.99 428.9C154.871 428.855 154.745 428.835 154.618 428.84C154.491 428.845 154.367 428.877 154.252 428.932L153.731 429.211C153.625 429.276 153.533 429.362 153.461 429.464C153.389 429.565 153.338 429.68 153.311 429.801C153.284 429.923 153.282 430.048 153.304 430.171C153.327 430.293 153.374 430.409 153.442 430.513L153.768 431.1C153.817 431.216 153.89 431.321 153.981 431.409C154.072 431.497 154.18 431.565 154.299 431.609C154.418 431.653 154.544 431.673 154.67 431.667C154.797 431.661 154.921 431.63 155.034 431.574L155.556 431.304C155.662 431.239 155.754 431.153 155.826 431.052C155.898 430.95 155.949 430.835 155.976 430.714C156.003 430.592 156.005 430.467 155.982 430.345C155.96 430.222 155.913 430.106 155.845 430.002Z" fill="#876036"/>
<path d="M149.568 434.021L150.006 433.723C150.078 433.661 150.161 433.614 150.252 433.586C150.343 433.558 150.439 433.549 150.533 433.559C150.627 433.57 150.719 433.6 150.801 433.647C150.883 433.694 150.955 433.758 151.011 433.835L151.244 434.207C151.33 434.383 151.346 434.586 151.289 434.774C151.232 434.962 151.106 435.121 150.937 435.221L150.499 435.528C150.426 435.589 150.341 435.635 150.25 435.662C150.159 435.69 150.063 435.699 149.968 435.688C149.873 435.678 149.781 435.648 149.698 435.602C149.615 435.555 149.542 435.492 149.484 435.416L149.251 435.044C149.168 434.865 149.154 434.661 149.213 434.472C149.271 434.283 149.398 434.122 149.568 434.021Z" fill="#876036"/>
<path d="M142.481 491.443L143.161 492.624C143.436 493.09 143.881 493.43 144.403 493.572C144.925 493.715 145.481 493.648 145.955 493.387L147.137 492.699C147.606 492.426 147.947 491.98 148.089 491.458C148.23 490.935 148.159 490.378 147.892 489.907L147.212 488.726C146.939 488.258 146.494 487.917 145.971 487.774C145.449 487.631 144.891 487.699 144.418 487.963L143.226 488.651C142.76 488.926 142.42 489.371 142.279 489.893C142.138 490.415 142.207 490.971 142.472 491.443" fill="#876036"/>
<path d="M141.68 500.941L142.006 500.355C142.056 500.239 142.128 500.134 142.219 500.046C142.311 499.958 142.419 499.89 142.537 499.846C142.656 499.801 142.782 499.782 142.909 499.788C143.035 499.794 143.159 499.825 143.273 499.881L143.794 500.151C143.9 500.216 143.992 500.302 144.064 500.403C144.136 500.505 144.187 500.62 144.214 500.741C144.241 500.862 144.243 500.988 144.221 501.11C144.198 501.233 144.151 501.349 144.083 501.453L143.757 502.049C143.708 502.165 143.635 502.27 143.544 502.358C143.453 502.446 143.345 502.514 143.226 502.558C143.108 502.603 142.981 502.622 142.855 502.616C142.728 502.61 142.604 502.579 142.491 502.523L141.969 502.253C141.862 502.188 141.769 502.102 141.696 501.999C141.623 501.897 141.572 501.781 141.545 501.659C141.518 501.536 141.516 501.41 141.539 501.286C141.562 501.163 141.611 501.046 141.68 500.941Z" fill="#876036"/>
<path d="M147.445 506.57L147.221 506.133C147.146 505.961 147.005 505.827 146.831 505.759C146.656 505.691 146.462 505.695 146.29 505.77L145.908 505.956C145.754 506.049 145.643 506.199 145.599 506.373C145.556 506.547 145.583 506.732 145.675 506.886L145.899 507.314C145.935 507.4 145.989 507.478 146.055 507.543C146.122 507.608 146.201 507.659 146.287 507.694C146.374 507.728 146.466 507.745 146.559 507.744C146.653 507.743 146.745 507.723 146.83 507.686L147.203 507.5C147.28 507.455 147.347 507.395 147.401 507.324C147.455 507.253 147.494 507.172 147.517 507.085C147.539 506.999 147.545 506.909 147.532 506.821C147.52 506.732 147.49 506.647 147.445 506.57Z" fill="#876036"/>
<path d="M142.481 510.375L142.621 510.105C142.668 509.999 142.754 509.915 142.862 509.87C142.969 509.825 143.089 509.823 143.198 509.864L143.44 509.984C143.49 510.013 143.533 510.052 143.568 510.097C143.602 510.143 143.627 510.195 143.641 510.251C143.655 510.306 143.657 510.364 143.649 510.42C143.64 510.477 143.62 510.531 143.589 510.58L143.45 510.85C143.403 510.956 143.316 511.04 143.209 511.085C143.102 511.13 142.981 511.132 142.872 511.092L142.63 510.971C142.532 510.911 142.461 510.815 142.434 510.703C142.406 510.592 142.423 510.474 142.481 510.375Z" fill="#876036"/>
<path d="M437.12 142.696H376.303C375.56 142.761 374.874 143.117 374.392 143.685C373.911 144.253 373.673 144.988 373.731 145.731V147.481H439.692V145.731C439.75 144.988 439.512 144.253 439.031 143.685C438.549 143.117 437.862 142.761 437.12 142.696Z" fill="#39D344"/>
<path d="M388.956 177.976L373.816 147.884C373.745 147.759 373.709 147.617 373.71 147.473C373.711 147.329 373.75 147.188 373.824 147.064C373.897 146.94 374.002 146.837 374.127 146.766C374.253 146.696 374.395 146.659 374.539 146.661H431.118C431.263 146.657 431.407 146.692 431.534 146.762C431.661 146.832 431.768 146.934 431.842 147.058C431.917 147.183 431.958 147.325 431.959 147.47C431.961 147.615 431.924 147.758 431.853 147.884L416.701 177.976C415.407 180.543 413.424 182.701 410.975 184.208C408.526 185.716 405.705 186.514 402.828 186.514C399.952 186.514 397.131 185.716 394.682 184.208C392.232 182.701 390.25 180.543 388.956 177.976Z" fill="#714E29"/>
<path d="M400.985 169.496L390.108 147.884C390.036 147.758 389.999 147.615 390.001 147.47C390.003 147.325 390.043 147.183 390.118 147.058C390.193 146.934 390.299 146.832 390.427 146.762C390.554 146.692 390.697 146.657 390.843 146.661H438.884C439.028 146.659 439.17 146.696 439.296 146.766C439.421 146.837 439.526 146.94 439.599 147.064C439.672 147.188 439.712 147.329 439.713 147.473C439.714 147.617 439.678 147.759 439.607 147.884L428.729 169.496C427.435 172.063 425.453 174.22 423.004 175.728C420.554 177.235 417.734 178.033 414.857 178.033C411.98 178.033 409.16 177.235 406.711 175.728C404.261 174.22 402.279 172.063 400.985 169.496Z" fill="#876036"/>
<path d="M403.027 199.382L403.836 200.789C404.1 201.33 404.567 201.745 405.136 201.945C405.704 202.144 406.329 202.111 406.874 201.854L408.098 201.168C408.595 200.824 408.935 200.299 409.048 199.706C409.16 199.114 409.035 198.5 408.699 197.999L407.89 196.604C407.628 196.061 407.162 195.643 406.593 195.441C406.024 195.24 405.399 195.27 404.852 195.527L403.628 196.225C403.134 196.568 402.796 197.092 402.686 197.683C402.576 198.274 402.703 198.884 403.04 199.382" fill="#714E29"/>
<path d="M410.585 206.296L411.161 207.324C411.35 207.729 411.691 208.044 412.11 208.202C412.528 208.36 412.992 208.348 413.402 208.168L414.309 207.679C414.494 207.563 414.654 207.411 414.78 207.233C414.906 207.055 414.994 206.853 415.041 206.64C415.088 206.427 415.092 206.207 415.052 205.992C415.013 205.777 414.931 205.573 414.811 205.39L414.248 204.35C414.054 203.949 413.712 203.639 413.294 203.484C412.876 203.329 412.415 203.341 412.006 203.518L411.1 203.995C410.914 204.112 410.754 204.265 410.628 204.444C410.502 204.623 410.412 204.825 410.364 205.039C410.316 205.253 410.311 205.474 410.349 205.689C410.387 205.905 410.467 206.111 410.585 206.296Z" fill="#876036"/>
<path d="M403.579 211.681L404.068 210.8C404.228 210.459 404.515 210.194 404.867 210.062C405.22 209.929 405.61 209.939 405.955 210.09L406.727 210.494C406.883 210.593 407.018 210.722 407.124 210.874C407.23 211.026 407.305 211.197 407.345 211.378C407.385 211.558 407.388 211.745 407.356 211.927C407.323 212.11 407.255 212.283 407.155 212.439L406.678 213.308C406.515 213.649 406.226 213.914 405.872 214.047C405.518 214.179 405.126 214.169 404.779 214.018L404.02 213.614C403.863 213.517 403.727 213.389 403.62 213.239C403.513 213.089 403.436 212.919 403.395 212.739C403.354 212.559 403.349 212.373 403.381 212.192C403.412 212.01 403.479 211.836 403.579 211.681Z" fill="#714E29"/>
<path d="M411.737 217.114L411.381 216.453C411.259 216.195 411.041 215.995 410.774 215.895C410.506 215.794 410.211 215.801 409.948 215.915L409.373 216.233C409.254 216.305 409.15 216.401 409.069 216.514C408.988 216.627 408.93 216.755 408.899 216.891C408.868 217.027 408.865 217.167 408.889 217.304C408.914 217.442 408.966 217.572 409.042 217.689L409.409 218.35C409.527 218.609 409.742 218.811 410.009 218.912C410.275 219.013 410.57 219.004 410.83 218.888L411.418 218.582C411.655 218.429 411.821 218.189 411.881 217.914C411.941 217.639 411.889 217.351 411.737 217.114Z" fill="#876036"/>
<path d="M404.387 222.082L404.669 221.581C404.76 221.385 404.924 221.234 405.125 221.158C405.327 221.083 405.55 221.089 405.747 221.177L406.176 221.409C406.266 221.464 406.344 221.537 406.405 221.622C406.466 221.708 406.51 221.805 406.533 221.908C406.555 222.011 406.557 222.117 406.538 222.221C406.519 222.324 406.479 222.423 406.421 222.511L406.151 223.012C406.058 223.205 405.894 223.355 405.693 223.43C405.492 223.505 405.27 223.5 405.073 223.416L404.632 223.184C404.456 223.068 404.331 222.889 404.285 222.683C404.24 222.477 404.276 222.262 404.387 222.082Z" fill="#876036"/>
<path d="M409.63 226.035L409.275 225.815C409.147 225.72 408.987 225.678 408.83 225.699C408.672 225.719 408.528 225.8 408.429 225.925L408.233 226.231C408.194 226.298 408.169 226.373 408.159 226.45C408.148 226.527 408.154 226.606 408.174 226.681C408.195 226.756 408.23 226.826 408.278 226.888C408.326 226.949 408.386 227 408.454 227.038L408.809 227.271C408.938 227.364 409.099 227.404 409.257 227.381C409.414 227.358 409.557 227.275 409.654 227.149L409.862 226.843C409.901 226.775 409.926 226.699 409.935 226.622C409.944 226.544 409.938 226.465 409.916 226.39C409.895 226.315 409.858 226.244 409.809 226.183C409.76 226.122 409.699 226.072 409.63 226.035Z" fill="#714E29"/>
<path d="M422.391 91.1111C421.596 90.7407 416.273 88.3429 411.418 91.2029C406.844 93.8985 406.103 99.2481 405.99 100.173C405.988 100.261 406.01 100.347 406.052 100.424C406.094 100.5 406.155 100.565 406.23 100.611C406.342 99.6866 407.084 94.3363 411.658 91.6407C416.036 89.0614 420.795 90.7563 422.27 91.3874C422.304 91.2928 422.347 91.2016 422.398 91.1148L422.391 91.1111Z" fill="#D8E022" stroke="#231F20" stroke-width="0.5" stroke-miterlimit="10"/>
<path d="M425.432 91.8416C425.413 91.5021 425.288 91.1771 425.075 90.9121C424.862 90.6471 424.571 90.4554 424.244 90.3637C423.916 90.2721 423.569 90.2852 423.249 90.4012C422.929 90.5172 422.654 90.7302 422.461 91.0105C422.438 91.0446 422.418 91.0794 422.398 91.1135C422.347 91.2002 422.304 91.2915 422.27 91.386C422.168 91.6678 422.146 91.9722 422.206 92.2657C422.265 92.5592 422.405 92.8306 422.609 93.0499C422.813 93.2692 423.074 93.428 423.362 93.5089C423.651 93.5898 423.956 93.5895 424.244 93.5083L423.661 91.8394L425.432 91.8416Z" fill="#EF4623"/>
<path d="M417.761 113.475C417.761 105.664 411.429 99.3333 403.618 99.3333C395.807 99.3333 389.474 105.664 389.474 113.475C389.474 113.489 389.474 113.503 389.474 113.517V136.765C389.474 137.49 389.762 138.184 390.274 138.697C390.786 139.209 391.481 139.497 392.206 139.497C392.93 139.497 393.625 139.209 394.137 138.697C394.649 138.184 394.937 137.49 394.937 136.765V134.535C394.949 134.284 395.057 134.047 395.24 133.873C395.422 133.699 395.664 133.602 395.916 133.602C396.168 133.602 396.41 133.699 396.592 133.873C396.774 134.047 396.883 134.284 396.895 134.535V136.765C396.895 137.124 396.965 137.48 397.103 137.811C397.24 138.143 397.442 138.444 397.696 138.698C397.95 138.952 398.251 139.153 398.583 139.29C398.915 139.427 399.271 139.497 399.63 139.497C400.354 139.497 401.049 139.209 401.561 138.697C402.073 138.184 402.361 137.49 402.361 136.765V134.535V134.461C402.361 134.332 402.387 134.204 402.436 134.085C402.486 133.966 402.559 133.858 402.651 133.767C402.742 133.676 402.851 133.604 402.971 133.555C403.09 133.506 403.218 133.481 403.347 133.481H403.599C403.859 133.481 404.109 133.585 404.293 133.769C404.477 133.953 404.581 134.203 404.581 134.463V136.764C404.581 137.488 404.868 138.183 405.381 138.695C405.893 139.207 406.587 139.495 407.312 139.495C408.036 139.495 408.731 139.208 409.243 138.695C409.756 138.183 410.044 137.488 410.044 136.764V134.534H410.05C410.078 134.295 410.193 134.074 410.372 133.914C410.552 133.754 410.784 133.665 411.025 133.665H411.28C411.54 133.665 411.79 133.769 411.974 133.953C412.158 134.137 412.261 134.386 412.261 134.647V137.185C412.362 137.83 412.689 138.417 413.184 138.841C413.68 139.265 414.311 139.498 414.963 139.497H415.033C415.757 139.497 416.452 139.209 416.964 138.697C417.477 138.184 417.764 137.49 417.764 136.765V113.517C417.761 113.503 417.761 113.489 417.761 113.475Z" fill="#FBB040" stroke="#231F20" stroke-width="0.5" stroke-miterlimit="10"/>
<path d="M397.735 121.105C401.746 121.105 404.998 117.854 404.998 113.843C404.998 109.832 401.746 106.581 397.735 106.581C393.725 106.581 390.473 109.832 390.473 113.843C390.473 117.854 393.725 121.105 397.735 121.105Z" fill="white" stroke="#231F20" stroke-width="0.5" stroke-miterlimit="10"/>
<path d="M395.795 118.271C398.136 118.271 400.034 116.374 400.034 114.033C400.034 111.692 398.136 109.794 395.795 109.794C393.455 109.794 391.557 111.692 391.557 114.033C391.557 116.374 393.455 118.271 395.795 118.271Z" fill="#231F20" stroke="#231F20" stroke-miterlimit="10"/>
<path d="M394.502 116.83C395.79 116.83 396.833 115.786 396.833 114.499C396.833 113.211 395.79 112.167 394.502 112.167C393.215 112.167 392.171 113.211 392.171 114.499C392.171 115.786 393.215 116.83 394.502 116.83Z" fill="white" stroke="#231F20" stroke-miterlimit="10"/>
<path d="M398.725 112.527C398.941 112.292 398.788 111.8 398.383 111.428C397.979 111.056 397.475 110.946 397.259 111.181C397.043 111.417 397.196 111.909 397.601 112.28C398.005 112.652 398.509 112.762 398.725 112.527Z" fill="white" stroke="#231F20" stroke-miterlimit="10"/>
<path d="M402.402 127.344C402.14 128.593 400.444 129.447 399.395 128.933C398.601 128.544 398.454 127.51 398.432 127.344C398.273 126.227 398.873 124.838 399.85 124.621C401.061 124.353 402.701 125.926 402.402 127.344Z" fill="#231F20" stroke="#231F20" stroke-width="0.5" stroke-miterlimit="10"/>
<path d="M400.037 124.99C400.037 124.99 400.362 126.12 400.914 126.619C401.466 127.119 401.603 125.932 401.603 125.932C401.603 125.932 401.21 125.282 400.037 124.99Z" fill="white" stroke="#231F20" stroke-width="0.2" stroke-miterlimit="10"/>
<path d="M400.702 125.092C400.702 125.092 400.602 125.944 399.838 126.414C399.075 126.884 398.996 125.428 398.996 125.428C398.996 125.428 399.79 124.84 400.702 125.092Z" fill="white" stroke="#231F20" stroke-width="0.2" stroke-miterlimit="10"/>
<path d="M383.127 123.094C383.127 123.094 380.441 119.605 379.45 116.761C379.45 116.761 379.073 115.057 380.578 115.404C380.578 115.404 381.615 115.33 387.345 118.567C387.345 118.567 388.418 119.105 388.678 120.18C388.678 120.18 388.975 122.048 385.782 123.643C385.784 123.643 384.624 124.699 383.127 123.094Z" fill="#FBB040" stroke="#231F20" stroke-width="0.5" stroke-miterlimit="10"/>
<path d="M385.916 118.62C386.212 118.524 388.138 119.389 388.162 120.472C388.182 121.503 386.458 122.3 386.151 122.202C385.905 122.125 386.675 121.52 386.626 120.45C386.575 119.333 385.68 118.696 385.916 118.62Z" fill="#8D5D15"/>
<path d="M409.708 125.424C409.708 125.424 407.021 121.935 406.031 119.09C406.031 119.09 405.653 117.387 407.158 117.734C407.158 117.734 408.195 117.66 413.926 120.897C413.926 120.897 414.998 121.435 415.259 122.51C415.259 122.51 415.555 124.378 412.364 125.973C412.365 125.973 411.205 127.028 409.708 125.424Z" fill="#FAA751" stroke="#231F20" stroke-width="0.5" stroke-miterlimit="10"/>
<path d="M412.497 120.95C412.793 120.853 414.719 121.719 414.743 122.802C414.763 123.832 413.039 124.63 412.732 124.532C412.485 124.458 413.256 123.849 413.207 122.779C413.155 121.665 412.261 121.026 412.497 120.95Z" fill="#8D5D15"/>
<path d="M394.469 136.841C394.621 137.039 393.624 138.701 392.202 138.693C390.795 138.687 389.816 137.057 389.968 136.856C390.09 136.696 390.884 137.523 392.211 137.523C393.538 137.523 394.348 136.682 394.469 136.841Z" fill="#8D5D15"/>
<path d="M401.864 136.841C402.012 137.039 401.019 138.701 399.597 138.693C398.19 138.687 397.211 137.057 397.363 136.856C397.484 136.696 398.279 137.523 399.606 137.523C400.933 137.523 401.743 136.682 401.864 136.841Z" fill="#8D5D15"/>
<path d="M409.532 136.841C409.681 137.039 408.688 138.701 407.266 138.693C405.858 138.687 404.88 137.057 405.031 136.856C405.152 136.696 405.948 137.523 407.275 137.523C408.601 137.523 409.412 136.682 409.532 136.841Z" fill="#8D5D15"/>
<path d="M417.267 136.841C417.415 137.039 416.423 138.701 415.001 138.693C413.594 138.687 412.615 137.057 412.766 136.856C412.888 136.696 413.683 137.523 415.009 137.523C416.336 137.523 417.146 136.682 417.267 136.841Z" fill="#8D5D15"/>
</g>
<defs>
<clipPath id="clip0_376_242">
<rect width="447" height="521" fill="white"/>
</clipPath>
</defs>
</svg>
